<mxfile host="app.diagrams.net" agent="Mozilla/5.0 (Windows NT 10.0; Win64; x64) AppleWebKit/537.36 (KHTML, like Gecko) Chrome/131.0.0.0 Safari/537.36" version="25.0.3">
  <diagram name="Page-1" id="fAQrYkp6J2KjolTSuwb5">
    <mxGraphModel grid="1" page="1" gridSize="10" guides="1" tooltips="1" connect="1" arrows="1" fold="1" pageScale="1" pageWidth="827" pageHeight="1169" math="0" shadow="0">
      <root>
        <mxCell id="0" />
        <mxCell id="1" parent="0" />
        <mxCell id="VhhkQ_d4QDXPh7xiBEXZ-5" style="edgeStyle=orthogonalEdgeStyle;rounded=0;orthogonalLoop=1;jettySize=auto;html=1;exitX=1;exitY=0.5;exitDx=0;exitDy=0;entryX=0;entryY=0.5;entryDx=0;entryDy=0;" edge="1" parent="1" source="VhhkQ_d4QDXPh7xiBEXZ-1" target="VhhkQ_d4QDXPh7xiBEXZ-3">
          <mxGeometry relative="1" as="geometry" />
        </mxCell>
        <mxCell id="VhhkQ_d4QDXPh7xiBEXZ-6" style="edgeStyle=orthogonalEdgeStyle;rounded=0;orthogonalLoop=1;jettySize=auto;html=1;entryX=0;entryY=0.5;entryDx=0;entryDy=0;" edge="1" parent="1" source="VhhkQ_d4QDXPh7xiBEXZ-1" target="VhhkQ_d4QDXPh7xiBEXZ-4">
          <mxGeometry relative="1" as="geometry">
            <mxPoint x="250" y="230" as="sourcePoint" />
          </mxGeometry>
        </mxCell>
        <mxCell id="VhhkQ_d4QDXPh7xiBEXZ-1" value="" style="image;html=1;image=img/lib/clip_art/computers/Laptop_128x128.png" vertex="1" parent="1">
          <mxGeometry x="89" y="181" width="80" height="80" as="geometry" />
        </mxCell>
        <UserObject label="https://cie.carrefour.com/" link="https://cie.carrefour.com/" id="VhhkQ_d4QDXPh7xiBEXZ-2">
          <mxCell style="text;whiteSpace=wrap;" vertex="1" parent="1">
            <mxGeometry x="61" y="154" width="136" height="20" as="geometry" />
          </mxCell>
        </UserObject>
        <mxCell id="VhhkQ_d4QDXPh7xiBEXZ-28" style="edgeStyle=orthogonalEdgeStyle;rounded=0;orthogonalLoop=1;jettySize=auto;html=1;exitX=1;exitY=0.5;exitDx=0;exitDy=0;entryX=0.5;entryY=0;entryDx=0;entryDy=0;" edge="1" parent="1" source="VhhkQ_d4QDXPh7xiBEXZ-3" target="VhhkQ_d4QDXPh7xiBEXZ-19">
          <mxGeometry relative="1" as="geometry" />
        </mxCell>
        <mxCell id="VhhkQ_d4QDXPh7xiBEXZ-3" value="1 - France HYPER" style="rounded=1;whiteSpace=wrap;html=1;fillColor=#dae8fc;strokeColor=#6c8ebf;" vertex="1" parent="1">
          <mxGeometry x="360" y="191" width="120" height="60" as="geometry" />
        </mxCell>
        <mxCell id="VhhkQ_d4QDXPh7xiBEXZ-29" style="edgeStyle=orthogonalEdgeStyle;rounded=0;orthogonalLoop=1;jettySize=auto;html=1;exitX=1;exitY=0.5;exitDx=0;exitDy=0;entryX=0.5;entryY=0;entryDx=0;entryDy=0;" edge="1" parent="1" source="VhhkQ_d4QDXPh7xiBEXZ-4" target="VhhkQ_d4QDXPh7xiBEXZ-19">
          <mxGeometry relative="1" as="geometry">
            <mxPoint x="570" y="410" as="targetPoint" />
          </mxGeometry>
        </mxCell>
        <mxCell id="VhhkQ_d4QDXPh7xiBEXZ-4" value="2 - France MARKET" style="rounded=1;whiteSpace=wrap;html=1;fillColor=#f8cecc;strokeColor=#b85450;" vertex="1" parent="1">
          <mxGeometry x="360" y="300" width="120" height="60" as="geometry" />
        </mxCell>
        <mxCell id="VhhkQ_d4QDXPh7xiBEXZ-41" style="edgeStyle=orthogonalEdgeStyle;rounded=0;orthogonalLoop=1;jettySize=auto;html=1;exitX=0.5;exitY=1;exitDx=0;exitDy=0;" edge="1" parent="1" source="VhhkQ_d4QDXPh7xiBEXZ-19" target="VhhkQ_d4QDXPh7xiBEXZ-36">
          <mxGeometry relative="1" as="geometry" />
        </mxCell>
        <mxCell id="VhhkQ_d4QDXPh7xiBEXZ-42" value="Compiler sur" style="edgeLabel;html=1;align=center;verticalAlign=middle;resizable=0;points=[];" connectable="0" vertex="1" parent="VhhkQ_d4QDXPh7xiBEXZ-41">
          <mxGeometry x="-0.12" y="-1" relative="1" as="geometry">
            <mxPoint as="offset" />
          </mxGeometry>
        </mxCell>
        <mxCell id="VhhkQ_d4QDXPh7xiBEXZ-19" value="" style="swimlane;startSize=0;" vertex="1" parent="1">
          <mxGeometry x="340" y="420" width="460" height="540" as="geometry" />
        </mxCell>
        <mxCell id="VhhkQ_d4QDXPh7xiBEXZ-8" value="" style="shape=image;verticalLabelPosition=bottom;labelBackgroundColor=default;verticalAlign=top;aspect=fixed;imageAspect=0;image=data:image/png,iVBORw0KGgoAAAANSUhEUgAAAzsAAACUCAYAAAC0jTeJAAAAAXNSR0IArs4c6QAAAARnQU1BAACxjwv8YQUAAAAJcEhZcwAADsMAAA7DAcdvqGQAACa9SURBVHhe7d0JeFXVvffxX0gIlAQIQ5iiYiJQQbQNti91rK/XliqiFaVSKba9tFyH1ud6Ra19kbbqa62C9rGOWDrIi0OptIJwRS2voFzrc9W8lUkBCVgShjBDYsj47rXPOjlD9jk5OVOSw/fjsz177WGtE87a++z/XmuvkzXoC9Oa1SIr8GKWBr/Gos39vDaIXEDsW9s1Wc5rs31Np+A35v0GrdANs5z/3JST9L/tVL59f+lDhvR1013dnqqj7h/k/rs5af/fF/8/X3AOHjm1sTrZWhXn/KHNTgUxr3G9kYib+1b46mNQvXSXxpx7ZMEZJZRhOzMK28xr76i5tLlBirWUH/xGIr+h2LYKFrZlGxn4F/u12izCfvELzjD81UMbq9viVUpM2bknIGfL4NdYBBfgWVDEFXFpVZwzk9j3TascnSnAa6376rWiPWLez6ugeAq0Wnb3zaTsfBlJuwuwO7gfdCAZaf/g1TFs3rY2Mgr99wt9jU9YgYlW8ODs4hC8e/irT+slrgiLU65VucELwl89ljoz0f+5W+0R9Nq2iHt7rfCQNe+xp81qAAAAAMgo3ewrAAAAAGQUgh0AAAAAGYlgBwAAAEBGItgBAAAAkJEIdgAAAABkJIIdAAAAABmJYAcAAABARnJ/Zye/u011YjNnzrRzAAAAANDaw4/Pt3M+tOwAAAAAyEgEOwAAAAAyUucLdl57Tbr/funmm32TmTfLAAAAAKAdOk+wU1XlC2xeeknasUNqaPBNZt4sAwAAAIB26DzBzjPP+AIbAAAAAEiCzhHsmG5qBDoAAAAAkqhzBDvvvWdngvziaemRW20CAAAAANqncwQ7FRV2xviaE+Q4gc62tTYNAAAAAO3XOYIdMxBBi9elW/9N+qNNAgAAAEAM/vrmDtU02YQja95jTzfnd7cpD2+X7dS6rVXac6BajY3NdmlyZGdnaXD/PN34xlN2SbDrpUcGOIHPI25qZnNyywYAAACQWX7xoxtUMXicTu/vS0ds2TlwpFZPLi7TynfKVVl1LOmBjmHyNHkDAAAAQKJ6jw4EOkbEYOfFlZvSFog0ZnWO3nQAAAAA0uOTv72ib816Rcs+tQsiiHU7L55Rhum6ls4Wlz2f62fnAAAAAGS+PXrz5UqVba3Uf8x6XgsiBDKf/OV5Xfkb33a//fseuzSyl55fqY8O2ITDM9gxz+ik07qC4XYOAAAAQOYbrIsmDFShma07qgc8Ah430PnjUR03idzeuuIrg93l0Vw9Pler/7HTpiIEO2YwgnR6u3CMKnsNsCm/Z1sGJwAAAACQWU6bOFkLfxgU8MxeosU24Plk+RJNDwp0fjL325pxirsqqoqd+zWwb75NRQh2UjEYQVteHH6+R8ADAAAAIFOFBDxH9umnTsDzwDNOoPPMPrl9zfoM1P0xBjrG35u+rEu/WGBTUQYoSLcDTsT25MhLtXLYOGn4cCknxzeZ+auvtlsBAAAAyCThAc+C5UGBzn2TNSXGQMe4+qLh6hUU4XSaYMfPdGnTT38qPf64bzLzX/+6XQsAAAAg05w28UrN+3quTRnZmnLTle0KdLx0umAHAAAAwInlk+Uv67bX6mzKaNTiJ15ueYYnXgQ7AAAAADqMOxhB0DM6MyYGPcMTZVjqWCQl2Ll86gW6d+ppNhUQaTkAAAAAhAc65hmdn/wwbJS2BAKepAQ7OVnO/7JaZxVpOQAAAIATm/s7OmGBjv8ZnVbDUscZ8GTNe+zp5vzuNmXd/cRbdi6yUReUasoZ+eoZayzT1KBdGz7WE28F/aRpBPfedIGdC5g5c6adAwAAANC17dGCW17WAyaAifI7OsEtP2Ouu1Ivfyv6D4s+/Ph8O+cTZ7NLsS5pT6BjdMvR0DOG6xs2CQAAAOBENVgXXTlMpSOG6eEov6PjtvD82LfdD74SPdDxEmewk6OcePbs1k097SwAAACAE9dp/3K5/jT3ck1qY3jpWLfzEmewAwAAAACdW0LBTm3FNvf5nruf2O32owuk39KrFQ3Okhq9H5IGAAAAgPRIrGUnJ1dnfb7QmXKUE5IuVG93QTd9LiQNAAAAAKlx7ND+kCmhYKfn4JM05V9Od6aB6heSPl3nDTbRTU+NCUkDAAAAQGrkFwwImRLrxrZnpxb/7SNn2qeDIemPtHaP6bZWq40haQAAAABIj8S6sTXU6cOPq5ypQW4o05Ku0lF3QZM+C0kDAAAAQHok1o1t6Kn62Q/Pc6ZB7q+bBtLn6ZKhpttaL30hJA0AAAAA6ZFYyw4AAAAAdFKJPbOza7t+8cxaZ9rrG3q6Jb1Wb+wy/dZq9I+QNAAAAACkR5zBToMamqSeA4do+iWf15RLeqmnszSnV4Ezb9KfV0kvk3WOBrnpM3T2wBypqUm17v4AAAAAkFpxBjvlemPDMdV276VRowbprFF91NtZmtOvvzNv0oM0qp/JOlcnu+n+KuzeoF0bduhVd38AAAAASK2seY893Zzf3aasu594y851jHtvusDOBcycOdPOAQAAAEBrDz8+3875JPTMDgAAAIDM1tzc7E5NTU3u1NjY6Dn51/u37wwIdgAAAAC0YgIWE8TU19fr+PHj+uyzz1RdXR11MtuYbc0+Zt+ODnroxgYAAAAghGmhaWhoUF1dnf7vtsP6x97j+vRok47UNaspQvzSLUvqk5ulU3p30xcG9dD/LOmr3Nxc5eTkqFu39LSx0I0NAAAAgCd/a45pnXnt4336j9d3a+HGGn24r1GHjkcOdAyzzmxjtjX7mH1NHiavjmrl8Qx2srOdsKyDdGTZAAAAwInMtOjU1tZqwXt79eyGajd4iZfZ1+Rh8jJ5mrzTzTPYGdw/z86lX0eWHdHeXbrzxW1attem/SItBwAAALoYE4yYbmu//2Cf1lTU2aWJM3mZPE3e6Q54PIOdM0cU2rn068iyI2psVl1zs+obbdov0vJU279bs1/Yom85053vHLEL21Z/7IjWbz2SpPe7T4/a9/DoRrsIAAAAXZLpYmae0fnb1oNJDXT8TJ4mb1NGOruzeQ5QYDy5uEyVVcdsKj2GFebrximlNhUq7QMUNB7Rytf2asHh2D+Mgr699bOvD1FRtl0Qg4p3PtGtO0Ij3O453VRc2Ee3nF+oQa3yOqplS3drYY1UXDRQcy7op9jawkxwclBvO3PFxUP1q/H5vsVxC+R3/lkjdcsY31IAAAB0PeaZGjOSmnnOJpGua9EU9MjSw18bos997nPKzm7HBXM7xDxAwbUTRrvBR7qYskyZncWhsgPtCnSMQ4eP6skyJwpJUH1DkzbvOqQ7V+1TtV3mV/FulS/QGV6o+2IOdIweKrYbF+QyLgUAAAB8TEuL6V72ZvkR70BnyGA9MmWkFl0xTJOihAeDTh+m+Wa7SwdrrF0WzORtyjBlpat1J+JVb/8+Pd1WlgnnFLuBSCoGDjB5mrxNGaYsU2ZnUR1nX69491PPPD0ydaT+NKVIc4b6Ppbq/Ue0Kux5oKLxJfqTs92vzimQR4NcFL01aZKTv7PvXaW97DIAAADA17Lzjz3Hbcpb9155mnqxd8BjAp37zsxTQRsNNqYMU1a6ROzG1tmkuxubV/eyWBQNH6JHzultU21rKccEO98cpiKzcFelbl1drQpnNtBFrEl711Xo0a212mzrYV5eD834cpHOH2Jr1cZP9a0PnZX9C/Snc7tpwaoDWlkjlZ4+XHd98UhLt7PQ9+jk9997tGBHncobfEsG5ffU9PFFGl8YiIWryyv1aFm1ykwXzuxsXXx6nvSRE4w5dTW0G5tHfn3zdMO5QzS2r83v2EEte+eglhxoVLUJ6rOyVJSXq2+MHaIJp+b6tgEAAEBamJYWM1rav6+sjNiFLTiYqa+p1gurKrXMPvESbV0405Xt1xOGqWfPnin57R1+Z6ddeug209riTI8MN/9UgfSfpvbT+c4SEzgEp5MiOMayn9Ch9z7Vjzb4Ap283CwV5DgBSPVxPfrmDi3b5dumxbFqzX7dF+gYebmRAogmrV+9U7M/CQQmxt5jtZr3t+2BfPfv1i/ftYGO4UTjqzb4Ap1QTn5vBvIrMO/TqfR7D1frntd3ytfDr0ar1uzTwv1OoCNnvdmmW7MqjtXrYDaBDgAAQEcwAY/5wdBI9n5UqdnrqnXIuf5zW3guGqoJ+U6gM2Ko5sQY6Bjuj5KmcUQ2gp2omlV9sEaHnKnaDQYC6UMHzcW6o6E+NJ2oWieIWF/jtuo4VUljT3FeGvfrhfJ6d8mo04bp95NHaP41J+uGvmZJo5Z8fMBd16KuXpvruunizw/UYxOG6HqTh5f9e/TCLl+lNs8ALTJB2+SBmtDDLGnUwg+rZEqt2FytzWaRU10mn2e60Z2m+WNyWz8vZPLb7TbV6OJxzjbmfTr5TTL5NRzXSxtNtFOj9XYAuaKigb5tppymRV8bokkn+5YDAACg8wkJePLzdf1FwzWnNN8dUCuWQKcjEOxEVaenVlZopjPNrjARaCA9c+URlTlLKir2h6TjVlutW81Qzn/do6cO+gOQ/rrYPF6z+7g+dltRslR/YL+e+tunzrRXZfW+56iqj9XpkDvn5wQbpcW6obSfBvXrrYJID5JV1tkgprsmfME+A5TbT98YYqvFkVp9rCbtPGqj7775uvpkpzY71abgrN4638wGa8kvS3v/udP3Pt88qnJ7k6DiWK3z/14a28emd1Zp2tIdWrb5M2lAXjsGWwAAAEAyZWVlqU9u28/ohwY8ue0OdEwZpqx0IdiJKlc3TCjSfGe6r8j8UwXS8yf0kRkku6hoQEg6Gbr3cIKPMUN03zk2KjjcYFt6mlV+8LhWVfmmd2tsFNHQFNaqlKVBvdv+aCuO+fuudVOe15gFjc1OvtWqsN3hlJMdNChCd/ULe9YrkF+T1tv3aKb1tvtbdb0Jmnrp4gsHampfXyWvr6nTwg8q9b2//lPrO9mdAAAAgBOBCT7M8zOn5McWGgQHPO1t0TFlmLLSFfAQ7ESVpbx+vVTgTHk5oemCftm+loic7qHpePlHY3OmRVedqhln9Q4EFn1zfAMXOB/X5Av8zwwFTf6BDdqpKN/9oxxOsOQPaMKYzmpF/kCoodHt1ubToOqw7paB/HJ12xSP9/m1gb7V+f00+dIRWvT1/po+oJv7d9bX1mree2Hd8QAAAJAW5ndvzhoU+/PTJuCZuXiLpi1tX9c1U0aqfmPHS5ujsb1dtlPrtlZpz4FqNTbaloQkMUNPD+6fpzNHFOr80pPsUm8dNRqbGQzA/edx/nYTvbakHdV1zap3/gb/EHsmPSgZo7GFa9yvp5YccAcEyBvQT485QYM/sKo/cFA71U/F/Z2EfzQ2Jyia+tXTNHmou4kV+BHQltHYDu7W7JVH3a5n7u/2mOGs6w5qwfJ9Wmmy6VegRRMKtfPtT3TnThPZZGvqBadqclE3VTtl/cgpy7QotYzGtn+XZr9+zOY3WL/yt0w5wVT9riPa27fACZyqVb5dOunUPPvv2Ki3V27TowedWedvawmIAAAAkDZmOOjq6mrNemOPDvkHpUqyAieWmnvJYOXl5aUs4Il5NLYDR2r15OIyrXynXJVVx5Ie6BgmT5O3KcOUZcqEh+wBmn5GDzfAqd5/UN9fvFUzlzjTn51o+rV9Wrbbt1m79RukG4f7Klr5jipNM88MLbGBjglsxg5wA5Li0XkaZRY5gckLb32ibznbfd8JdFodBwMGB+W3R9P+bN/n4k80bfV+vXvYrPlMy/5e6ZblrlvifPYm0HGMHcDv/wAAAHQE07WsR48eumJE6p6iNnmnasjpSCKW9OLKTW4gki6mLFNm59JDN7gjio3Qz04y/1SB9PzJBRrvLCk6aXBIOlXyxpykR76cr/F5WepuWpnqTEtTlorye2r8ELtRu3VT0TnD9diYHir290BzmN/ZueWi4W4LjmvAEN01Pk+ltmWze062Jowr0l2Dwvta+vPrqVE9pPoG+z6VpeIBzv7u6HE9NG5Attsa5q5zJvMs0PhRhbprHMEOAABARzDP0HTv3l0XjyjQhUVRun3FyeRp8s7JyUnrAAWe3dhM1zXT2tIRJpxT7NmlLd3d2A69t10ztzZo7Em9dXHfbjq467AWHuimSWf0VrG7RZ1e3VCjvf3zdf3QHNUdrtbCnfUqGlGk+77ERTsAAAC6HtOdzfzA6O8/2Kc1Fcnpz3ZhUa6+P26g26qT6ud1wruxZU+4bNLPc8PKXP72Jzpak6LOem347HiDvnxGyMMmrrPPPtvOpUfPwd3Up6JaK82oZ1W1+vAzs7RZm515k363ql77nSW1n9W56feONCmvb2/NOr+f+qSvZQ4AAABIGtPqYgKSLwzuqT45jdpxpEG17k+gtF9BjyxdOzpfV48d4HaRS8cobO/89/t2zsezZefnT7+dkmd0YmEGLfj5v51vUwHpbtkBAAAATlRNTU1qaGhQfX293iw/ov+3p9YJfBp1pK5ZTRHChG5OHGN+R2d4n2x90QmWLiruo9xc3+hr6XpOJ7xlxzPYufuJt+xcx7j3pgvsXADBDgAAAJA+zc3N7mS6tpngx/9qJi8moDGTP7gxr6YlJ53P6MQ8GhsAAACAE5cJUkzQYgYuMC005pmbXr16uUNHe01mndnGbGv2MfumM9DxQrADAAAAICp/4ONvsfGa/Os7OsAJRrADAAAAICMR7AAAAADISMkJdvoW6huXn607ZpznDi5gpp/NGK9bLi/WWe4PSQIAAABAeiUe7Jx6mm665nSdd0ov9e4RyC6nR64KTzlJU64p1eWn2oUAAAAAkCaJDT3dt0jfv7pEJT1tOpLaQ3r1pXVae9im25DKoacrKyvtHAAAAIDOYNiwYXYuMUn9nZ2zLx+vb56Sa1PRHf10ix58ZbdNRcfv7AAAAABoryT+zs4wnTUoNNBpOLxPr/z5Ld3950+08XDojw31HlSo8XYeAAAAAFItgWAnT71Duq/VavOaTXp3rzO7t1LPrzmgg74VPj1zNdTOAgAAAECqJWc0NgAAAADoZBIIdvaq6qiddfXUqAtHa/wgZ3bQMH37wv7q51vhc7RGH9pZAAAAAEi1BIKdw3p3d62d98npO1CXX3OB7r3mNI3pG5r1wd2V2mbnAQAAACDVEurGtu313fpnvU1EU39E778e47jTAAAAAJAECT6z80+9saVGDTblrUlVW7ZrtU0BAAAAQDokGOxI294s18ZojTaH9+nVN2nVAQAAAJBeCQc70gEtXrtXB0N/VsenqVYfrv1Ym20SAAAAANIlCcGOY/vHemVzeHe2JlVt/kSLt9skAAAAAKRRcoIdx+ZVG/TuvkDzTsO+Sj276oBNAQAAAEB6JS3YkWr16srt2lbjzNYc0hsry3XItwIAAAAA0i6JwY7jcIV+/4e3dPcf1mktYxIAAAAA6EDJDXYAAAAAoJMg2AEAAACQkQh2AAAAAGQkgh0AAAAAGckz2MnOzrJz6deRZQMAAADIHJ7BzuD+eXYu/TqybAAAAACZwzPYOXNEoZ1Lv44sGwAAAEDm8Ax2zi89ScMK820qfUyZpmwAAAAASFTEAQqunTA6rQGPKcuUCQAAAADJEDHY6d+np26cUqoJ5xS7gUgqBg4weZq8TRmmLFMmAAAAACRD1rzHnm7O725TndjMmTPtXNezbds27a2qUmNjo10CZJbs7GwNKixUSUmJXZIYjhlEkuy6lirUYcQj1fWbeon26irn3GAPPz7fzvkQ7KSYObE0NjXp1OHD1b17F/iHBuJQX1+v7Tt2KLtbt4RPiBwziCaZdS1VqMOIVyrrN/US8egK59xw4cFOxG5sSA5zB4UTCzKdqd+mnpv6niiOGUSTzLqWKtRhxCuV9Zt6iXh0hXNuWwh2Usw0FXNiwYnA1PNkdI3gmEFbklXXUoU6jESkqn5TLxGvzn7ObQvBDgAAAICMRLADAAAAICO1OUDB22U7tW5rlfYcqFZjY7Ndmhxm6OnB/fN05ojCNn9MtKsOULD2v/5L5517rk0BmS0Z9Z1jBrHozPWEOoxEpaIOUS+RiK5Uf2IeoODAkVo9ubhMK98pV2XVsaQHOobJ0+RtyjBlmTIBAAAAIBkiBjsvrtzkBiLpYsoyZQKIj7nrAqQDdQ2ZirqNzoh6mRjPYMd0XUtnoONnyjRlAwAAAECiPIMd84xOR+nIsgEAAABkDs9gxwxG0FE6smwAAAAAmcMz2EnFYASx6siyAQAAuoZ67fjrrzT58u/qoluWakfX/c1HIKUiDlAAAOhcVlyfpazrV9iUY+sKrdhq52O1dZ7GZGVp2jKbPqFV6sWbnQtFc7Hon665RTc/8J/acNBuAnRa3TX8m3fqhUen6isHX9KtD7+n9D1t7Zx7OIegiyDY6QyWTVNW1jTn1AEgNis0zblgzwqZTrxjaMU9EzXxqnkqt+k2mUBn5ALN2NKsRZPsMrjy+/XV0IF91V+HteHtF3Tz9+boxR12ZQrMOzNLYx5q/cm5Ae2Z7fhM26XcLTfaMeOW718f4X20CroN93vMK4gOO1ZjyjO2fYzyh8Y424zRvPYG/Rkkt+RSPbDwj1py+5eUb5fFz+vc2vpzLX9oliZekdxzru+zjFRm23XX5d7MCa8P9m8Kr7Ox5hl2jRb9fQaJeEwg3Qh2AHRZ1y1tVnOzmbZp7tjnNDFlF4md02XPOn/7uttUbNNtGnGbNjZv1G0jbBrWME3/5aN6/g+Pasmfn9Tjk4ZJjTv05D0vaYvdwnQZ2rX6d7r5uh/YFqBZmvPC1rjvpE++frQ2PbskrL6u0KKFTr2+vx2faTusuL5Es0qX22OmWcunhx4z5iJu4sLrtNx/TMm5oG0VkJn3OFpz51xm0yZf56Lvp2UabdMB5mJyosoe3BY4Tp08S1pddAbnGes+DufCduIdJ/BPVtTu0PJf36vvXmNbJa/8gb7786XakIRHnwPnVmdaep2eu8L5jIM+g+LbNzrrFilQCxLkBAYld5TauucvMxC0tFV3/cr/skCbps8NnOPcgGOWysbadJBY81yx+DmNfvA+39/axvsMcAKsK56z8+hoBDudVNQ7Bx53Ltztgw5S8+Vj7hr679J53UHEicWM09/W1HUV67b7r5PWf6DApU/oHcqQY8A9hqZphftq1tu7di1p/xR6p89/PPkmj2PQuRgI2Sbki9O8H2efZaFlhN71C7+r6vUlGuCWFXQBEvr+vP7mwLpU3m30qlvhU+fVS2f84Gpdku3M7lmtNTbaObDsAX37odXa4ARG137HWd+vSmv+z72as+ywb4N2Kr5qhkavX6AlwZ/vskV6TtdpWlCrW+h3Qev6OOahFaF3p72CAssNjp8NXJ5eNiX4mCnXkmc3BS7q7DG16Y7ZIWW673HsDE0OupicWDZX29bNValdFODksa5ZG2/3h27FbpCnsk2hF5Qheca4j5Oad9UslS5d7vyLpZdXfQ6f0qJngep27lBdyZc08ZKv6sKh0o73XtLN895Rnd0kKSYtUvOWuRq9cFbL+Sj8msPr/Oeef2zrhm8Krb8hTBnBwdOkac7nukkf2BN69Lrr56vD103xb2cCjjLN3bJRc1tXzhjz9AXiM66y9bGN9+m34noTsC/XXI8gKxW86mD4dCIj2OmM3DsHcg7Qtu4cRLfpjhJNlO+uReCLAyeq88491855a2t91+K7O/zcdP9du+UqdY6H0Av85zTRdunyfXn5Lp7UckfZv9zHfJkH7no3a9uD0qyRYV/eCydq1pn+/Z2LsPXhd8Y3adYVH2huSx6jnWM7OI/Rus9/3DvT8unO9vdEvngNYS46g96fmQLHvfOlPzLob3MuXMriOKfEqsvXtexhGnmSmTmsXfvMa6Vef9X3j3XJj+/RjVOv0OxfTtUZTvqDV1drl7umnUbcprlhn6+5g6zp0wIXUmHfBdseLGt153nTHRP1wf32M3cvSCfGHMiGludcsK2XSk8P+q4YPc6pkWXa1FJPnGPkp89p9PWTnRDEMhd/Mbcu2oAqeH+vPEN47WMuJku04PptHdIds/PU7766au5v9fyDP9bt//6vuueuSzXcLN5Tpf3u+iQaMVkzxm7Sgr+EhpwhnLq3aIqti851i7kGyfrpOG0zadv6PivWG68egX+wVseKsWy2Zq0P3ucyLWpHS7ZXnqa7XkhwHy7CDQpz7bXx9tZtnanS5c+5KRZHsNNf35x6nu696YK4pp9NHalRNid48x1wQc2wzpdJuy56/MbO1baguxZApBNe1z8Rmjt4QV9UW5dowfrgrjaX6T4TWCwOPYauWxr8RVis0aXm4jHsTrYr/K63s/Xt5q5d+Jf3dZrbEmBcpmnT7WyQkDzM3X0771Os4qAvVfdOY6s72hG4F6YRLibsF3LLe7MX2lEvXBKUWXWtUlvc53f6OheS72jNamfaYFt0dlQq3kd73M934SJb32wXtpa70q2/C4pvn+sE0GGtQc55/j7/hZZ7QWrn2+IGx6Hd0UywPS7a9Zl7XAXX8fYpf2iiezEasn8beXruY9572Vwtj/N9JEOnqN91VVrz9L367nTbtfLmpXHXxeQIuuh3WzycJS1dMn0tdJvWhTWBePKdz4PPlSE8667veIm4T1s887QtRRG7lXq8z62ma2WplnfAtVdmnXOTK45gp6+GFcTfIJRTkK8SOw8v5dpU5nzlnJmEOwKloyMcoDiRhZ/4uvKJ0O1H7naPsK04/i+YTaYrwibNGulfn6US07c/JHBofWFnujW4d8/tPoE75B53vb2MNQFHdNHzcL48bdnu1J4+3+7zOL4WLHff4C4mHzknFdOSFZT3ROfCOrYLj/h12bpWu0UbbHAzdKC7xDqsN377lOY8ZKb/1Aa7NG7uBeFzWmTqWas7xL7vAnO3vKU+mHpu6mLwxxbPed65sMuy3XtC73q37o4TzPc8RNjd9BiZu92+Zx1Cn/OIlqf3PuYC03nvf0nNc03t0bH1u15rHpilOcu26ujJl+qeuXO15EHbspMSvnNgVDGc/9pmzoG+Z7Y8e6RErLth3c3aI1KeNhD3bl3yep/+rpWhdTyduuw5N8XiiFrK9cbmGjXYVPs0qWrzDr1qU/Bi7y6n+CIEJzb/CbCrnwhDHqINvpPmtnKEdulypxi62/gevHW2Dek+6gRGY51Y6aPUtYS4X5QhXe983dzax3TbMPuGPtRdfLpzUjEtvTbflikNdx+7XF1rPKw1v3lBa8z84K/qwpFmZphGuleRhZr+yB/15ivB0w36ilkVF1/rn2lxbH1X2vddMDqkW6VvSqjrVsSLRY867t40KNVod7vw5yFiFynQiZZnxH3coDD4RoYvADTpjng2tePqd5V27TGvvfS171ytC08vVP/jNcnvvubn/rvHGUzELN5Ax2HeX7TuZpFEyTNyIB7hfbrBUfBNuBLN8qejPEuXbF3unJsGcTXRbF61QW9UtD/cqa3YrmdXHbApROLr2hB4ENAcjCHNqyNGO18/wV1QVmj2iTwiDeKS0SdCtzvPc5rYri+YcpUHdw9yAyY/2wUjqIubZ/eaJAi06vouBGO21Xn/dtZ/odzCtCC0en4ofTp/XavUwrtu0be/d4sun3KL5qyukXKH68Y5V8uNdZxgZ+J3zlF/5wJz4Z13ac6vf6eHnGnOrTfq5hcq3S3i5TvfT3TP8eEXkmadeSYnac9WuRd2cgIIj4vFVnXc9yxNS9fQVs9DxMYNWp6d4QTaHne7I+QZdR/3AfHg4M8MUOB8P27puGdTO6Z+5yk/z7zW6PVnfuPUx4f13f+9OiW/s2M+D9PKPPrB5R71Jll8AYSWRvgco9bdtp77iiBqnr7rqtaBeJT36bauB9dN85ySvSmX5m5tBDqh4uyPVqu1L3+s9w822XTbGg7u1uKXK3TIphGFOZkvLQ3cuXJOMqHPFlymRf6H/9y7B4s0zTyYatcCMCM6OV80ZcFdgNoegWzJVYFts9wH+gNf7qbFJ7iLm+/B8WR2V/CPfuU/rp0v1PvbcVxvmq0S/3t3JnewgpYvWNPiE9TFzZ1SN0BBV3TsoBmM4LDqeg7TuEn/qmcW3KNrg/oE5Z9zg377k0s0bkCV1ryxWsud6YN9hRpV4l5xxm/Sfb4Rm7zuSod/F5gpbICC2NngRaHdGc3kPy5MHXeH33WXl2iWAs99xvc8hL0R5wTawXXTX/e884y+D/z6auLN03Xh4O46sOU9LX+7Sl/5X3N1z/+wqxMUaJ3wn+tSG0y6AwE4r8HlupN7w6qNuhvXs2Rt5Om2FAU9D2dFf5/orLLmPfZ0c353m7LufuItO9eGvkX6/tUlKulp05HUHtKrL63T2hhH6DQDGYSbOXOmnetazHB/bUbYLXcXknnhhBNNTHUtxZLxHjrD34HoMqWupQp1uOvqLJ9dKt4H9bLr6gyfXVeqPw8/Pt/O+cQ/0oBxuEK/X7VbVdF6tDXU6P1VsQc6JyJ3xJ2kPNgHAAAAwC+xYMfYvkXPbjgWYcCCJu3asEF/3W6T8OQ+j9MJRpYBAAAAMkniwY7j0NpNngMWmAEJnltba1OIpLkdP3oFAAAAIDZJCXZ8AxbsU5VN+dRoAwMSAGlzyskn2zkgtahryFTUbXRG1MvEJCnYAdDRTuZkiDShriFTUbfRGVEvE0OwAwAAACAjJTHY+afe3VwjntABAAAA0BkkMdip1btvvK/H1+xV1XGTrAt7hgcAAAAA0ifp3dgOrf9Yjy54S3f/bp3W2mUAAAAAkG48s5Ni2dnZqq+vtykgc5l6bup7ojhm0JZk1bVUoQ4jEamq39RLxKuzn3PbQrCTYoMKC7V9xw5OMMhopn6bem7qe6I4ZhBNMutaqlCHEa9U1m/qJeLRFc65bcma99jTzfndbcq6+4m37FzHuPemC+xcwMyZM+1c17Nt2zbtrapSY2OjXQJkFnPHx5wIS0pK7JLEcMwgkmTXtVShDiMeqa7f1Eu0V1c55wZ7+PH5ds6HYAcAAABARggPdujGBgAAACAjeQY72dlZdi79OrJsAAAAAJnDM9gZ3D/PzqVfR5YNAAAAoOtqDvvPM9g5c0THjbjQkWUDAAAAyByewc75pSdpWGG+TaWPKdOUDQAAAADt1twcMkUcoODaCaPTGvCYskyZAAAAABCPZifACZ4iBjv9+/TUjVNKNeGcYjcQScXAASZPk7cpw5RlygQAAACAePTpkR0yef7OTmfE7+wAAAAAiGb+fH5nBwAAAMAJgGAHAAAAQAaS/j8qjk+wa3e9xgAAAABJRU5ErkJggg==;" vertex="1" parent="VhhkQ_d4QDXPh7xiBEXZ-19">
          <mxGeometry x="74" y="110" width="335.29" height="60" as="geometry" />
        </mxCell>
        <mxCell id="VhhkQ_d4QDXPh7xiBEXZ-34" style="edgeStyle=orthogonalEdgeStyle;rounded=0;orthogonalLoop=1;jettySize=auto;html=1;exitX=0.479;exitY=1.033;exitDx=0;exitDy=0;entryX=0;entryY=0.5;entryDx=0;entryDy=0;exitPerimeter=0;" edge="1" parent="VhhkQ_d4QDXPh7xiBEXZ-19" source="VhhkQ_d4QDXPh7xiBEXZ-11" target="VhhkQ_d4QDXPh7xiBEXZ-21">
          <mxGeometry relative="1" as="geometry" />
        </mxCell>
        <mxCell id="VhhkQ_d4QDXPh7xiBEXZ-10" value="↑↑↑ Prix" style="swimlane;fontStyle=0;childLayout=stackLayout;horizontal=1;startSize=30;horizontalStack=0;resizeParent=1;resizeParentMax=0;resizeLast=0;collapsible=1;marginBottom=0;whiteSpace=wrap;html=1;" vertex="1" parent="VhhkQ_d4QDXPh7xiBEXZ-19">
          <mxGeometry x="27" y="320" width="150" height="60" as="geometry">
            <mxRectangle x="27" y="320" width="80" height="30" as="alternateBounds" />
          </mxGeometry>
        </mxCell>
        <mxCell id="VhhkQ_d4QDXPh7xiBEXZ-11" value="Cocher &quot;Hausse de Prix&quot;" style="text;strokeColor=none;fillColor=none;align=left;verticalAlign=middle;spacingLeft=4;spacingRight=4;overflow=hidden;points=[[0,0.5],[1,0.5]];portConstraint=eastwest;rotatable=0;whiteSpace=wrap;html=1;" vertex="1" parent="VhhkQ_d4QDXPh7xiBEXZ-10">
          <mxGeometry y="30" width="150" height="30" as="geometry" />
        </mxCell>
        <mxCell id="VhhkQ_d4QDXPh7xiBEXZ-14" value="↓↓↓ Prix" style="swimlane;fontStyle=0;childLayout=stackLayout;horizontal=1;startSize=30;horizontalStack=0;resizeParent=1;resizeParentMax=0;resizeLast=0;collapsible=1;marginBottom=0;whiteSpace=wrap;html=1;" vertex="1" parent="VhhkQ_d4QDXPh7xiBEXZ-19">
          <mxGeometry x="195" y="320" width="250" height="120" as="geometry">
            <mxRectangle x="195" y="320" width="80" height="30" as="alternateBounds" />
          </mxGeometry>
        </mxCell>
        <mxCell id="VhhkQ_d4QDXPh7xiBEXZ-15" value="- Cocher &quot;Niveau de prix&quot; (2 rubriques)" style="text;strokeColor=none;fillColor=none;align=left;verticalAlign=middle;spacingLeft=4;spacingRight=4;overflow=hidden;points=[[0,0.5],[1,0.5]];portConstraint=eastwest;rotatable=0;whiteSpace=wrap;html=1;" vertex="1" parent="VhhkQ_d4QDXPh7xiBEXZ-14">
          <mxGeometry y="30" width="250" height="30" as="geometry" />
        </mxCell>
        <mxCell id="VhhkQ_d4QDXPh7xiBEXZ-16" value="- Cocher NPS Promoteurs uniquement (&amp;gt; 8)" style="text;strokeColor=none;fillColor=none;align=left;verticalAlign=middle;spacingLeft=4;spacingRight=4;overflow=hidden;points=[[0,0.5],[1,0.5]];portConstraint=eastwest;rotatable=0;whiteSpace=wrap;html=1;" vertex="1" parent="VhhkQ_d4QDXPh7xiBEXZ-14">
          <mxGeometry y="60" width="250" height="30" as="geometry" />
        </mxCell>
        <mxCell id="VhhkQ_d4QDXPh7xiBEXZ-17" value="- Activer rech. avancée &quot;Campagne Baisse&quot;" style="text;strokeColor=none;fillColor=none;align=left;verticalAlign=middle;spacingLeft=4;spacingRight=4;overflow=hidden;points=[[0,0.5],[1,0.5]];portConstraint=eastwest;rotatable=0;whiteSpace=wrap;html=1;" vertex="1" parent="VhhkQ_d4QDXPh7xiBEXZ-14">
          <mxGeometry y="90" width="250" height="30" as="geometry" />
        </mxCell>
        <mxCell id="VhhkQ_d4QDXPh7xiBEXZ-21" value="" style="shape=image;html=1;verticalAlign=top;verticalLabelPosition=bottom;labelBackgroundColor=#ffffff;imageAspect=0;aspect=fixed;image=https://cdn3.iconfinder.com/data/icons/document-icons-2/30/647702-excel-128.png" vertex="1" parent="VhhkQ_d4QDXPh7xiBEXZ-19">
          <mxGeometry x="195" y="470" width="40" height="40" as="geometry" />
        </mxCell>
        <mxCell id="VhhkQ_d4QDXPh7xiBEXZ-31" style="edgeStyle=orthogonalEdgeStyle;rounded=0;orthogonalLoop=1;jettySize=auto;html=1;exitX=0.5;exitY=1;exitDx=0;exitDy=0;entryX=0.5;entryY=0;entryDx=0;entryDy=0;" edge="1" parent="VhhkQ_d4QDXPh7xiBEXZ-19" source="VhhkQ_d4QDXPh7xiBEXZ-22" target="VhhkQ_d4QDXPh7xiBEXZ-26">
          <mxGeometry relative="1" as="geometry" />
        </mxCell>
        <mxCell id="VhhkQ_d4QDXPh7xiBEXZ-22" value="Sélectionner les périodes d&#39;étude" style="text;html=1;align=center;verticalAlign=middle;whiteSpace=wrap;rounded=0;" vertex="1" parent="VhhkQ_d4QDXPh7xiBEXZ-19">
          <mxGeometry x="150" y="170" width="160" height="30" as="geometry" />
        </mxCell>
        <mxCell id="VhhkQ_d4QDXPh7xiBEXZ-23" value="Aller dans&amp;nbsp;&lt;div&gt;&quot;Baromètre à Chaud&quot;&amp;nbsp;&lt;/div&gt;&lt;div&gt;puis&amp;nbsp;&lt;/div&gt;&lt;div&gt;&lt;span style=&quot;background-color: initial;&quot;&gt;onglet&amp;nbsp;&lt;/span&gt;&lt;span style=&quot;background-color: initial;&quot;&gt;&quot;Verbatims&quot;&lt;/span&gt;&lt;/div&gt;" style="ellipse;whiteSpace=wrap;html=1;" vertex="1" parent="VhhkQ_d4QDXPh7xiBEXZ-19">
          <mxGeometry x="70" y="20" width="320" height="80" as="geometry" />
        </mxCell>
        <mxCell id="VhhkQ_d4QDXPh7xiBEXZ-24" value="Exporter" style="text;html=1;align=center;verticalAlign=middle;whiteSpace=wrap;rounded=0;" vertex="1" parent="VhhkQ_d4QDXPh7xiBEXZ-19">
          <mxGeometry x="184" y="505" width="70" height="30" as="geometry" />
        </mxCell>
        <mxCell id="VhhkQ_d4QDXPh7xiBEXZ-32" style="edgeStyle=orthogonalEdgeStyle;rounded=0;orthogonalLoop=1;jettySize=auto;html=1;exitX=0;exitY=0.5;exitDx=0;exitDy=0;entryX=0.5;entryY=0;entryDx=0;entryDy=0;" edge="1" parent="VhhkQ_d4QDXPh7xiBEXZ-19" source="VhhkQ_d4QDXPh7xiBEXZ-26" target="VhhkQ_d4QDXPh7xiBEXZ-10">
          <mxGeometry relative="1" as="geometry" />
        </mxCell>
        <mxCell id="VhhkQ_d4QDXPh7xiBEXZ-33" style="edgeStyle=orthogonalEdgeStyle;rounded=0;orthogonalLoop=1;jettySize=auto;html=1;exitX=1;exitY=0.5;exitDx=0;exitDy=0;entryX=0.5;entryY=0;entryDx=0;entryDy=0;" edge="1" parent="VhhkQ_d4QDXPh7xiBEXZ-19" source="VhhkQ_d4QDXPh7xiBEXZ-26" target="VhhkQ_d4QDXPh7xiBEXZ-14">
          <mxGeometry relative="1" as="geometry" />
        </mxCell>
        <mxCell id="VhhkQ_d4QDXPh7xiBEXZ-26" value="Aller dans&lt;div&gt;&quot;Plus de filtres&quot;&lt;/div&gt;" style="ellipse;whiteSpace=wrap;html=1;" vertex="1" parent="VhhkQ_d4QDXPh7xiBEXZ-19">
          <mxGeometry x="170" y="220" width="120" height="80" as="geometry" />
        </mxCell>
        <mxCell id="VhhkQ_d4QDXPh7xiBEXZ-30" style="edgeStyle=orthogonalEdgeStyle;rounded=0;orthogonalLoop=1;jettySize=auto;html=1;exitX=0.5;exitY=1;exitDx=0;exitDy=0;entryX=0.463;entryY=0.14;entryDx=0;entryDy=0;entryPerimeter=0;" edge="1" parent="VhhkQ_d4QDXPh7xiBEXZ-19" source="VhhkQ_d4QDXPh7xiBEXZ-23" target="VhhkQ_d4QDXPh7xiBEXZ-8">
          <mxGeometry relative="1" as="geometry" />
        </mxCell>
        <mxCell id="VhhkQ_d4QDXPh7xiBEXZ-35" style="edgeStyle=orthogonalEdgeStyle;rounded=0;orthogonalLoop=1;jettySize=auto;html=1;exitX=0.656;exitY=1;exitDx=0;exitDy=0;entryX=1;entryY=0.5;entryDx=0;entryDy=0;exitPerimeter=0;" edge="1" parent="VhhkQ_d4QDXPh7xiBEXZ-19" source="VhhkQ_d4QDXPh7xiBEXZ-17" target="VhhkQ_d4QDXPh7xiBEXZ-21">
          <mxGeometry relative="1" as="geometry">
            <Array as="points">
              <mxPoint x="330" y="440" />
              <mxPoint x="330" y="490" />
            </Array>
          </mxGeometry>
        </mxCell>
        <mxCell id="VhhkQ_d4QDXPh7xiBEXZ-25" value="" style="shape=image;verticalLabelPosition=bottom;labelBackgroundColor=default;verticalAlign=top;aspect=fixed;imageAspect=0;image=data:image/png,iVBORw0KGgoAAAANSUhEUgAAA3wAAAJMCAYAAAChGaQ7AAAAAXNSR0IArs4c6QAAAARnQU1BAACxjwv8YQUAAAAJcEhZcwAADsMAAA7DAcdvqGQAAP+lSURBVHhe7J0HoB1Fvf9/yU0BISEQElpAIBQTiIAiQYpYkCoISFGjSFXhoU/+QR+KimBDJepTFBUpRuDRBARCkyI9QSRoIBAggBBaQk0Iadzk/2sz+5vd2VNuEkhufp89s9+ZX5nZ3bP3zt1z9pzbY5P9fr8IFgFADywMVYJhEa57mFaqTMVQJpdpEho0M9GIWnqgLippK2h60g03aT/D/opmKeXXhRWkgclmq7WlbgLJ/jbPtFGsNp2pRBg1NHEHcseRtas7HOMpX/qh/kIHue6Sdi4goXGAPV4hqmF3SUQpsQViNqVxOu6v7nfSb12HTcPSgPR5Qiua4/mRza9DE5IOqthuy8o0NzSmFG6bosX+NglsEU3Q/Q7nZzye4q3vzgawVgxGq9jD3TjaekxEfUJCLpvVbkA75DpkaXL8avLqKSWUDlTuuAXNkuxvSxkJNl2ycudjg/6auMvE/nHAOK5qW8RxG2+A9YbwyuFKqGRgMdTmCdXs0vHs8g4rpR2w/afjlrCOdgJKZh6+ag7RVez2NgxMif1W0qMHSws0CU+PX6oa0NZwMSHZcNXCm9WEiqNphlBy57JEcx4V02wX+/dBpvfmVBKsodpTtGIlc7gzxAzRJFHNDShlY1qxv8XALXQUqA0XR3peZsJr8+soJTRoljUhOrDShf2OaZvu9wfS+rSm/TYOsNsXohp2l0SUEhtQyjLjxko5AkuGJmHpCZGqBrQ0TBVNSLY37aalbisBTTMEDbPDh6w0u2phrDnjriP5hRWU7OJuTmU8a6huUMWKFXO4M1QyjKqYZplclqjWmm9AnmqHTHpeVtypIXHUUQos5fPmV80hukqyvy1lMDHKpEuWzS+roYk7ULjtcZTzUh0N8yvYeNa0g4rbKFMxlGkSUHLbZlmFksfudxdIf67N8WzWYWkzivCcowjgzcVmotHbCIooJbaAZhVaSbcRLdAkvHJesqLd5rUxXEywG252QL1ZZSqOXGSSkaJuHrZoZrJqPNXAhlR6wYHjH5BdoTJ+OkJ8fhIrasWAJUspkA9UUDUbStGJMjY/H9GYUnjRrJ6XWUr5zdEE3d/c7rfUXQw0HbSQmYwXlOziRqgWLGVVSRMaUjmOOOCSOT+lEvoNGxTd3MrQ1QA1545b4+4yCW2QpLPa8zF02KDjJu40wDxPrGhFcxi/Laobro4UshajG805mNRg3uETR2UH2BrCDbWOMqVA20Tl/auaQ3SVJgekGTZdxsmdEA1oGmYDzPHEAVt4PjNof8mG13eg0YXa8OBgKpFYMrThFrXHkw0N85tS2gHpP+02231tQM6R6UHNPLw2A2lbA5OEmsQMpWxMo/NEzpeSB0sLNAm3z0+29yb5VTTB7q/Jt82MuyA6sJI/YfPYME0zTVR7PqYeptRsTtqPfb4yvTcnJqT91vVgw+NppponZnAraRpzHZVw2s9wfjYeOI/tkBFDel4GNWGBSn4ZG1BWXKPE46bWwtuAJFG1BWL/Nl3tQozgVgXrbhAWqBxHHLArT1PEbnjcgGJDctbCizQ0ZDOEGnfOLKo1u70hoB2KDrW76vnYsNu2AqqBuc1v2F25P9tBC8TsmEbni5w3Sb8NtoBpElY5L1nR3uYwFYoNlyaWcncNu60ENM1IsMPnx7MW46kxN8M+P8W8I8ezJSrjVgxGM1asmMPdArYHFdMsY91lZdrfAKGmw9rzUtwFpbx6bCCq3d5CylH13Sb721JGQml4eYdPXCVq+691MMkAQcku7gzkMf21nsiUsjGt+EEoebC0QE34kj8xApqg+5vb/Ybd2QDWigFLPc3Hs5ZMRKnZjMpxxIGL56sLxPHthhQblLM2CM9QCmiSl3MnYXyg0WK1HUod5s9L0Syl/Co2wChvr0rRbN5dIElUbYFcWjoe1VJLQhN3oAgrHcfqgO1hN9z2y2rHraESYA0NelBz7rhlopEGCW2QpLM2OR/LUFjDcdMA22LFSjzcLaGZyYarOYNGZ8eNlbgB5cgMTcIq56NRDWjYfT2amGxv2l1Zs1QCmmYk2OHz41UtjDVn3GViGA5U/oO5pQ4CNlw6TAzp85SGMxVDHTbQJDRoZqILogMr5vluGc236TJO6Xwso3mJNiRNkOcJW9hsq5uA3eAWeqhEYSU9XJUIoxladtvzRvZbHQ3zK9h41rSDitsoU+sINA4IxyuYc1Fp20agVg94Q2J2TKPzRY+f7deMmKVpuDjS5wmtaI6b28IwFZIOqthuy8o0NCQOpnt8hq8U0RAbHrrhpn0iRbPY/JZIE+xmB2t73ZkOWiD2bwZK042j0RbVuKtme/zQYrfX5LVM7Fgq6fNk3FiyLGZAbvMbdhciWk9IiOGUzt2UjmezjmxYNjwNqBxPNLdxeiFpf806KEUnykRDbUSemvCq2R5PQzWwNXR/7UTTVjeVQGuo9lDxYqXx81XJMKpimmWqWXr87MCNNyCP7dhQOR+xJGHWkMmvUgps0Gyp22R/G0ZmSQ4btXGp/nxn+m3iLkgD7fPVpacrdmcTQ/9VrLeSlsVmZGjDLVo6nrwBGtAOsUPK1+On/ZbPzywxn1sG6ygrrlHKz1PhbQRFlBJbQLMKraTbiBZoEp4eP3McbV4bw8UEu+FmB9SbVabiyEUmGSkldy5LNOdRMc12WSLzTpJQ62CiFSvxcKs9T8wQbT2RKWXLfur+ljxYWqAmvPa8FHdBm8PFBN3f3O631F0MNB20QDIeae07fIE4ELcM1lEEVKxYaWP7EM3kxKKp3VewblZK0/RoaNRBGRueSWt6YtTk1WMTUJMdqHgTzVI9AEYboGE2Pc0uaoUaaszNSH5hYb4dtyUq41pDtaeKFyvmcGeoZBhVMc0y1Sw9b+zAjTcgpdoh0/S8DNTk15MGJput1pa6CST72zzTRrHadKYSYdTQxB3IH8fwfHFAe8Tx7MBFRzlr4UUqhjJNAkpu2yyrUPIs5n4nP9+42OOaRfMSTcgFFIG8udhMNHobQRGlxBbQrEIr6TaiBWrCC3PNcbR5bQyXbDBq+jy10F0lwBqa95AMT20sabS1ZCJKzWZUeqH91f1ui0pHWJjUUAnDSjw/krw6Sj3UHyimFF0Ny25AEtGYUnjufEzOy4DNa2m4UoLut918463vzgawNs4I3oAdL5BmhwwTYGnDLWqPH1pyG9AOSX75eaLxwrglrKOdgJKZh6+aQ3QVu70NA/NU02vOxzoorPEGYgkBmeOIlfaeLs1MNry+A42uarWSUVxvQhd8cYAWTghrSByBXIAJbNDMRBvU0+SANMOmyzgtnhDkDhsWNEsaGI8jNlt4PqtkE7lHdpexXlabxlQijGZo2W3PG3M8m+Q3RXdA/hBpozsbmCTUOhh7vKKSXdwZyGP6s4ktUMrGNNxP3d+SB0sL1IaLI32eTLjNa2O4mMD7XTRDvm1m3BlHbWSeUlg1256PmX5Lzeak/djnK9N7c2JC2m9dDza8tdOs1J9tZoYJ5kAlrPWB85Q6TM/HVLOU8qvYAKO83SpFs3l3gSRRtQVyael4VEstCU3cZdLjiG3Ma2NzqyQdVDfEWhPNOZicIwkQWjCL2vMFLXZ7M/lNiR1LpXI8gxtLli4GRCtW2tt8zbQJDRKtO1FbafB8V7BhmfD0+KWqAS0NU2ATUJPtrXgTzVIJaJohaJgdPmSl2VULU2NuRjLfBCW7uJtTGdcaypqxYsUc7gyVDKMqplkml8VqB268AXkqHWJhsedlxZ0aEkcdpQTe3ihd6I4StYMWMitRWLGHq/oOXyUDS0I1YMuha8JDU1+qDEC66Qarw2d2HwbvXrs/zJ6zAJ55cSbc+s9n4J8Pv4DRRNHPFkMHwkNPvFx0kKGIriqT7GE2ojGl8KJpTwzzCytg89oYLibwdkdpvbtKYNOMBHu4km7IyVhLpt8acx2V44gDL94rrFhp8HxXrFiphGepZGJRyZgDOXcSlmxAFyh1mDsvk/HKlPKr2IBC5XnCFjajqrcx2k+y3/WZ1stam1aJxJKhDbdocRyZJvlNSXYg7a6sCbUBtQ6h5Obhq2aTVfLY7U0DW8L+PJfPy5bQzaiGW0cRULFixRzuFtBMu79BM1h3otWK0QY0CbfHL3s8a/LqsQmoesDk+ap4m3cbA1vLtOHxNFPNEzO4lTSNuY5KOO2n7m+bJ4pgO2Ssofw8NQnPYgMyPTRoZqIL7P4uxn5zetFELZ2PZYrAFrEJel5mx22RZH+b91CJwkp6uCoRRg1N3IHCrTUcqDg/NaAdig5VpVJ7PpZZzAB7vFoaL4koJbZAzKY0TjfHz/bbrMPasLQfe76zFc3x/GhhmApJB1Vst2VlmhsSFvszfD07esAjlx0Fmx1wlloKdtxqCJx78p7aSrlh/FPwvd/fBS/PnBM7fPQvR8Gwg86GzoU0bn68aLEHqsEBq6DpSTfctE+kaJZSfl1YQRqYbLZaW+omkOxv80wbxWrTmUqEUUMTdyB3HFm7usMxnvKlH+ovdJDrLmnnAhIaB9jjFaIadpdElBJbIGZTGqfj/up+J/3Wddg0LA1Inye0ojmeH9n8OjQh6aCK7basTHNDY0rhtila7G+TwBbRBN3vcH7G4yne+u5sAGvFYLSKPdyNo63HRNQnJOSyWe0GtEOuQ5Ymx68mr55SQulA5Y5b0CzJ/raUkWDTJSt3Pjbor4m7TOwfB4zjqrZFHLfxBlhvCK8croRKBhZDbZ5QzS4dzy7vsFLaAdt/Om4J62gnoGTm4avmEF3Fbm/DwJTYbyU9erC0QJPw9PilqgFtDRcTkg1XLbxZTag4mmYIJXcuSzTnUTHNdrF/H2R6b04lwRqqPUUrVjKHO0PMEE0S1dyAUjamFftbDNxCR4HacHGk52UmvDa/jlJCg2ZZE6IDK13Y75i2OP+Hr2/vDrh37KGw1WfOxVYasO+HNoHTv/ZhbeWZOOVF+PS3rtYWwA7vXY8vEN+L/c2bvxAtumMt7JfdTFZK4/RYKUdgydAkLD0hUtWAloapognJ9qbdtNRtJaBphqBhdviQlWZXLYw1Z9x1JL+wgpJd3M2pjGcN1Q2qWLFiDneGSoZRFdMsk8sS1VrzDchT7ZBJz8uKOzUkjjpKgaV83vyqOURXSfa3pQwmRpl0ybL5ZTU0cQcKtz2Ocl6qo2F+BRvPmnZQcRtlKoYyTQJKbtssq1Dy2P3uAunPtTmezTosbUYRnnMUAby52Ew0ehtBEaXEFtCsQivpNqIFmoRXzktWtNu8NoaLCXbDzQ6oN6tMxZGLTDJS1M3DFs1MVo2nGtiQSi84cPwDsitUxk9HiM9PYkWtGLBkKQXygQqqZkMpOlHG5ucjGlMKL5rV8zJLKb85mqD7m9v9lrqLgaaDFjKT8YKSXdwI1YKlrCppQkMqxxEHXDLnp1RCv2GDoptbGboaoObccWvcXSahDZJ0Vns+hg4bdNzEnQaY54kVrWgO47dFdcPVkULWYnSjOQeTGnryk48DkEnWVmUV1JZVVu4Nky4+Ao7+4fXkFaMph+2zJRkb8u61V2OlDOKufz8LV9z6KPz7/w6HVVfuJUbaeYog5XqwpQRL1Biq+0bKNqMaHZRqthrVFI4NyqZCeVFfUH7IgDpuoSklJ3cg/bCqzWqu0CqqVoJKJRTCqFYlVjWYVaWEsdMaJYiKhR5ciKAZimNjlPoKRW2s2pGsVXEVVIoxlBULV62qj9NsISutTKxg21i4oSoJRsWs1ZJqPxgbVfOC2ugKuRAs3FtQXhfK9eCThyhVQiGCMtaIJQSrinCPYjbK9bLGWFxTJSituDOqqoqDiRYbgoV6ky5EpRa0qEm1pFw3ihQmqUXFznnBZlQZsFBeF8qUjdKBqvQpys5EuZA7qBpZ1UaGoNlCErTUjCpVLWFsUeqca6Q6cDw/gzYgyeFHobKorazy0JVqMFQcQTFTfYniiodnm1ER1bIT1ZZgs4qEWlQTwnVciY2UDbyQSiGCItZUdqNKbllxTeNQPcTQQwbW8etQZwiyioVbQXFtVXxlRR9VOD9xaCGMqk9y8BFUzKzSVTp2tKBTlEziKVTEEkxRNZaPn/ZllX24iApBGWvkOq6C8lochaoVK2xlxUIqzkJ1HVTEKhaWQkmiUtWohIhP9pcromiN+6tKtlQRa8IifdCDV6JsSpdgk4eqmLmeaIIadSDZNlUs7FXlep3GhlY4nytqC4UIqq6yYuF0ttG2qJIY5aI+aQYlW0aRSi/SOautJ6qxWYKLYvkhKo10NFqnKquoXClUCA1SUzgI+yEJSmZpsuYKBRaKNVJKDkV9dZRDJJce1E9JceEYq/KQlS1EdBSa9oFrjeExcMXWqOQjb0aj02jZhpFSC0o1VaxQPVGqUGxQXHrSlSldBdP1n6xV5ZGolB4woH9fmHjBYfDri/8J9z5In8WLTu7rkN2G8ef6mnHpzY/gOhkVLr5pCrf+ef4XYPV+K6MZrbYQQZFQi6o+3iespko+o5oVlGq2agvn8MMor0uL+lhDDo9HyhJVsEbKM4pFmtQjSUnFlSjHqoEVraFPdWghbAxLolzUxyqRRiUoqgRG5UIERTjWKsWqZkvwkYYcXqviSlQrQdlBGUZ1zUrmstpCUbRirygXNLKFnaQkhZIUKmatSlFfUI7FElV9QlkRa8IiuUZlxZpb5KGKxSoX9emqUA2SbVPFIk3ukeuJYiFYNcZqUsjKqj6pVEw2lIvGiIqTlqjqo4cGGsVCaFOqUouKsbyQclGbaohh5XWhjPokgcQq96xK5rKyq1CtsFJMSZMiwWkMmaXJSjZWLrSQzSoF4JoDVdWnFVFD2SW5olxoCcoLuSWYlR+qZC4XdqhiKXpQVR+pjGmVfEZ1zZo4sYSEUNTHtaBUDUphrOILY3IsB5GygRdSLuoTlaotHFtWdulC/Qel/ulhlWJFSqgxODkn9GFUfaS0TlVWUdmIPlWtFCqRibIrKJaoJKziY8Ul1MiYqiYQUUWIUC2OSaFUFZW+rHIMLqKyCspwcqEcG5TXhfKiPlZciRaFEKWoVLmwUxWLNI2iBE0KrkTVR8pGVbSKik8wqtXg0hSJ5YfkVxa1yUM15GBhEk2Nsi3SDyVY5aIxEiUkqj5SCbLKlUKx0LpQdalKQZ9RrBXKWYVyUZ80g5JNlKusYoxK/dNiVQaqKi6RUI2KFaqzSl+pchArW8kclY1cj6o+NjDq1CLbhIU70FhVLthktwgWWgrl2KCaFJSL+gKhVrikQkrVqLRQ3SouHEuqMfqQlS204gc3VHFNnavyQjFUD0reqLgiFRFVnyZUCq4LxbVVLriKygV9RslLdVZa2v0M36ABK8Pd534Opr/yJhzw9Stg+qtvFuHKz/77w/DJXTbVVp7Lb30UTvz17elwKv8Yeyj0X6UPt3c66kIeo+heE2gn6NKVd6a0AY2w4aEbbtq3ZsNbwBlsfkukCXazg7W97kwHLRD7NwOl6cbRaItq3FWzPX5osdtr8lomdiyV9HkybixZFjMgt/kNuwsRrSckxHBK525Kx7NZRzYsG54GVI4nmts4vZC0v2YdlKITZaKhNiJPTXjVbI+noRrYGrq//DwFJTOWlrqpBFpDtYeKFyuNn69KhlEV0yxTzdLjZwduvAF5bMeGyvmIJQmzhkx+lVJgg2ZL3Sb72zAyS3LYqI1L9ec7028Td0EaaJ+vLj1dsTubGPqvYr2VtCw2I0MbbtHS8eQN0IB2iB1Svh4/7bd8fmaJ+dwyWEdZcY1Sfp4KbyMoopTYAppVaCXdRrRAk/D0+JnjaPPaGC4m2A03O6DerDIVRy4yyUgpuXNZojmPimm2yxKZd5KEWgcTrViJh1vteWKGaOuJTClb9lP3t+TB0gI14bXnpbgL2hwuJuj+5na/pe5ioOmgBZLxUM07fGGhvgvVB6/WHbQKX+wRF//tEbnYswFYaNli4+bv7p171STeCM4Kyp4eMPmJl7hG3PnHz8J6g/ppUAiUSNKQoxbr0lD0UZ2V4lKlKFo4h5QfompMShLDJnHExY7BBb1ROaVQXQcVMYqFt9Gq+kizJfg4hyuiZBUD+7jNhSCfaIgNIVHVliguoUZGUaqKSrJVEYtsS1DsgXNFuahNvRIbVVZBpaghKK2orgFFT6okqrmC60JJjHJhpyoXatJKzVa5KrW4T1Y5X5UiWbnGSjVbjUpmzqWHVVqXFvUF5UfIxcJdqgqhQUp5RrFIU/sj5aZqpnBsUDaSYiUU8rISGhu1cBUp0g9FVBSXUCOjqFjokRSCzbwSZZOq5st4pqgvxLDyWjU2sEL1RCnfqK6DspXcVCcVY6oaw4ZcIQmKgZIbVMzRzYWWQjmWapxDSlX2sC1RS3RJJcnlh/RXXuQRlBLxQZVQEocqQ4qZGlwoiSgXaWq0IMqjsjNotgSfVDSXaqomREoYm5ScRjUrKNWkqmoKiag0bC4v1D+r2kiloeORskRlSsYkBwstomJjFavajGolUYpVzZUkBotVLupjlUijEhRVAqNyIqFChGpUjeF9s4UWVhOjWazy0JUqF+PQfqgeVX0SpkpxrOQrK0WJipBiscpFfCRRqWpUQsQXxuTYqBIVVAoRFLEmLBxrVVasyUL94yIP1ZgrXVK90JKRg6SfqFikyT2yLVEstEq1yNFKolTjuiq7VEPRUCnBp0uoRUWnKJnKKhKVq1LTLAw1mikcG5TXhTLqY6VHUGkkqi1RjdFwUXGKqo+VRKLUWaiIUZSgZGO1JfpIsUbKgarqE8rKYYVikVxRLrQENQvnkPIj5EgfSWGHKq/FEVWT4njYlPFIcWVV16wVJ6otFIVKtahUDUpuVjMmO61iafX/8G2wVn+4+XeHYA1g1pvzYc+vXMrv8nGAYc0B74K7zxmlrTzPTn8DPnLMRVwP/Vs97uD3wVcOeR/WCnY77lL4z/OvYwBGtHGFW8amy3jF/jaE3OUNzZIGxuOITXul3fLmZxO5R3aXsV5Wm8ZUIoxmaNH9/dO/AJ9al00NeB3+Muqv8N09d4Pxn1sb8DI+z5tvwITbJsJ3z38SpukO0Mlqt/ZTXz8QTt1qZYoGmDsDfnXU9fAHaQkaeOpPPw8H8HZ1whO33wb7nvWcOMyOHfbNg+GE4fKOMrz5Apz+pZvgTzKsHD80D/ng1nDCHkNh5JCVoV9vCYUF8+GlaS/C5df/E359z2w0SMIpp42CA9aRkHrmw4QLL4WjbyhtDe3nbh+Fuz8bjs98uPf/LoWjbqAIw+4fg7s+s5bGzITLD7sGzjpgN7hy3zWhL9sAHrnpKjj4gje0JSP02GIkXPH/hsLGPcU6b+pDsN8P5sMpv9kGtnuX2Crg83Hvnf+G7130H3hWTXDE3vCvnfpro55ZjzwAO/3sEehx+F7wQIP4eW/MhFuuuge+ectr2EqOCJYGlMJsU9T+fGf6LTWbk/bDz1fm/Gy/u7Tfuh5sePpzXUepP9vMDBPMgUpY6wPnKXVon5+yZinlV7EBRnm7VYpm8+4CSaJqC+TS0vGolloSmrjLpMcR25jXxuZWSTqoboi1JppzMDlHEiC0YBa15wta7PZm8psSO5ZK5XgGN5YsXQyIVqy0t/maaRMaJFp3orbS4PmuYMMy4enxS1UDWhqmwCagJttb8SaapRLQNEPQMDt8yEqzqxamxtyMZL4JSnZxN6cyrjWUNWPFijncGSoZRlVMs0wui9UO3HgD8lQ6xMJiz8uKOzUkjjpKCby9UbrQHSVqBy1kVqKwYg9XT1I6mKy05kdQNsLQIQPixR5B/0Nv+qtzigAsoYdhGw0kY0P69unQaEIyo+K2bLiufJmL5cYzDoJN1l89xkhO6EOUS9gXUqykKlE91tkEvvb1/eCu8w6DRy49AqZceiQ8ctEX4N5f7gb/s5NehnDoTjAO/RTzyCUHwA+oHxgB551H7bpyOJYD4Ic6JvXDw1J3JRWsUbcRS1T1sTcoL6TsSpRj1RD3V1UjEmVXUCxWuaiPVSKThZysLdJS7LtWhZF77gyXnbQFDMGmbD/lCj1gE9h1Q73YI1ZaA3bZn7YF67KxVJF6pAM2/uD74VR+HQG3gsNEJd7AbfXhJdVnj9sP/nrMlrDrRuZij+jdB9bcaH344jH7wPXHbQbrYUK5q0bE59hqsCeYdtmlUM6zVzwIdxZvjsN73rsVjKT94IVSe8D+u68XL/YA3oCbr/w3PFfTZwSfj+122wEu/sYwGMLbJv21Csc2Sei7an/Y87O7whWH05Vy6B9V80ipyspFfBQZFZdQi6o+emigUZGoXJWaZONC4wTlgj6jHBuU14Uy6tMEibVK0awo0hIlc0gr0nnFqjHqLYoERRUJyo+oZEOP1FU5lkUtnCvKRWPqiMeC41PlQktQXDjWKj9E06I2WgXFIrlG1cfhNE5QsrLPqK5Z2YjFqi0EKteCUjUohbGaMdlJyp5CJVIKSVSp2sKxQdlUKC80TlDqnx5ROTSqEBqpU3JCH0bVx8oLaVFoJUo5RtnBhkKx0JqVK6kmhayskiMqzlSpKsoJRFQxa1VUfXGfSG2hJfh4bVVWQaWoQZVjg/K6UF7Ux2oKmkTVx0qia1EsNhiLNDWWTEaTEmOMUnJQsrKKTyuqiHVhiSor1nj8zCIPVUoyyoUIyqTGsG2SQ8pGVhnPKBYiUfVJQlm5UigWWheqLlUp6COlhX1GcYnKRlLxsdpCqFmqmi2dsfJCakrwJcprJTSiYoUerNxjVG2lSu6gYkxVfWzIlCQGV1a5SNNmJMqxVOMco+pLFAm1wiUVUqpGpYXqVnHhWFJ5iFIllMRBD26o4lqDi76xRfWg5KUVR2U0OlEzBdeF4toqF1xF1UqhXIlKhb+lk14piAteDVrdbIM14PpfH4TBBfc+9IJcNtIlJK00n+pbbzaIjA1Zc8DKsMv71q+MRT2shBeDdIGZY9wvPwXvefcaOh5SUi6hToqVVLFsuz1cftou8OXtBsKaq3RQttDRAf3XGwKH//cBMO5YvMwIHVqon4oxTxwvjk0afKq6ZmWj5FA9p1w4VJXjSTmk8FGdlSupco6o1FGCckyhUrSuMaK8TuoJnZ0wb25NKccSC4y/U21Iv+Fbw08OXEXHkG0hFn1oAxievCbQAe/ZckvaOAqiB6tUDL1XgwOO2hUOoy2mOFa0l8KozX7UnY/6MIzebtX4rhkRtrWgA9bb7n3w28PXqgxZfyzm477qdphCHbAaijb5VUtI7nNw+t0v4TFWBq8Fh+6E/cVlOOy/2UrqxP14bCp880HKVUNgIW4fPhFcFqgN6feeEfCj/VbBGvWVEuNLZSYWii2PkcTRf2BhOmCjHd8PY94rW8vjcJ5o6EeK2hLFwrGquJAzKhapioqNu+emqDQki/xGswVjSbk7WmsfrLTSlgRKjFXyqsZ+uJ5RLqEuyl6ucBQHBY0+snEzVS4co8ouq7iQckCNEkGRYJOYVJMS+raKizxCDnUUVGxiCKo5vFbVpDgOhxklL9VVqSZCSo5CcwXXhUqkKLmpRj6qJ1oUiVWlDH6IagNLUKpKPaqsWHlBe9RMQZeodsuZqkz0oWLJKZcwBsXyQsohquQXQ6Fcico2iTY+FNXQR1KCLyzYsEpO7isqVUXZxt2rclVqkq/aqNhYWvNDlY0UJyo2VQ2wykuoa2yqWIJPVWpBJSgo18vKoaJs4kyqB5tRU3Alit6oHEmQX2viMkorUS60BLV19WO1VrmwQZXW5MO6xKQqRWI4qqxYKCCqOKMmhaJQQyatWbkiKiXUVYNPl1AjY6rkKquIKEehiy2svJA2KCGWVVdBGfLRg1VzVLnQEpTrFK7KMRweC61YOYYNUSs2LNIU5f64GRQLL0bZhwspB5RUY7TCOVihqtRMDFVTpXijdqEYXPghDbbRKqi4jdJanKy8cLwt6I1KkUaxUCOqBgVNbBTFWuSwlcxi0qI21qJQFCl/ho+vBuPC14SsW248CK7Bi6wyt/zjP+GCUVZBsQxcre6+sJRvHLodX4lyVlAsR31yKxje4F3CK8fsD1tuoheVfOUqqrVCo0v3iXSdEfCnY4fDcPqbleicD9Oefg2mYplGd+QxeMH5kZ3h93tp04IdFSMJs17A/GfK5XV4lsfFhXKozio5UUVUy05ULHx1blV9pLQWNQVXUbVSKFeiSiFQuaqxQckclIRVfKxmSXjxSXjfkRdkyjXwAw0pmA8TLr4A3n/UhRzz/m/8EybQR0OZDth6u/fyu0oyvoxz+E6DoPwp0b7vXg++KkG6zbiS8JR+a8OXvjkchkiPEluGUqns8hE49UOrFRd7r8+AP535V9j2i/+H5SLY48xH4eGwrQvmwBPT5lfHnP4UbPuli+ADWFK9Cv7rbzROsW+8f0ENRbusBjJhee6Kh+CO+C7fSrDzxz8A66GDlpFHbgRbhZ1ZOBOu/etkzikNB7Me/Tdsd8wlUr50L9zxujrw+dhq2y24vxTs69hLYTssI41S2ftXj3F0moHx/3UZjPwvjCH9zX/g2XjRtwpst9t7UG2WHCOuaYUVixw3o7QExSXUyCgqFnpooBRCm6JijKr5iXIJPlGO5RaprIIynBCUIsvKQaxsJXPQTMF1obhY5cJOUhKNjSrm6OYSslUplmqck1EiaIZ4TDjHKC1YTxQXjiWVR6IVQ1CGFDN5PKskojION6MSIuLjWNVsCT6ppLlUMyFS0BeVnEY1KyjVpKqaKRwblE3ikH0rKY1DDx6PlCWqUDJaxSJ9SJ+i7GTlQmajHKMGVopVVUdaSHCV5JA5qJgpQuqJksOoBEblRCIoEmpR1UeaLcFHqlmFyiqoFGPgB61oTUaj6kuU66lSjSUoGoOSTYKLQtZC+cGQclGf7F+htKI6RUXlSCIoYk1YNFRy+FFobpGHashR5UIEZbQRtskqFmlyj2xLFAvBiitR8XEiVVi5UqhEsLIpahFCykV9rBJhVIJEyVRWijOK2GxWilXNleBj5XWhTDRihR6q0sY+xMiqrVTJXYRzg1VtZAiaFA1OYnAlTVGysdoSfaRYI+VAVfVpRZQzhLJLckWlajRZxCYPVTFG5aI+XeHaKq41WMajgq2o5DGKhWClmJImhazGx4prUQmheqJcMIYMFIuV2v/Dt9Vmg+EKvLgqQ5/fe2Iafc4G4XDJEV2EF3zFOwiNoNszJ/zp8/z/+j6wxTrwqY9tBqd/7SPwlUO20Yh6/vKTT8JWm6bvJNqtYNUKX+GqHv6lrWH78MGxWdPhnNP/DLuOvhz2Gv0X2PWwv8IvH8Q/2PEicPKN98L3r9U4C3YUjpEwHx664XLYG/soyhVYboYzQyw9dGOKbRJNKTlJsXCTVG1Wc4VWUbUSVCqhEEa1KrGqwawqJYyd1lKwLS6h7M4Qj9ELD8HtT+HzEBiwKuyKPumO1sNh5w3183Z4/GeFC66V1oCR9NoE9cNdBa1C7xz+9oi1sYY95mI09egPrV1cWC54HS7//Q1w+j2ztNtF8Ow998LBFz4Hz770LPz6B3+F4298hT05wjCF6lHTfWPVjQlaUG5noBAsuFUwxr7Lt8E68JUtaIyN4dARxWfoZk2ZCic/hBXKaTjcVLj3efN8rLYKfCwNKODxCw1RQRNoUA7C1QP3wL3TxUz0Wy1sZ5EZamFbWbHwcTQqtaBFTaol5bpRpDBJLSp2zgs2o8qAhfK6UKZslA5UpU9RdibKhdxB1ciqNjIEzRaSoKVmVKlqCWOLUudcI9WB4/kZtAFJDj8KlUVtZZWHrlSDoeIIipnqSxRXPDzbjIqolp2otgSbVSTUopoQruNKbKRs4IVUChEUsaayG1Vyy4prGofqIYYeMrCOX4c6Q5BVLNwKimur4isr+qjC+YlDC2FUfZKDj6BiZpWu0rGjBZ2iZBJPoSKWYIqqsXz8tC+r7MNFVAjKWCPXcRWU1+IoVK1YYSsrFlJxFqrroCJWsbAUShKVqkYlRHyyv1wRRWvcX1WypYpYExbpgx68EmVTugSbPFTFzPVEE9SoA8m2qWJhryrX6zQ2tML5XFFbKERQdZUVC6ezjbZFlcQoF/VJMyjZMopUepHOWW09UY3NElwUyw9RaaSj0TpVWUXlSqFCaJCawkHYD0lQMkuTNVcosFCskVJyKOqroxwiufSgfkqKC8dYlYesbCGio9C0D1xrDI+BK7ZGJR95MxqdRss2jJRaUKqpYoXqiVKFYoPikv0/fB8Ytg5cihdVOZ6f8QYFInT5qGrKwAHms1VNGLBqX/jmYdvD+afuDT869kOwz85D1dOcS368L7x/2FqyCUhUuZyNV7aFbgu7bxIuFDrhgRtug5/ep7Gc/TL87pS/wwln/BUOOGsqTCOTuAuon4wxWTQmjI1VUYoUiSpYI+UZxSJN6pGkpOJKlGPVwIrW0Kc6tBA2hiVRLupjlUijEiQWCydIIYy7GivwPoWitkCxv7jecz0YHt5Efn0G/P7B8KUkHbDVNu+nYApESLmSoQM23ukDcOo2NJ6aLNzF1rDLBsUtv7MexwukB6VP3g5OxHLHrbDH6L/DH56ipmxnDo3GEImJ+0lKfQVVX4ppl12K9EGP8mf56PN3m0CPfYfCduE22IUz4aZrH6EhJafcJ7eDsewkdNtL6CYUylbV0AhwkCmW2KRjojWrWEIabUmh4qQlqvrooYFGsRDalKrUomIsL6Rc1KYaYlh5XSijPkkgsco9q5K5rOwqVCusFFPSpEhwGkNmabKSjZULLWSzSgG45kBV9WlF1FB2Sa4oF1qC8kJuCWblhyqZy4UdqliKHlTVRypjWiWfUV2zJk4sISEU9XEtKFWDUhir+MKYHMtBpGzghZSL+kSlagvHlpVdulD/Qal/elilWJESagxOzgl9GFUfKa1TlVVUNqJPVSuFSmSi7AqKJSoJq/hYcQk1MqaqCURUESJUi2NSKFVFpS+rHIOLqKyCMpxcKMcG5XWhvKiPFVeiRSFEKSpVLuxUxSJNoyhBk4IrUfWRslEVraLiE4xqNbg0RWL5IfmVRW3yUA05WJhEU6Nsi/RDCVa5aIxECYmqj1SCrHKlUCy0LlRdqlLQZxRrhXJWoVzUJ82gZBPlKqsYo1L/tFiVgaqKSyRUo2KF6qzSV6ocxMpWMkdlI9ejqo8NjDq1yDZh4Q40VpULNtktgoWWQjk2qCYF5aK+QKgVLqmQUjUqLVS3igvHkmqMPmRlC634wQ1VXFPnqrxQDNWDkjcqrkhFRNWnCZWC60JxbZULrqJyQZ9R8lKdFZfKZ/j2+dAmcOGP9qHILM+99IZcMfIlJFlI2cBl4GqtX/AtLhd+/xPwCb5IpC0X+IpelTcx6J6DYOPw5uPcl+Gei2dqrOw3sQiegWvupHdwKIENKWy2xj6w/RcOh4cvMeXiUXDu3jRmKJgTVbKi6pqVjZITFYtVLhyqqmmpUlyhtKI6e1n7w3FfHAbnHbshfGodjUFfEVsol7XXhJOOGQbnHr0ejKS2xrLiwrGklrU2gvvPHpWWX34MPqN5OWR7sQweZt7BQ2bNgck8huR+cdtB8ds9Zz37Apx3/+sQr22GrA0nyMbxdnGx0GcFtcqf5zvyI7B/KYSh1C36w5rmzeoZL07m8eP+ct+qprDZMnhDuO/3n4Z/hPK7Q1A/Cb/ZlXvBeMopCnXAGukD2x2IOZRH5UzVA8M3dAqSSw9apZ/lW3PzTeGs7Ypv7+R39/ize5qDJYHbwbgObL2meT5efwNullEM/WGv3x4EE0pl3Fc35TguaQIb4v6+d3vYbrDakXmzwkU8xVjVfiRNi/hwLXWruJAzqgRGtYVEVBqsZAp9aX6laEyIZeW1qtpY6ZEo5ReqrVTJHdK1kqjGkCZFgtIYXFnlIk2K0LpVcuCaA4KKjykrUnVhhR6oSaElqFnkEXKog0K5qE9Uc3itqsHFWBQWlDxGsdCalWKiUkC+4LpQiZQauVnFVh2blD2FUiQ/RLWBJShVpV6OlWxcqN+gXNBnFF2i2m2hSUMUi+QYlQ44mvslFavajGqlUK5EzRV2BcVilYv6WO2CRlrIGVUCo5KN0SZX1WaVw1lNoYXVxFKLH0HZKRVVjuUHN0R5rYv6WMmfKHUYVGysJLzGwkZVLDKexpJyqGhScCWqPlI2lhS9QaUQ5NeaVTJTRZULLUFtXZUfWE9V+qS6GGJDYrAusalKkRiOKisWCogqzqhaSZRqVI/KFVEpoa4afLqEWlSKYyVTWUVEuVao5iWaKSGWVVdBGfJRnVVzSDkwVV6oWVZTaMWqPlZcSMWmddIQq8rbjE1ui1CG1INGHyoHlFR9gsSyqsnGUDVVijdqFnmUFAupFLXJSpTWGpT0nRT0kmoXRFReiU8DK4VyWSmKtcjhQuYknXIKJS/3oVr5P3xH7fdeiqrluRlvyJUjrfQKMiqWVm/pXFIc+ckRuKYtF+SqVpS3iPaN6h0hAunshJmUw8Gy3wQrP0QrBF9TMIrHpYKtqOoNquugIkax8DZaVR9ptgQf53BFlKxSYT/0XRn22X8jvOhTi8aEWNZ1B8G3918TNtErBbJR71FxCbWEjg7ou1KprIKlFCb0gZGHmAvDn2wLI+PHQDvh4fsfgHtxQBnpvbDLu8O7bvNh8sTJAHc9DZPDZ8w61oCRn+ONw6JqmfEsjHvOfNnKauvB1781TBsGSl2/D17GBObDjOfCXhYqgUZzY+aOxUp9oC+ej5wZ9o1U+2C19M70Yb8tFJFceogmn+Xruzpst57W6d29cfLuXogtD9dv8/fCvWceLOX3u8DH4n2tnfDIpMnwrGQm9O2L21Qq/bFQXCgFcoF4r14Y3nvcu2G9+M2hc+Efdz6s9TBOMV7YVt5+LugjpaWsuIQaGUXFQo+kEGzmlSibVDVfxjNFfSGGldeqsYEVqidK+UZ1HZSt5KY6qRhT1Rg25ApJUAyU3KBijm4utBTKsVTjHFKqsodtiVqiSypJLj+kv/Iij6CUiA+qhJI4VBlSzNTgQklEuUhTowVRHpWdQbMl+KSiuVRTNSFSwtik5DSqWUGpJlVVU0hEpWFzeaH+WdVGKg0dj5QlKlMyJjlYaBEVG6tY1WZUK4lSrGquJDFYrHJRH6tEGpWgqBIYlRMJFSJUo2oM75sttLCaGM1ilYeuVLkYh/ZD9ajqkzBVimMlX1kpSlSEFItVLuIjiUpVoxIivjAmx0aVqKBSiKCINWHhWKuyYk0W6h8XeajGXOmS6oWWjBwk/UTFIk3ukW2JYqFVqkWOVhKlGtdV2aUaioZKCT5dQi0qOkXJVFaRqFyVmmZhqNFM4digvC6UUR8rPYJKI1FtiWqMhouKU1R9rCQSpc5CRYyiBCUbqy3RR4o1Ug5UVZ9QVg4rFIvkinKhJahZOIeUHyFH+kgKO1R5LY6omhTHw6aMR4orq7pmrThRbaEoVKpFpWpQcrOaMdlpld/h06tBUlzWWiN8o0meN95cQIEIroIy0sPK5b9ElzJhe+NWaIWUt4j2jepPz8OLPAX/4B6MXtlritMkIlSNKUL9lBwzM1/aMm2WjqkbQUKUVQiNTBAWbpUV16S5ksRKJaqUmfDrq1+Cx+ntH77ok3f6JInTRNfGi7399GJv3hy4+pppcA/ZeQla1BYLe0FjTp95056EX11A7yhL/4v2Ww/eE9+lfR0mXIe66HG499niM2bDhn0A1uNwXFU2az589+cPwIRZ2kT6DdsaDgsXQwHKmzi3OF/wonTQuqEzq1i4qRoOXguEnznKiRr2s41+AvFckxU+Sp/lU1568BE4+aEQg5ByxdCzuGhLno9nn4IzLqJ339p7xnOx9sKwb7zYw+2b/Aj8+K6QUYwTVSu8u1RoCSoeo8bC1ZJy3SiS64UVB+EFm1xXDT5WXhfKRCNWqJ6o9CnKQYlyIXdQNbKqjQ2MOsuFJGipGVWqWg9j67bgIFyLGyC2psRQqbDyo1Cuk8+q+uihxrTQKihjFTPVlyiuVJioIqplJ6otwWYVCbWoJkTqdluoQtsiKoUIiliTqRdVqVnlBfumRR6qEhI1SykoPk+s3FNUHSEptIrKRoypOFSlkmiIlVx8BCVhDWOKSi0oB0TVzoyKWIIpqsby8aNCCyvFqC+qwJo0VIMjKJaiJ1X1kbKFVFzqM2rWUZNg0mArmlGlGlV8siWsbCy2SSuFxmyDdWHh3srKLllCXR6pciGCJpScsrFxW6XJPUXlellxFZShRKqzcqVQLLSWusAu1SRFbVSLKtaoXNRnTWITNVVVqcVesPOoMlBVeV2DxrDyw6iubSsqx3CjUK4E1UaiWIJPlWNxJRrNrLnCsVGxxrls4XqiGZIQLJzLD+knUVw4Nqqsgqq5pKlRckNfuNYYHpbHISUbWXManBkt2zBWakGppooVrmOFw4NSrCqVyv/hu+Lvj5K3lvUG96NABFdBsYQeXn59DhnfNq78+2OsMjqWsC+kWIn67+nFN3F2DISRR/THOIqkPFGAIfCJ5P/wSTVC/STG+TD5hivgE6OxnBB0HHzn9mJsztGUsgrWSHmoWKKqj71BeSFlV6Icqwbug2JVNYI+iAk/uMJe9G0k/zQd3Ry6rnlnjy72rnwKLn8+jJkuPA6p5bnHYYtRY9Ny9I1wHroqsXW88jR898R74A6syvYD/PfWaxTfmInXHUO/vBP85JidYViH+VKRIYPgMPo+Ft22Mj2mPwxHnvUUPBvf6OuANVcztywSlPbiKzAtflsonvdDtsZ16NMqSaEkCc9PhRFfuADeG8phF6JeCkffiLGcV1IkqED/eB1zKI/K4ar/9yKY61btgx7aFy70Lp/9v3yw8FW46cKpGsNhhTZiwXx48p5/wqHf+QfcqUlpyky44siLYOtS2flnj6BPY5uNgcx7agoc9vMp5h1EVM0jpSorF/FRZFRcQi2q+uihgUZFonJVapKNC40TlAv6jHJsUF4XyqhPEyTWKkWzokhLlMwhrUjnFavGqLcoEhRVJCg/opINPVJX5VgWtXCuKBeNqSMeC45PlQstQXHhWKv8EE2L2mgVFIvkGlUfh9M4QcnKPqO6ZmUjFqu2EKhcC0rVoBTGasZkJyl7CpVIKSRRpWoLxwZlU6G80DhBqX96ROXQqEJopE7JCX0YVR8rL6RFoZUo5RhlBxsKxUJrVq6kmhSyskqOqDhTpaooJxBRxaxVUfXFfSK1hZbg47VVWQWVogZVjg3K60J5UR+rKWgSVR8ria5FsdhgLNLUWDIZTUqMMUrJQcnKKj6tqCLWhSWqrFjj8TOLPFQpySgXIiiTGsO2SQ4pG1llPKNYiETVJwll5UqhWGhdqLpUpaCPlBb2GcUlKhtJxcdqC6FmqWq2dMbKC6kpwZcor5XQiIoVerByj1G1lSq5g4oxVfWxIVOSGFxZ5SJNm5Eox1KNc4yqL1Ek1AqXVEipGpUWqlvFhWNJ5SFKlVASBz24oYprDS76xhbVg5KXVhyV0ehEzRRcF4prq1xwFVUrhXIlKpXKZ/hOO28CXHvXE+jMs97gVeMVJIZTheu0UP3tvOC77u4n4Cdj79XxZXOKq2pU3rSgk+Ccfxd/Ig/f9ePwg/dLlmQMhC+f/GE4/b8PgJtO/gB8Yi12pVA/GSMvPG5J49hBNSOorlnZKDlUzykXDlXleFIOKXxUZ+VKqpyD+vz09KLvExvAHmujb+014H8+YS72rngK/vIcZ1EXqrxO6ikcKOMEjWatR+bDhPPlovC795tzZ4314DOfWoXjZYytYbsh5v8mrjkI9t5pI9h7xw1h781XVSPSsQZsvRu2eezyWLotE++AH971euXdrwinToZxjxXb03ejDeG0baRP3gfuG8vWO8Nfx3wMTthafWQuQy4R9HO2aKbgStRQtMmvWkJy6UErWlM/z8IDM8zFMF7E/uhFieHwkIPFMuvhibDVEf8HWx2OhfRLf4H9znoUHuE8CqYeSnA/Yo/KJdhwFZELxK2OvBrGPl3cYtt3wyFw/FYYyPmazXmibBE3FrUlioVjVXEhZ1QsUhUVG3fPTVFpSBb5jWYLxpJyd7TWPlhppS0JlBir5FWN/XA9o1xCXZS9XOEoDgoafWTjZqpcOEaVXVZxIeWAGiWCIsEmMakmJfRtFRd5hBzqKKjYxBBUc3itqklxHA4zSl6qq1JNhJQcheYKrguVSFFyU418VE+0KBKrShn8ENUGlqBUlXpUWbHygvaomYIuUe2WM1WZ6EPFklMuYQyK5YWUQ1TJL4ZCuRKVbRJtfCiqoY+kBF9YsGGVnNxXVKqKso27V+Wq1CRftVGxsbTmhyobKU5UbKoaYJWXUNfYVLEEn6rUgkpQUK6XlUNF2cSZVA82o6bgShS9UTmSIL/WxGWUVqJcaAlq6+rHaq1yYYMqrcmHdYlJVYrEcFRZsVBAVHFGTQpFoYZMWrNyRVRKqKsGny6hRsZUyVVWEVGOQhdbWHkhbVBCLKuugjLkower5qhyoSUo1ylclWM4PBZasXIMG6JWbFikKcr9cTMoFl6Msg8XUg4oqcZohXOwQlWpmRiqpkrxRu1CMbjwQxpso1VQcRultThZeeF4W9AblSKNYqFGVA0KmtgoirXIYSuZxaRFbaxFoSjS7P/h+9rpN8PVtz+OtSpDBvfTK0gttAqK5eXX51KjZa6/+0n49cX3wxW3PgqP/qf+a+3LXHPHVPjaz2+VBm+/VoNqpbjK7gG3//xhGB+u+XoPgAO/fhjc+ctPwbVjPgV3/vmT8LUt6Z2eDhiy5XA4Yg/7lRgKdlSMRPSBLXY/AMaNKZdPwA93kaNJ28HbwCpZUUVUy05ULHx1blV9pLQWNQVXUbVSKFeiJu/0rbIKfHqfjeGUfdaCYXSXbHhn7wUJ1S4ou1CzpEiCbLOqmuugmL+c/zj8K54+HbD1R0fCpzCJfD0OXBuGtfjx0GFbjoD1dOwysq094I6zboVfTzYXQxZKxXLF+U/Bw+Efj3esCnsftTuc8EE8/9nQA9b74Pvh/KM2gI3XXBu+8NWD4a9f2hzHZWcK9VdUVXVLaN+C8jarGop2WQ1kwsK9RSVjCg9BS4zJhIU2q21g4eBgM7CZe4xaLgkU02M2/Pyvz8OzaqL/wbfTftvIc5dkab9U00oIkeNmlJaguIQaGUXFQg8NlEJoU1SMUTU/US7BJ8qx3CKVVVCGE4JSZFk5iJWtZA6aKbguFBerXNhJSqKxUcUc3VxCtirFUo1zMkoEzRCPCecYpQXrieLCsaTySLRiCMqQYiaPZ5VEVMbhZlRCRHwcq5otwSeVNJdqJkQK+qKS06hmBaWaVFUzhWODskkcsm8lpXHoweORskQVSkarWKQP6VOUnaxcyGyUY9TASrGq6kgLCa6SHDIHFTNFSD1RchiVwKicSARFQi2q+kizJfhINatQWQWVYgz8oBWtyWhUfYlyPVWqsQRFY1CySXBRyFooPxhSLuqT/SuUVlSnqKgcSQRFrAmLhkoOPwrNLfJQDTmqXIigjDbCNlnFIk3ukW2JYiFYcSUqPk6kCitXCpUIVjZFLUJIuaiPVSKMSpAomcpKcUYRm81Ksaq5EnysvC6UiUas0ENV2tiHGFm1lSq5i3BusKqNDEGTosFJDK6kKUo2VluijxRrpByoqj6tiHKGUHZJrqhUjSaL2OShKsaoXNSnK1xbxbUGy3hUsBWVPEaxEKwUU9KkkNX4WHEtKiFUT5QLxpCBYrFS+3/4Rv/i1ni7pGXNASvD6qvqX94cLjmi7b3Dd9D//BX+e8zN8OtL7ocTz7gdjvj+9XDrfU+rt54rb3sMRv/v37Ul2K1g1Qpf4QZdNAkO++E/Ybz+G0H6Qo011xsAQzcYYL6RsROm3fdP+Op59oY5BTsKxyjQb23MX79a1qM3mSSBxyaKbRJNKTlJsXCTVG1Wc4VWUbUSVCqhEKjJRd9K8O5wsRff2ZOwkEUjF2otFmyLSyi7M/AxenEi/O/94RsakdXWg8O+uDb7TthmkPkH6M/Cdz/3Z9gCy5aqR04weesOgi+thf1lxhUTbfEbcN6P74Sb7C2PAU1d9MI/YYx9J7DfIPjCMZ+E+/7wGSyfhuuPGQZbhdcFOvpA/3d1mosXxXxLZ6qHwMVfQD/uG28TKT8/VBUtKLcz8AbTg1eiXEokMdrmiiFphwZpCE4CkNKXsKhy+c77K9EM9UOOB+6EKx4z7/KtvzGc/PGQUWRGi1bCZtC+SFeiUgta1KRaUq4bRQqT1KJi57xgM6oMWCivC2XKRulAVfoUZWeiXMgdVI2saiND0GwhCVpqRpWqljC2KHXONVIdOJ6fQRuQ5PCjUFnUVlZ56Eo1GCqOoJipvkRxxcOzzaiIatmJakuwWUVCLaoJ4TquxEbKBl5IpRBBEWsqu1Elt6y4pnGoHmLoIQPr+HWoMwRZxcKtoLi2Kr6yoo8qnJ84tBBG1Sc5+AgqZlbpKh07WtApSibxFCpiCaaoGsvHT/uyyj5cRIWgjDVyHVdBeS2OQtWKFbayYiEVZ6G6DipiFQtLoSRRqWpUQsQn+8sVUbTG/VUlW6qINWGRPujBK1E2pUuwyUNVzFxPNEGNOpBsmyoW9qpyvU5jQyuczxW1hUIEVVdZsXA622hbVEmMclGfNIOSLaNIpRfpnNXWE9XYLMFFsfwQlUY6Gq1TlVVUrhQqhAapKRyE/ZAEJbM0WXOFAgvFGiklh6K+OsohkksP6qekuHCMVXnIyhYiOgpN+8C1xvAYuGJrVPKRN6PRabRsw0ipBaWaKlaonihVKDYoLtn/w8eKj2/gRdVfbql+pu9jI9+Na4mRVVFeafGC78QzboN/Pz4Da8WoM159k2/RfHVW/buEf7n1UfifX9+uLRk1UbmcjVe2qWJl6r/gsKP/Ct+//WV4abb5xsYF8+GlqU/B7/73ctj1Jw+28X/4aqBYHliVTJoaVLBG3cagWKQpo5ItUXElyrFqYEVr6FMdWgiNwYu+H16pF33mnT3y0UhRJcMoOYLFwglSCOOuxgq8T1ju/e0UmGA+O7fxdlvDf6+9LYwcogbkpaeehstRuSdckU74+0vmYms12Hpf+qxpdSyx0Fi0fg6O//Pj8ER4Fy+gfVLMhHOugeP/9grMMqdK+IKZArzQm3g/fO6X9Pm4Etlv6dRCX4ii+x2VTeVeTLsygCB90KNQrpexMeQOauF2MKpqsGxbtefkS1hKhWPLCby9Uv549X/gyYVqh96w3cd2gp24TuNxJdUilSKMipOWqOqjhwYaxUJoU6pSi4qxvJByUZtqiGHldaGM+iSBxCr3rErmsrKrUK2wUkxJkyLBaQyZpclKNlYutJDNKgXgmgNV1acVUUPZJbmiXGgJygu5JZiVH6pkLhd2qGIpelBVH6mMaZV8RnXNmjixhIRQ1Me1oFQNSmGs4gtjciwHkbKBF1Iu6hOVqi0cW1Z26UL9B6X+6WGVYkVKqDE4OSf0YVR9pLROVVZR2Yg+Va0UKpGJsisolqgkrOJjxSXUyJiqJhBRRYhQLY5JoVQVlb6scgwuorIKynByoRwblNeF8qI+VlyJFoUQpahUubBTFYs0jaIETQquRNVHykZVtIqKTzCq1eDSFInlh+RXFrXJQzXkYGESTY2yLdIPJVjlojESJSSqPlIJssqVQrHQulB1qUpBn1GsFcpZhXJRnzSDkk2Uq6xijEr902JVBqoqLpFQjYoVqrNKX6lyECtbyRyVjVyPqj42MOrUItuEhTvQWFUu2GS3CBZaCuXYoJoUlIv6AqFWuKRCStWotFDdKi4cS6ox+pCVLbTiBzdUcU2dq/JCMVQPSt6ouCIVEVWfJlQKrgvFtVUuuIrKBX1GyUt1Vlwqn+Hjq0Na6AoRl2/++ja4+G/05QsFHxyxrlw+6pWjXEJKeeLZ8PZZPfMWdMIN9zwVx4iKvicx/96H6D7CKpfcNAW+dcYdOh6CKrWgZFIL+bCaKsWRvgTn//pK2PEL58F7DjobNsfyns+eDzueeDP8Mvk/fHfC3gedgzFULodvs3kSHHYYtg9uVM6Hw67R8ZJt4E0rVNesbJScqFiscuFQVU1LleIKpRXV2asa21xHIX1uBvzgt5PhsN/SO3til6J1jU0UF2qwJnAA+6QZlB5aLyHjUHkIvnvbK8W7aisNgoNOfDcMi9dXc2DyPfLOM/fEfSKTHoMHXqSKsPHmW8HIMK5BxtexaLl/PBzzlxeSL0ChEEqV9EVw+9hrYYdT/wHjnpwDs+zF4YL58OyjT8Mfzrwa9vjFZHiWt199LVLstxTqgNWAlliL1RKSq7Gq5X4ICSMf1TW2HMbtYFTloNAn9dA6nFFOQIOMj/rQvTB2knmRZ8114LhD6K1m2c5CtR9J0yI+XEvdKi7kjCqBUW0hEZUGK5lCX5pfKRoTYll5rao2VnokSvmFaitVcod0rSSqMaRJkaA0BldWuUiTIrRulRy45oCg4mPKilRdWKEHalJoCWoWeYQc6qBQLuoT1Rxeq2pwMRaFBSWPUSy0ZqWYqBSQL7guVCKlRm5WsVXHJmVPoRTJD1FtYAlKVamXYyUbF+o3KBf0GUWXqHZbaNIQxSI5RqUDjuZ+ScWqNqNaKZQrUXOFXUGxWOWiPla7oJEWckaVwKhkY7TJVbVZ5XBWU2hhNbHU4kdQdkpFlWP5wQ1RXuuiPlbyJ0odBhUbKwmvsbBRFYuMp7GkHCqaFFyJqo+UjSVFb1ApBPm1ZpXMVFHlQktQW1flB9ZTlT6pLobYkBisS2yqUiSGo8qKhQKiijOqVhKlGtWjckVUSqirBp8uoRaV4ljJVFYRUa4VqnmJZkqIZdVVUIZ8VGfVHFIOTJUXapbVFFqxqo8VF1KxaZ00xKryNmOT2yKUIfWg0YfKASVVnyCxrGqyMVRNleKNmkUeJcVCKkVtshKltQYlfScFvaTaBRGVV+LTwEqhXFaKYi1yuJA5SaecQsnLfaj22HS/P7C5Fro4xIhTvrwTfGZ3+Z9l9M/XP/zFi8QRAlgB3rPhGnDVzw/geh1T/vMK7Pv/6D2aHD3gG4d+AI78ZPr/AP/vxkfge3+4S1sFdnRWrND+8UVtMJjta4oNz6TRVTId7lRNWE1ePTYBNdmBijfRLNUDYLQBGmbT0+yiVqihxtwMevWBT0RWarfZTWVca6j2VPFixRzuDJUMoyqmWaaapeeNHbjxBqRUO2SanpeBmvx60sBks9XaUjeBZH+bZ9ooVpvOVCKMGpq4A/njGJ4vDmiPOJ4duOgoZy28SMVQpklAyW2bZRVKnsXc7+TnGxd7XLNoXqIJuYAikDcXm4lGbyMoopTYAppVaCXdRrRATXhhrjmONq+N4ZINRk2fpxa6qwRYQ/MekuGpjSWNtpZMRKnZjEovtL+6321R6QgLkxoqYViJ50eSV0eph/oDxZSiq2HZDUgiGlMKz52PyXkZsHktDVdK0P22m2+89d3ZANbGGcEbsOMF0uyQYQIsbbhF7fFDS24D2iHJLz9PNF4Yt4R1tBNQMvPwVXOIrmK3t2Fgnmp6zflYB4U13kAsISBzHLHS3tOlmcmG13eg0VWtVjIK1f/DRxQqK9KTf3cnnH/tQ2SBdddcFQ74yKZFAEO6CB556hV4482aL8NQNn/3GjB4IH0Do5DqInj3OqtxLXD+dZPhe7/Hiz06EERQpNKHCaEq7xvVWdlSqGYFZULVqqlzbFA2kdJaF/WFMbHKdY4tqRAamSAs3CorrklzJYmVSlSNyKtWJVY1mFnDmFaNRWP4Qcn44EIEzSDPRVDsgXNFudgYXhfKWCMXXLHNKlWksMmqVCTN1AstYgWrWLipWu4ACbVCpRb2jWKjal5Qik4VybmwcA4/jPI6LCWfPES5IvVEGWvETA5WxSJN7pHriWIhEtXYGEQrqkclCq1YtMLpVGgJKh6jxsLVknLdKJLrhRUH4QWbXFcNPlZeF8pEI1aonqj0KcpBiXIhd1A1sqqNDYw6y4UkaKkZVapaD2PrtuAgXIsbILamxFCpsPKjUK6Tz6r66KHGtNAqKGMVM9WXKK5UmKgiqmUnqi3BZhUJtagmROp2W6hC2yIqhQiKWJOpF1WpWeUF+6ZFHqoSEjVLKSg+T6zcU1QdISm0ispGjKk4VKWSaIiVXHwEJWENY4pKLSgHRNXOjIpYgimqxvLxo0ILK8WoL6rAmjRUgyMolqInVfWRsoVUXOozatZRk2DSYCuaUaUaVXyyJaxsLLZJK4XGbIN1YeHeysouWUJdHqlyIYImlJyysXFbpck9ReV6WXEVlKFEqrNypVAstJa6wC7VJEVtVIsq1qhc1GdNYhM1VVWpxV6w86gyUFV5XYPGsPLDqK5tKyrHcKNQrgTVRqJYgk+VY3ElGs2sucKxUbHGuWzheqIZkhAsnMsP6SdRXDg2qqyCqrmkqVFyQ1+41hgelschJRtZcxqcGS3bMFZqQammihWuY4XDg1KsKpXK/+GTR1A2ykUjllP/eDecd82DZMULvs2KACyxB5R/PUafzWvMPjttzBmSaxQ72GLjNdlCnPmXB+D7Z99DbvaFGMkRc1AJER8rVlKVqKgcKbVIqEoI57LKKtFkof5Z1UcqDemDuimpYI2Uh4olqvrYG5QXUnYlyrFq4D4oVlUjEmVXUCxWuaiPVSKThZyiVE2VCxEU4VirFKuaLTaG16qxoRVSqgalFecbpbX6JEzVFPaymlgSXmNho1WSQkmiUtWohIgv7B/HWlWfUFbEmrBIrlFpsKZL8BkVoyjBSobYiCrbhJlWsYhwj1K3ioXWrBrDyk5cSSVRqlE9qlQkPCgX8VFkVFxCLar66KGBRkWiclVqko0LjROUC/qMcmxQXhfKqE8TJNYqRbOiSEuUzCGtSOcVq8aotygSFFUkKD+ikg09UlflWBa1cK4oF42pIx4Ljk+VCy1BceFYq/wQTYvaaBUUi+QaVR+H0zhByco+o7pmZSMWq7YQqFwLStWgFMZqxmQnKXsKlUgpJFGlagvHBmVTobzQOEGpf3pE5dCoQmikTskJfRhVHysvpEWhlSjlGGUHGwrFQmtWrqSaFLKySo6oOFOlqignEFHFrFVR9cV9IrWFluDjtVVZBZWiBlWODcrrQnlRH6spaBJVHyuJrkWx2GAs0tRYMhlNSowxSslBycoqPq2oItaFJaqsWOPxM4s8VCnJKBciKJMaw7ZJDikbWWU8o1iIRNUnCWXlSqFYaF2oulSloI+UFvYZxSUqG0nFx2oLoWaparZ0xsoLqSnBlyivldCIihV6sHKPUbWVKrmDijFV9bEhU5IYXFnlIk2bkSjHUo1zjKovUSTUCpdUSKkalRaqW8WFY0nlIUqVUBIHPbihimsNLvrGFtWDkpdWHJXR6ETNFFwXimurXHAVVSuFciUqlY413vOJ7/HFH7UZqgRD9S3LOydOg1Xf1Qc+sfNQePjJV+Qze0m+3Nb5vvfQP7KrZ8ethsD9j7wIT784M8mnd/++uP9WXP/p2HvhzMsmlrrXLaGdoEtXq62g6Uk33LRvdTd4C7iUXxdWkAYmm63WlroJJPvbPNNGsdp0phJh1NDEHcgdR9au7nCMp3zph/oLHeS6S9q5gITGAfZ4haiG3SURpcQWiNmUxum4v7rfSb91HTYNSwPS5wmtaI7nRza/Dk1IOqhiuy0r09zQmFK4bYoW+9sksEU0Qfc7nJ/xeIq3vjsbwFoxGK1iD3fjaOsxEfUJCblsVrsB7ZDrkKXJ8avJq6eUUDpQueMWNEuyvy1lJNh0ycqdjw36a+IuE/vHAeO4qm0Rx228AdYbwiuHK6GSgcVQmydUs0vHs8s7rJR2wPafjlvCOtoJKJl5+Ko5RFex29swMCX2W0mPHiwt0CQ8PX6pakBbw8WEZMNVC29WEyqOphlCyZ3LEs15VEyzXezfB5nem1NJsIZqT9GKlczhzhAzRJNENTeglI1pxf4WA7fQUaA2XBzpeZkJr82vo5TQoFnWhOjAShf2O6Rl/w+fVX2IihF+fN54+NuEp+DIT46Avn16FQFa/nLLY01v6yT++zPvlwxchey9dtyYXPCd390JZ//13+yU7QiFAmmVqtYKjS7dF1KscG9R2cMLx5Kqjx5qTEo5xubywuNZRR/VWTm0UBHVshMVC2+jVfWR0lrUFFxF1UqhXIkqhUDlqsYGJXNQElbxsdoFjbTIQ1UCRQmVqEjwJYqFlAstrCaGF1JZBZVC8aK5gJAZVX0cnim4LpTEKBd2qnKhZqEk7CaVqqr47L7x/gUlP6v4BKMZk5jFJ0prccRFfUH5IQ22EUHJpitVLOwstNhmanKPUXMliWFjoVopVCJZY00rRajkR6UlKC6hRkZRsdBDA6UQ2hQVY1TNT5RL8IlyLLdIZRWU4YSgFFlWDmJlK5mDZgquC8XFKhd2kpJobFQxRzeXkK1KsVTjnIwSQTPEY8I5RmnBeqK4cCypPBKtGIIypJjJ41klEZVxuBmVEBEfx6pmS/BJJc2lmgmRgr6o5DSqWUGpJlXVTOHYoGwSh+xbSWkcevB4pCxRhZLRKhbpQ/oUZScrFzIb5Rg1sFKsqjrSQoKrJIfMQcVMEVJPlBxGJTAqJxJBkVCLqj7SbAk+Us0qVFZBpRgDP2hFazIaVV+iXE+VaixB0RiUbBJcFLIWyg+GlIv6ZP8KpRXVKSoqRxJBEWvCoqGSw49Cc4s8VEOOKhciKKONsE1WsUiTe2RbolgIVlyJio8TqcLKlUIlgpVNUYsQUi7qY5UIoxIkSqayUpxRxGazUqxqrgQfK68LZaIRK/RQlTb2IUZWbaVK7iKcG6xqI0PQpGhwEoMraYqSjdWW6CPFGikHqqpPK6KcIZRdkisqVaPJIjZ5qIoxKhf16QrXVnGtwTIeFWxFJY9RLAQrxZQ0KWQ1PlZci0oI1RPlgjFkoFis1P4fPlFZBbXlv37yN1h5pd5wxjd2Ja8YtTz+zCtw7tWT2NqIVVem76WXLGLjIQPg0L22gK/9/Ba4JHwzKF2WUgQp14MtJViixlDdN1K2GdXooFSz1aimcGxQNhXKi/qC8kMG1HELTSk5uQPph1VtVnOFVlG1ElQqoRBGtSqxqsGsKiWMndYoQVQs9OBCBM1QHBuj1FcoamPVjmStiqugUoyhrFi4alV9nGYLWWllYgXbxsINVUkwKmatllT7wdiomhfURlfIhWDh3oLyulCuB588RKkSChGUsUYsIVhVhHsUs1GulzXG4poqQWnFnVFVVRxMtNgQLNSbdCEqtaBFTaol5bpRpDBJLSp2zgs2o8qAhfK6UKZslA5UpU9RdibKhdxB1ciqNjIEzRaSoKVmVKlqCWOLUudcI9WB4/kZtAFJDj8KlUVtZZWHrlSDoeIIipnqSxRXPDzbjIqolp2otgSbVSTUopoQruNKbKRs4IVUChEUsaayG1Vyy4prGofqIYYeMrCOX4c6Q5BVLNwKimur4isr+qjC+YlDC2FUfZKDj6BiZpWu0rGjBZ2iZBJPoSKWYIqqsXz8tC+r7MNFVAjKWCPXcRWU1+IoVK1YYSsrFlJxFqrroCJWsbAUShKVqkYlRHyyv1wRRWvcX1WypYpYExbpgx68EmVTugSbPFTFzPVEE9SoA8m2qWJhryrX6zQ2tML5XFFbKERQdZUVC6ezjbZFlcQoF/VJMyjZMopUepHOWW09UY3NElwUyw9RaaSj0TpVWUXlSqFCaJCawkHYD0lQMkuTNVcosFCskVJyKOqroxwiufSgfkqKC8dYlYesbCGio9C0D1xrDI+BK7ZGJR95MxqdRss2jJRaUKqpYoXqiVKFYoPiUv8tnXRVSB6rTOq4789fgP6r9IHNDvgjOflqkgYg/clXdoH9Prwp28s89fzr/K2b9/z7eWxJf1P+ciQc9YMb4I6Jz2hHbG6IbIVRzKMDTFryYGmBmnC6luYDlmim1zaHiwm6vyxFs3l3NoC1YsBST/PxrCUTUWo2o3IcceDi+eoCcXy7IcUG5awNwjOUAprk5dxJGB9otFhth1KH+fNSNEspv4oNMMrbq1I0m3cXSBJVWyCXlo5HtdSS0MQdKMJKx7E6YHvYDbf9stpxa6gEWEODHtScO26ZaKRBQhsk6axNzscyFNZw3DTAtlixEg93S2hmsuFqzqDR2XFjJW5AOTJDk7DK+WhUAxp2X48mJtubdlfWLJWAphkJdvj8eFULY80Zd5kYhgOF+ab6d0IL2HDpMDGkz1MazlQMddhAk9CgmYkuiA6smOe7ZTTfpss4pfOxjOYl2pA0QZ4nbGGzrW4CdoNb6KEShZX0cFUijGZo2W3PG9lvdTTMr2DjWdMOKm6jTK0j0DggHK9gzkWlbRuBWj3gDYnZMY3OFz1+tl8zYpam4eJInye0ojlubgvDVEg6qGK7LSvT0JA4mLY/w2eV+MMV/4Lpr7wJDz3xkloK6LbPufM6YfX+K0G/d/WBV2bN5W/xpC9++dE5E+DR/7yadDj91TfhurueaDhetHT1SNvw0A037RMpmsXmt0SaYDc7WNvrznTQArF/M1CabhyNtqjGXTXb44cWu70mr2Vix1JJnyfjxpJlMQNym9+wuxDRekJCDKd07qZ0PJt1ZMOy4WlA5XiiuY3TC0n7a9ZBKTpRJhpqI/LUhFfN9ngaqoGtoftrJ5q2uqkEWkO1h4oXK42fr0qGURXTLFPN0uNnB268AXlsx4bK+YglCbOGTH6VUmCDZkvdJvvbMDJLctiojUv15zvTbxN3QRpon68uPV2xO5sY+q9ivZW0LDYjQxtu0dLx5A3QgHaIHVK+Hj/tt3x+Zon53DJYR1lxjVJ+ngpvIyiilNgCmlVoJd1GtECT8PT4meNo89oYLibYDTc7oN6sMhVHLjLJSCm5c1miOY+KabbLEpl3koRaBxOtWImHW+15YoZo64lMKVv2U/e35MHSAjXhteeluAvaHC4m6P7mdr+l7mKg6aAFkvFIW/0/fNUtso4ioGLFShvbh2gmJxZN7b6CdbNSmqZHQ6MOytjwTFrTE6Mmrx6bgJrsQMWbaJbqATDaAA2z6Wl2USvUUGNuRvILC/PtuC1RGdcaqj1VvFgxhztDJcOoimmWqWbpeWMHbrwBKdUOmabnZaAmv540MNlstbbUTSDZ3+aZNorVpjOVCKOGJu5A/jiG54sD2iOOZwcuOspZCy9SMZRpElBy22ZZhZJnMfc7+fnGxR7XLJqXaEIuoAjkzcVmotHbCIooJbaAZhVaSbcRLVATXphrjqPNa2O4ZINR0+ephe4qAdbQvIdkeGpjSaOtJRNRajaj0gvtr+53W1Q6wsKkhkoYVuL5keTVUeqh/kAxpehqWHYDkojGlMJz52NyXgZsXkvDlRJ0v+3mG299dzaAtXFG8AbseIE0O2SYAEsbblF7/NCS24B2SPLLzxONF8YtYR3tBJTMPHzVHKKr2O1tGJinml5zPtZBYY03EEsIyBxHrLT3dGlmsuH1HWh0VauVjOJ6E7rgiwO0cEJYQ+II5AJMYINmJtqgniYHpBk2XcZp8YQgd9iwoFnSwHgcsdnC81klm8g9sruM9bLaNKYSYTRDy2573pjj2SS/KboD8odIG93ZwCSh1sHY4xWV7OLOQB7Tn01sgVI2puF+6v6WPFhaoDZcHOnzZMJtXhvDxQTe76IZ8m0z4844aiPzlMKq2fZ8zPRbajYn7cc+X5nemxMT0n7rerDhrZ1mpf5sMzNMMAcqYa0PnKfUYXo+ppqllF/FBhjl7VYpms27CySJqi2QS0vHo1pqSWjiLpMeR2xjXhubWyXpoLoh1ppozsHkHEmA0IJZ1J4vaLHbm8lvSuxYKpXjGdxYsnQxIFqx0t7ma6ZNaJBo3YnaSoPnu4INy4Snxy9VDWhpmAKbgJpsb8WbaJZKQNMMQcPs8CErza5amBpzM5L5JijZxd2cyrjWUNaMFSvmcGeoZBhVMc0yuSxWO3DjDchT6RALiz0vK+7UkDjqKCXw9kbpQneUqB20kFmJwoo9XNV3+CoZWBLyAbGFlfael5gp2iSxFJ0ok+RnIxpTCi+a9sQwv7ACNq+N4WICb3eU1rurBDbNSLCHK+mGnIy1ZPqtMddROY448OK9woqVBs93xYqVSniWSiYWlYw5kHMnYckGdIFSh7nzMhmvTCm/ig0oVJ4nbGEzqnobo/0k+12fab2stWmVSCwZ2nCLFseRaZLflGQH0u7KmlAbUOsQSm4evmo2WSWP3d40sCXsz3P5vGwJ3YxquHUUARUrVszhbgHNtPsbNIN1J1qtGG1Ak3B7/LLHsyavHpuAqgdMnq+Kt3m3MbC1TBseTzPVPDGDW0nTmOuohNN+6v62eaIItkPGGsrPU5PwLDYg00ODZia6wO7vYuw3pxdN1NL5WKYIbBGboOdldtwWSfa3eQ+VKKykh6sSYdTQxB0o3FrDgYrzUwPaoehQVSq152OZxQywx6ul8ZKIUmILxGxK43Rz/Gy/zTqsDUv7sec7W9Ecz48WhqmQdFDFdltWprkhoccm+/2etr8mIX+i1IZnyWWahAbNTDSiFnugGhywCpqedMNN+0SKZinl14UVpIHJZqu1pW4Cyf42z7RRrDadqUQYNTRxB3LHkbWrOxzjKV/6of5CB7nuknYuIKFxgD1eIaphd0lEKbEFYjalcTrur+530m9dh03D0oD0eUIrmuP5kc2vQxOSDqrYbsvKNDc0phRum6LF/jYJbBFN0P0O52c8nuKt784GsFYMRqvYw9042npMRH1CQi6b1W5AO+Q6ZGly/Gry6ikllA5U7rgFzZLsb0sZCTZdsnLnY4P+mrjLxP5xwDiualvEcRtvgPWG8MrhSqhkYDHU5gnV7NLx7PIOK6UdsP2n45awjnYCSmYevmoO0VXs9jYMTIn9VtKjB0sLNAlPj1+qGtDWcDEh2XDVwpvVhIqjaYZQcueyRHMeFdNsF/v3Qab35lQSrKHaU7RiJXO4M8QM0SRRzQ0oZWNasb/FwC10FKgNF0d6XmbCa/PrKCU0aJY1ITqw0oX9jmn0Dl/DtKb9Ng6w2xeiGnaXRJQSG1DKMuPGSjkCS4YmYekJkaoGtDRMFU1ItjftpqVuKwFNMwQNs8OHrDS7amGsOeOuI/mFFZTs4m5OZTxrqG5QxYoVc7gzVDKMqphmmVyWqNaab0CeaodMel5W3KkhcdRRCizl8+ZXzSG6SrK/LWUwMcqkS5bNL6uhiTtQuO1xlPNSHQ3zK9h41rSDitsoUzGUaRJQcttmWYWSx+53F0h/rs3xbNZhaTOK8JyjCODNxWai0dsIiigltoBmFVpJtxEt0CS8cl6yot3mtTFcTLAbbnZAvVllKo5cZJKRom4etmhmsmo81cCGVHrBgeMfkF2hMn46Qnx+EitqxYAlSymQD1RQNRtK0YkyNj8f0ZhSeNGsnpdZSvnN0QTd39zut9RdDDQdtJCZjBeU7OJGqBYsZVVJExpSOY444JI5P6US+g0bFN3cytDVADXnjlvj7jIJbZCks9rzMXTYoOMm7jTAPE+saEVzGL8tqhuujhSyFqMbzTmY1GDe4RNHZQfYGsINtY4ypUDbROX9q5pDdJUmB6QZNl3GyZ0QDWgaZgPM8cQBW3g+M2h/yYbXd6DRhdrw4GAqkVgytOEWtceTDQ3zm1LaAek/7TbbfW1AzpHpQc08vDYDaVsDk4SaxAylbEyj80TOl5IHSws0CbfPT7b3JvlVNMHur8m3zYy7IDqwkj9h89gwTTNNVHs+ph6m1GxO2o99vjK9NycmpP3W9WDD42mmmidmcCtpGnMdlXDaz3B+Nh44j+2QEUN6XgY1YYFKfhkbUFZco8TjptbC24AkUbUFYv82Xe1CjOBWBetuEBaoHEccsCtPU8RueNyAYkNy1sKLNDRkM4Qad84sqjW7vSGgHYoOtbvq+diw27YCqoG5zW/YXbk/20ELxOyYRueLnDdJvw22gGkSVjkvWdHe5jAVig2XJpZydw27rQQ0zUiww+fHsxbjqTE3wz4/xbwjx7MlKuNWDEYzVqyYw90CtgcV0yxj3WVl2t8AoabD2vNS3AWlvHpsIKrd3kLKUfXdJvvbUkZCafjF/z98xsEkAwQlu7gzkMf013oiU8rGtOIHoeTB0gI14Uv+xAhogu5vbvcbdmcDWCsGLPU0H89aMhGlZjMqxxEHLp6vLhDHtxtSbFDO2iA8QymgSV7OnYTxgUaL1XYodZg/L0WzlPKr2ACjvL0qRbN5d4EkUbUFcmnpeFRLLQlN3IEirHQcqwO2h91w2y+rHbeGSoA1NOhBzbnjlolGGiS0QZLO2uR8LENhDcdNA2yLFSvxcLeEZiYbruYMGp0dN1biBpQjMzQJq5yPRjWgYff1aGKyvWl3Zc1SCWiakWCHz49XtTDWnHGXiWE4UPkP5pY6CNhw6TAxpM9TGs5UDHXYQJPQoJmJLogOrJjnu2U036bLOKXzsYzmJdqQNEGeJ2xhs61uAnaDW+ihEoWV9HBVIoxmaNltzxvZb3U0zK9g41nTDipuo0ytI9A4IByvYM5FpW0bgVo94A2J2TGNzhc9frZfM2KWpuHiSJ8ntKI5bm4Lw1RIOqhiuy0r09CQOJju8Rm+UkRDbHjohpv2iRTNYvNbIk2wmx2s7XVnOmiB2L8ZKE03jkZbVOOumu3xQ4vdXpPXMrFjqaTPk3FjybKYAbnNb9hdiGg9ISGGUzp3UzqezTqyYdnwNKByPNHcxumFpP0166AUnSgTDbUReWrCq2Z7PA3VwNbQ/bUTTVvdVAKtodpDxYuVxs9XJcOoimmWqWbp8bMDN96APLZjQ+V8xJKEWUMmv0opsEGzpW6T/W0YmSU5bNTGpfrznem3ibsgDbTPV5eertidTQz9V7HeSloWm5GhDbdo6XjyBmhAO8QOKV+Pn/ZbPj+zxHxuGayjrLhGKT9PhbcRFFFKbAHNKrSSbiNaoEl4evzMcbR5bQwXE+yGmx1Qb1aZiiMXmWSklNy5LNGcR8U022WJzDtJQq2DiVasxMOt9jwxQ7T1RKaULfup+1vyYGmBmvDa81LcBW0OFxN0f3O731J3MdB00ALJeKT+f/hK2PBMWtMToyavHpuAmuxAxZtoluoBMNoADbPpaXZRK9RQY25G8gsL8+24LVEZ1xqqPVW8WDGHO0Mlw6iKaZapZul5YwduvAEp1Q6ZpudloCa/njQw2Wy1ttRNINnf5pk2itWmM5UIo4Ym7kD+OIbniwPaI45nBy46ylkLL1IxlGkSUHLbZlmFkmcx9zv5+cbFHtcsmpdoQi6gCOTNxWai0dsIiigltoBmFVpJtxEtUBNemGuOo81rY7hkg1HT56mF7ioB1tC8h2R4amNJo60lE1FqNqPSC+2v7ndbVDrCwqSGShhW4vmR5NVR6qH+QDGl6GpYdgOSiMaUwnPnY3JeBmxeS8OVEnS/7eYbb313NoC1cUbwBux4gTQ7ZJgASxtuUXv80JLbgHZI8svPE40Xxi1hHe0ElMw8fNUcoqvY7W0YmKeaXnM+1kFhjTcQSwjIHEestPd0aWay4fUdaHRVq5WM4tr/D1+LJwS5w4YFzZIGxuOIzRaezyrZRO6R3WWsl9WmMZUIoxladtvzxhzPJvlN0R2QP0Ta6M4GJgm1DsYer6hkF3cG8pj+bGILlLIxDfdT97fkwdICteHiSJ8nE27z2hguJvB+F82Qb5sZd8ZRG5mnFFbNtudjpt9SszlpP/b5yvTenJiQ9lvXgw1v7TQr9WebmWGCOVAJa33gPKUO0/Mx1Syl/Co2wChvt0rRbN5dIElUbYFcWjoe1VJLQhN3mfQ4Yhvz2tjcKkkH1Q2x1kRzDibnSAKEFsyi9nxBi93eTH5TYsdSqRzP4MaSpYsB0YqV9jZfM21Cg0TrTtRWGjzfFWxYJjw9fqlqQEvDFNgE1GR7K95Es1QCmmYIGmaHD1lpdtXC1Jibkcw3Qcku7uZUxrWGsmasWDGHO0Mlw6iKaZbJZbHagRtvQJ5Kh1hY7HlZcaeGxFFHKYG3N0oXuqNE7aCFzEoUVuzh8v/DV6YUXjTtiWF+YQVsXhvDxQTe7iitd1cJbJqRYA9X0g05GWvJ9FtjrqNyHHHgxXuFFSsNnu+KFSuV8CyVTCwqGXMg507Ckg3oAqUOc+dlMl6ZUn4VG1CoPE/YwmZU9TZG+0n2uz7Tellr0yqRWDK04RYtjiPTJL8pyQ6k3ZU1oTag1iGU3Dx81WyySh67vWlgS9if5/J52RK6GdVw6ygCKlasmMPdAppp9zdoButOtFox2oAm4fb4ZY9nTV49NgFVD5g8XxVv825jYGuZNjyeZqp5Yga3kqYx11EJp/3U/W3zRBFsh4w1lJ+nJuFZbECmhwbNTHSB3d/F2G9OL5qopfOxTBHYIjZBz8vsuC2S7G/zHipRWEkPVyXCqKGJO1C4tYYDFeenBrRD0aGqVGrPxzKLGWCPV0vjJRGlxBaI2ZTG6eb42X6bdVgblvZjz3e2ojmeHy0MUyHpoIrttqxMc0OC/x8+SuemfSJFs5Ty68IK0sBks9XaUjeBZH+bZ9ooVpvOVCKMGpq4A7njyNrVHY7xlC/9UH+hg1x3STsXkNA4wB6vENWwuySilNgCMZvSOB33V/c76beuw6ZhaUD6PKEVzfH8yObXoQlJB1Vst2VlmhsaUwq3TdFif5sEtogm6H6H8zMeT/HWd2cDWCsGo1Xs4W4cbT0moj4hIZfNajegHXIdsjQ5fjV59ZQSSgcqd9yCZkn2t6WMBJsuWbnzsUF/TdxlYv84YBxXtS3iuI03wHpDeOVwJVQysBhq84Rqdul4dnmHldIO2P7TcUtYRzsBJTMPXzWH6Cp2exsGpsR+K+nRg6UFmoSnxy9VDWhruJiQbLhq4c1qQsXRNEMouXNZojmPimm2i/37INN7cyoJ1lDtKVqxkjncGWKGaJKo5gaUsjGt2N9i4BY6CtSGiyM9LzPhtfl1lBIaNMuaEB1Y6cJ+xzT/P3wlmoSlJ0SqGtDSMFU0IdnetJuWuq0ENM0QNMwOH7LS7KqFseaMu47kF1ZQsou7OZXxrKG6QRUrVszhzlDJMKpimmVyWaJaa74BeaodMul5WXGnhsRRRymwlM+bXzWH6CrJ/raUwcQoky5ZNr+shibuQOG2x1HOS3U0zK9g41nTDipuo0zFUKZJQMltm2UVSh67310g/bk2x7NZh6XNKMJzjiKANxebiUZvIyiilNgCmlVoJd1GtECT8Mp5yYp2m9fGcDHBbrjZAfVmlak4cpFJRoq6ediimcmq8VQDG1LpBQeOf0B2hcr46Qjx+UmsqBUDliylQD5QQdVsKEUnytj8fERjSuFFs3peZinlN0cTdH9zu99SdzHQdNBCZjJeULKLG6FasJRVJU1oSOU44oBL5vyUSug3bFB0cytDVwPUnDtujbvLJLRBks5qz8fQYYOOm7jTAPM8saIVzWH8tqhuuDpSyFqMbjTnYFKD/x8+XKonRAOahtkAczxxwBaezwzaX7Lh9R1odKE2PDiYSiSWDG24Re3xZEPD/KaUdkD6T7vNdl8bkHNkelAzD6/NQNrWwCShJjFDKRvT6DyR86XkwdICTcLt85PtvUl+FU2w+2vybTPjLogOrORP2Dw2TNNME9Wej6mHKTWbk/Zjn69M782JCWm/dT3Y8HiaqeaJGdxKmsZcRyWc9jOcn40HzmM7ZMSQnpdBTVigkl/GBpQV1yjxuKm18DYgSVRtgdi/TVe7ECO4VcG6G4QFKscRB+zK0xSxGx43oNiQnLXwIg0N2Qyhxp0zi2rNbm8IaIeiQ+2uej427LatgGpgbvMbdlfuz3bQAjE7ptH5IudN0m+DLWCahFXOS1a0tzlMhWLDpYml3F3DbisBTTMS7PD58azFeGrMzbDPTzHvyPFsicq4FYPRjBUr5nC3gO1BxTTLWHdZmfY3QKjpsPa8FHdBKa8eG4hqt7eQclR9t8n+tpSRUBre/w9fhZrwJX9iBDRB9ze3+w27swGsFQOWepqPZy2ZiFKzGZXjiAMXz1cXiOPbDSk2KGdtEJ6hFNAkL+dOwvhAo8VqO5Q6zJ+XollK+VVsgFHeXpWi2by7QJKo2gK5tHQ8qqWWhCbuQBFWOo7VAdvDbrjtl9WOW0MlwBoa9KDm3HHLRCMNEtogSWdtcj6WobCG46YBtsWKlXi4W0Izkw1XcwaNzo4bK3EDypEZmoRVzkejGtCw+3o0MdnetLuyZqkENM1IsMPnx6taGGvOuMvEMByo/AdzSx0EbLh0mBjS5ykNZyqGOmygSWjQzEQXRAdWzPPdMppv02Wc0vlYRvMSbUiaIM8TtrDZVjcBu8Et9FCJwkp6uCoRRjO07Lbnjey3OhrmV7DxrGkHFbdRptYRaBwQjlcw56LSto1ArR7whsTsmEbnix4/268ZMUvTcHGkzxNa0Rw3t4VhKiQdVLHdlpVpaEgcTI8Zc2g0x3Ecx3Ecx3Ecp7vRU9VxHMdxHMdxHMfpZvgFn+M4juM4juM4TjfFL/gcx3Ecx3Ecx3G6KX7B5ziO4ziO4ziO003xCz7HcRzHcRzHcZxuil/wOY7jOI7jOI7jdFP8gs9xHMdxHMdxHKeb4hd8juM4juM4juM43RS/4HMcx3Ecx3Ecx+mm+AWf4ziO4ziO4zhON8Uv+BzHcRzHcRzHcbopfsHnOI7jOI7jOI7TTfELPsdxHMdxHMdxnG6KX/A5juM4juM4juN0U/yCz3Ecx3Ecx3Ecp5viF3yO4ziO4ziO4zjdFL/gcxzHcRzHcRzH6ab4BZ/jOI7jOI7jOE43xS/4HMdxHMdxHMdxuil+wec4juM4juM4jtNN8Qs+x3Ecx3Ecx3Gcbopf8DmO4ziO4ziO43RT/ILPcRzHcRzHcRynm+IXfI7jOI7jOI7jON0Uv+BzHMdxHMdxHMfppvgFn+M4juM4juM4TjfFL/gcx3Ecx3Ecx3G6KX7B5ziO4ziO4ziO003xCz7HcRzHcRzHcZxuil/wOY7jOI7jOI7jdFP8gs9xHMdxHMdxHKeb4hd8juM4juM4juM43RS/4HMcx3Ecx3Ecx+mm+AWf4ziO4ziO4zhON8Uv+BzHcRzHcRzHcbopfsHnOI7jOI7jOI7TTfELPsdxHMdxHMdxnG6KX/A5juM4juM4juN0U/yCz3Ecx3Ecx3Ecp5viF3yO4ziO4ziO4zjdFL/gcxzHcRzHcRzH6ab4BZ/jOI7jOI7jOE43xS/4HMdxHMdxHMdxuil+wec4juM4juM4jtNN8Qs+x3Ecx3Ecx3Gcbopf8DmO4ziO4ziO43RTesyYs2iR1p0GLPLD5DiOs9zRo0cPra0Y+FzlOI6zfPF2zFN+wYf4BOk4jrPisrxcFPpc5TiOs2KyuPPUCnvBl5s4m0+mPtk6juMsPzSeIHMT6LJ28edzleM4Tnfm7ZmnVrgLPjtR5uuLsK7VLCvU4XIcx1lOqZ8QZa4Uv5046+rvBD5XOY7jdHfq55klPU+tMBd8uQmzd89QekAHagceuDaOneM4jrOMsxB/3S/E3/lvdS6CBZ0LYR7qfCzyu55+54ff+1LnmpkI2plQlwQ+VzmO46xYvB3z1ApxwRcmTdIOPCYr9erBheqO4zjOikUnzq5vzu/k8hZODzKZpoUo69LG5yrHcRyHWNLzVLe+4AuTJ9EDFsEqOHGu3NtnTsdxHEd4Y94CmDm3E+cLnCd60iTakydOWwLNJtSu4nOV4ziOU8eSmKe67QWffaV05V4Aq/amg8Mmx3Ecx4nQrTSvzp7Pr6T26NkTeuqEKkoTRzGh1k2mXcXnKsdxHKcZiztPdcsLPjuB9uvtr5Q6juM4zZk5Zz68+uZ8nEBpEpVSfiWVyE2mXcHnKsdxHKcdujpP9VTtNtgJdLW+PoE6juM4rdF/5T6w5qp9ofOtTujspLIQFi5cyPNJKETQxcH25XOV4ziO0wpdnae61QWf3UmaQPv6J90dx3GcNlilb28Y1G+lOJkupLKEL/psHz5XOY7jOO3QlXmqW77DR7fG+ATqOI7jdIVVVuoNa6xCr6C+1XAyXRx8rnIcx3G6SrvzVLe54As7Rh9691tjHMdxnMVhNZxIV+nbwRNpeTLFGYdjyhNqK/hc5TiO4ywJ2pmnusUFX9gZ+jpr+oYzx3Ecx1lcBvVfBSeYhTKZ4iQqE2nxCioRtBV8rnIcx3GWJK3OU93qHT7630VL6MvTHMdxnBUc+rrrNVZdybxyKq+eLlyYv2WmFXyuchzHcZYUrc5Ty/0FX9gR+hiE3x7jOI7jLEkGrLoyzy8ymaavngZsvQ6fqxzHcZylQSvzVLe5pXOlXj6BOo7jOEse+pwEvWramXnl1E6ozfC5ynEcx1kaNJunlusLPjvR+iTqOI7jLA36vyvcLoOTKJZFbb7L53OV4ziOszRpNk91i1s66bPv/s3WjuM4ztKgd68OWKlPL371lF85pUm0zXf5fK5yHMdxlhbN5qlucUunf9mZ4ziOszR5V9/eZhIl1Qs9Ki3ic5XjOI6ztGg0Ty230w/vgNK7p79k6jiO4yw9Vu5DEylOnjSJ8qumcquMvdyz81LA5yrHcRzn7aDRPLXcv95IO9Lhr5o6juM4S5E+vXvx5BknUVSsyGRqLurq8LnKcRzHWZo0mqeW6+knTLId/g+NHMdxnKUIfT5CLu70FVMtOBOxP8xHOYLP5yrHcRxnadFonuoGrzcu8n9g6ziO4yxVOnr2TCZQLrTwtVz9xV6Bz1WO4zjO0qPRPNUNbunUiuM4juMsRcqTKD1o1co85HOV4ziOs7Spm6f8EwWO4ziO0wZ88cbzaJhMHcdxHGfZoTxP+QWf4ziO47SCvmoqU6hMotRyHMdxnGWCmnlqubzgkx1xoHMqnHLoH2Gz/f4IHz3/OTUuOW4bI31vtt/FcM40NS4rjL9Wt+2PsN8l09XoOI6z9AgzT6MpyM5PPlctPyxr8920Sy6Oc9zo8Wp0HMdpQt081WPGnOVvRgqTaPjq0bVX7cXtJcd0OOerV8FpT2O1/4Zw8bm7wjYd4gnQL+OPXjiL68M/uy9cefBgrE2G0fvdDVezNaVv/36w24Ej4eR9N4T+amNefQou+OME+O0/Z8GMudju6IBBGw2AA3fbFj734fVhUB8Jq2PGuMtgx7NeAxg4FK48+yMwXO1LApoAj76Dav3gxDMOgSOGsHnZgC74TpOL3OL4O47jLD0eeOxp6NWrF5be0Lt3b+hFBdsd+Hu7Z88e0KOHvIbaQ7+dZenPVWbOGbY13PXjbWEQ2wuK3+MA+5x4FIzZPp2/EnA/hm62Phx//K6wW/IrtROm3XErfOviZ2DitE6Yh5a+/VeGbT6wERy5/7awy5AmE9XiMu1u2O+4ybi3yAbD4ZZf7QBLejrKzXf5eb4GMycl8Jy+FhyJ8/+o7QdCXzU3w44dnjfHcZxm1M1T3eCWzqV8vTrzKTjul5Nhpja7yryZs+Dqc26CPceYvp6+Gw750k1wyl16sUd0dsKMx1+GM397A+x46LVw23y11zBoj5FwDM1Bs6fDeLpAdRxnyTJ9MpxywrkwQl9tH3HoxXDcZVP5j953lFefgl+cUP+OxMxJE2C02e7cO+H8LsKn8PdMpxroD/sbr4IdP4U5+LsqgV6c+tnFsO3Behy+eBWc8/AcdRo68SIE82U8ulC4CQ495lzO2exT58J+v54MM+J4CB3fr6r/4HPhkLOmmt+3LeRH5uAf7RT3dr9DQ3NQK/PQUp6rHn4Ajl7cux1w/pn6MM55x+AxjPMJHtdfXgAfHfMUjNeLPWLezDkw/ubJcPRxY2G/y5b/uywGbbE+HPQxKuvC0FXUuCTgOf05OO20K2DbE+6GqU3m9EDfjdbV7Vkftl9LjY7TgJkP340/u/q7Esu2x1wGJ/39nf7ZbDCnEPNfhhvPugz2/LRs82b74Xykrkgypyi181/rc0Yy/zWd3+bAxEuugo+qf9tjroJL7d/crc6PBP7tv1/d8Vhq+Je2tMSMO+6GQ9ueSPvA9vrL+qCPDYSh+g7hjDsmwC8mUe01uOA3k2Gi/vIftLn+cn9fP+ivL5YO2XME7NLshdOO9eH4Mw6HRy86BI7YQG2O4ywZ6LZp/CPtgunvglFHjIQzRo+AIzYBmPoq/kGmIW8/OoEedZP5ozxl5vhrYc/vTILx+PvhxNE7w9jv7Qwnbj9AvYHn4NKbZkH/j20Ou9DvJ55Az4WP/n565gWul+GCH94Ep0zugAM/J8dh347pcNq3x8GlL2uIMu+Ox+HqzgH4+2wwzLv/JjgELxRmbLw5jBk9EsbsPwBm3IyTHV7UMZ3PwC++jcf3tQFwzLHo33cATBt3a/x92zTfMHP8rfCtO7JXgksWvm4LF29L+SKuTSZfOA5Gj6/5I6OG/hsN1nlqfdhnE52oOmfBaWfeBzOo/sDtMPrvOlH1WRl249h1Yft1NLZjIBy55/J/h8XwPXaHH36Fys6wy+pq7CqD6fzX+Z/mdD1U8x6fDHue9kBLLyAP+sDOuj27w0EbqdFx6nj5Pjju25PhRhgIJ+Lv0jOOHQ67D5gH02cv5XffG9FwTkE6p8M5/3MFHPe3eTD8gG3hjO99BMbi3FK+U83OKc3mv9bnDDv/NZ/fZt58PRxy4XTou8MI9u8O0+Gkb+LFIr9Z0/r8yPv8i8kweWlPVZl5qhvc0rkQ1l61N7eXHOaWzsjKcMzpo+B4/GOPyN/qYW/pXBfOunIv2IXreLLceAVs+1t55vvv8RG475BX4dDDHwC+NZ9uGx27K2zDXgQn24l/mQQz990BdllJbRnoFfyfXPg43PDoHJhJJ89KfWCb928OJx41ErZpNmHRqxF/xIvPf8yCmTSX9+mAbT4wPMlNb3HZF7a5/1Y45cLnYDKe4H37D4Ajvrk3HD9sZY4lWtoee9vLzjvAo6PDj7Y5dqVbdmbcdROM/tNTMJ7+BlypH+xzxM7wo/4PwAi/pdNZ2uitZNDoHJv9FJwz5i747b/kvB8ybCj86Nsfge35XQI5r+HYXWGL8bfDL+6fD/P69IHdvrAHjBn+JIz+8SS4Uc/rI07cF07cuvh5qofecbkKzl93JJw8YCJ89Lfz01uu+bO9t8LVW+8At3x9eHoLuWXSTbDtd56Bfb5/OJw8AttP3w2Hnj4LPvfNzeGhb98EZw63P5/IbPxdgdsZ/niV/Kdgl+R2s1lw6TcvhpOguL1w5qtzoP/qYb/UP1t/xrWP7b92KJzxYfrDZD5cfepYGD0FfydeIL8TG+arFWbjcT5mAsBWA+DqO0rHYwnCt8p09IJevXtB7959WItbOns2uaVzacxVds5R8AJszNj9YR99l6rZLZ3J78/Op+C0L+IfUjxVDYAfnnsgbHLxuXDI9fLXyS7HjoKzdivO0XnPT4LfThoIx++2rlpKmFsxaZyxGz0Ex+EfXuNXCs8fvRqPF+oXPgPjn5cx+q8zAA7cfwc4Fvvkc7fuVkmdP4p9wXnqV3vB0NtvgFOueg36H6j7Re8gXHI7nH3jyzBR/+rsPwTHOOQjcPzOxS2W5Vs6h15cHDdL7e2VtXMbQq/oHx/+yOuAUd/Dn7mt7Zj498IlW8P0/70DfjJ+Fuzy9aPg+KdLt3SueSt89ISpwG9mvG9bmPTdreO2x492QB/8O+VQ+TslO8dvDsd/YQfY3qfL7oeef41u/6V3AL/1qylwI/2s4Ty0/b47whmfG2p+zgB++OMBcBtekNC81HfwYPjut/eA9z1wPRx9/nSYhudR/w02hDN+vKvOb01oMqfMuArP23M64fhfHQLH1L5hUZ5Tmsx/SEtzRnn+azi/aR8vbw5X/mFnuSB9XH4ehxx9CIzdu1+L8yPAVPx9teed+HcsXnBe/e7S74klRN085e/wtcwcOPNUvJqfrc026d+/eD9g5ux5eHLML17xmPkM/Pb8KTB1tkx40NEPtjm40cVeJ4z/7Vg8mSbBpQ/rxRUxdz5MvGsSHHJU41ua5j1+B+x3lNxKyhMBMb9Tcr9kb+UJzIOrxlwEh5wjF3tsmfkanPntv8GN3F687WnEtKtw0vuZXuwRc2fB1b+9Fg65WCZCx1mqrNkPhuAv8Mn3PAQTX1VbwnQ4Byey055fE350+iFw1y9GwgdfmwqHfvNu+cNMufr3t8M9G78XxozeFo5Ybz7ceNZVsO03H4fVPkGvxA6F7TtmwTk/uwsmanxjVoZdvnYInHXwhgCvhR9gw/2PwwWzO2CfPRpc7CHj73gGZg7eBA6iyY7YYAcY+6vdYbd13oRp5VcliVXMZEbMfBN/h3VAfzvxvzwZLnsYYLfd3xs/S1ZMvMQceIl+dFfpw3+sTnv8ZeyjH7xvk/AqdB/Y5j00eeIf58+LpVG+gH8A/G4C3DYC/wDYsbCusHS+DKO/fTdMDb+H26HjXTA4Pp+dMAvnu5lhXkJuu+J2uHTKazBPTX3XGVF/sVdi3sTbYc8f4sVe+F1Oz9uYsXKrqF7sETOffw3Owd/xe37nvjb34S34+5mXwdGXvcZ/mDLP3weHfu4KOO6y4mKPmDkNxxhzBXz0l1Penluz8WfrR/uH87gTrh5ffrfhTTj75GvhJJqT6/Z5k01gn4Fan/ISX0QHJk6miz1k4PqwO13s0QVmdo6fDIcecwGc8kB77wI7ywFr4VyFMv7mB4rz3zINL76+PRmmbr4tXHfuIXDdV9aCGVcUd1MIz8FJP30Rhh5I89KGMPTl6XDSCWPhkOv6wpFfkXfL4Omn4Lg/V++wyNJwTnkZrr4Vz9thQ+HARnenVeaUJvMf0nzOyMx/Dee35+CBR1E2H1i8+7jJWvyC5PjH9EWeVuZH/LkcfTHA8SdsC1uo6e3EL/haITyJM5+Do7sykXbOghvveFEbAMPXXxNgyLqwffxrrBNuu+wO2HPUufL5oPMfgMkvNxqkA7b/xCaw/er99PYaKbuFly5wvN9eU/MD2TkVTjt1Snw7ue+QgWnufMw9T2/licyHyU92ym2nOw6AQeF4dE6HGx6gymJsTyPmToLT/jSrmJBXHwD7aL+Tn/QLPudtYCX8g/aIgTDo6alwyFHnwn4/mwDj7c/mpH/Db5/Ei6tDRsI2dMfkgA3ha5/Ev8qefgZutFd8m2wOP/rc1rDbzlvDiQfKy+tDD/g4/HDfEbDbbh+BE3fDC57Zr8Hj2YvK9piGf8zSuzObzLwJ9tPPRVQ+T9A5GS69uROGfGho5faZlsCf/TMvxj8UNtgcjgwTJjLt5qdgYsdg2Hf7/G1EM+8aD2dPw+P1SZ28F9BqZRiyDqkwaKDmZn4FVvLJRrdy3j8QfnRs4wvcFYLwu/lJ/MO+C589n/fkFLgqvODX0Q+G4vMyfES4ykCefwZO+p/LYMTB58Ke37wBzsGrt3Dx14ypD78GM+hLYYbhPLLdQHhj3Dg4OtyCG28VHQhD9emfMekBOOV6PJfXGgwHbY9/TImZ/7Di2C3KtyjPgfEPY38rrQzb74gXPhvhH33rbAGf22FlGVPnJTuHzfj7JLiq5meOPtO320bFX3Dh1teufp5u+PbrxncXZk55MXlBiD7iMR7/qOUvd6sdA/fpQ3pwZj8Hf39cqnhk4R6eh/HPig9tAsPpHX78wz7M8eHjIvtsHn6u5sAFP78LJrb4vDnLCRttCz/ae2WY+Y/74KOfGwuHnjUJpobvhkAmXoN/9/VeF479vHxxYP8tR8IRW+HfUnc+npyL2+z/ETh+N5qXdoVj6Z2p+f3g2JN2h1E7j4B9vjASRuGvg5n/ebX0N2JXeAmm4u+aIRv3gr+fOlY+a575vF2zOaUZuTmj6fxXmd86YS5u09B18G/3CF5g06/GzswPUm5+1Fs54VMfafBu5tLFL/ia0g+O/3/DYbiZSEfjE9n8VUG8OKQTmE9ivIi7S08K+rzD3vQH34Zw7Dc3h21K5/C8mXhxeNl9sN+R58IhV9hXXkpssAOc8f82hNWeewl/2b+I5SWYOWRAgwlF+ccUuCD8FTBsa7jljP35MwJn/O+BcPH39oL7LjkK7vtu9ZveBu28A1z3k73gh18/EM7at9joGS/rhVdXt6cB8+56HG4MP0v4g3PdHw+EMbyth8AZOxYTseMsTYbuvT/c9Uc89/foBzPGT4JDjxwLR/N9mOEdqk64+peXwY6HXyzld5m3xwb3K36mOuSbGoduUNxX1X9leu1R3lFZbPgi6mU47f86YdQp+8MtP9lWPk/wg1v18wb4s6WfiThyz9benUnofA2uPm0c/OK1gfDDE8wtMvEzEVvAbpm7E2Y+fCsc+vPpMGiPD8HJXZi8s/mzJ8Mpv34Rtj/247BbK7cYdWvWxd/P68bzjD4vfspdzd/JmXzhVTJP0QsDx+MfhWofsu8I/mznoI99BMaUny/+cpdn4LTTroIRR93Q2p0v/deFM/54OFz3Y/xZ+tzqcPcN+q4UDICTzxwFZ/Dn1faH607fPP4RNv6GyTAN/5D94efWL86zgevDiRS7R/XcpXnqvgtGwdiv7w7HfKAfWvBC8tg94Pgt5sHjPC9hefFdsM16Ek8XWg/EC6cU+kzfiR98l7bweHxw+8X7PN1KfYuL1szfiMMPxvl3LM5tDcYYjheychzmw233698Hjz+tx78P7IN+O8f33+0jcBfN29jnmJ8cVMybM5+C8/8hVae7sDJsf/QouO/MneHED3TAxHETYM9RF8Bpk+hdsJdh4hQ86eY+B6OP1Hnq8MvgpPsl0zJkcPFCSl++QugHQ+MPX19YjX7Pzp6/BN4Zl4uoadf/G27ceCRcee5ecJZ+3u7ov4S/fRvPKc2om3Mazn+181uL1ORPvfhWOK1zcxhzyDt3P7Vf8LVA33fvgBNIMZFOvmQcjL6nC6d7x8ow6jt7xM9W9B+2M1x8/v5w1mfXLz4Ab5j4p3Fw2sPaKEH3AYdbKKe9PB/LHBg//rXioiozoRDTni7eGdt+p83NH6EDYJut141fGJOyMnzuoOLVc/njVJg5W/6g6Or2NGIG9hMYjtsavviGXnnebWf/2jLnbWT1deGgow+Eu/5vLzh+g0647fcTzTeJrQzH/+ooePRKW5bOZ8haZ2U49hv4h+PmA2HI5lvjH8w4ycx+Ef7+GPnmw42344Q6bEPYzbx50xI8mV0Bo6cMgB/+YH84yL5S+fgUuHp6B+yz81A1FPDE++2pMO/jH4GLv6yfGSH4I234O0Nv3yTiz735lZjPxz96fzcBru6/Fmy/8HG48Y5JcOPkN9E+Dx66H+tTwgXFisPg7feCsZ+lCx2iE67++VXwi/9osw0GjdgazsKLLAbnhn1OPBTuO31bOMZ8qVjk1Wfg6NPKd4Vk2ArPt/jZ8pfgofjRgdfglCP1xVEqXy0uOuHp16Cde0O23xHnKTuV0mc7j9JbOnlewvL4c3Cj+dgC/dH5tjB3XvGOa2W67wf7fmjd5JazLOa2zskTn+ZjPg0v/Hie1ds57Rw/88Zbi+O63wXFC8/I1KcbvKDsLLf0XWdzOOLro2DSuSNhn5XmwDnn3Ff8HTZkc7gumaew2M+1vRNsvy3+rsG/73CO3eVzO8LncGPCud1oTmlG7ZzTaP6rnd86YCX8mZ36/EvaJmbh7xOUDvPDXJc/7W4YfcmbsP12A2Dq3Tg33fEkPEQv0kx/EetTkndilyZ+wdci/UsT6eQn8/cOF9hv6dwQTjz2I3DdBaPg5PKXMvQZCLscvDuMPZO+afNAGHvE4OLCBscZPynzS/nV++C08Bm2jTaHKy+SH9xJPxkK7f9YtEIvfaWnhrd9exznHaIPTkrvx7949TaOIZsMxIlkDvz9gWXn4mLIMNqm+TD9FTUg8/iv2j4weDWUlyfC+fenn7NriTiZDYQxp5cu9pDxNz4F0+xnIpQw8cK+u5Ym3nD8ZsH9j4ffp/Nh4iP4u2SVgbCN3uZZn48XA//B/Xr+OThpzAQ4jspV9DzMh6vPwfo1mS/6WAEYevC+cNbOOol0zoLJlc9kp9hv6TzowBFw1k8OhFu+v62Zh4T+m2wNx3/3ELjvksPhvl+MhCPCN3oSOE/Zz5S1S/+BfWBITVmcT2VOvHACXM1XWfhH4+gDYRL9gXvJKBjzAXa/rUwe/1z8w7v/5mt18Y9sc1vnw8/A+Lmz4J6JMvfy7ZxcM6yUP6ZUBq1SeoKd7sXqm8OHN0flqQp/n26Oz/e0F2F87vPZ7wjrw/bDUF6aZV4smgdz6T2ENd7Fc1PdnNKMRnNO7fzXcH5bF7beDGXKy8Xvucdf5M/cb7+pvkvYKH/aa5iHf89fpvPUmElwNT0PU6Zi/QG4zV5HLkX8gq8NaCJt/VbCNeFIvkWFyq5wxG548ZO8JT2f/7fR0ZdMhRnhb52VBsD2++4LJ+6g7Toefzn+36yhH9gchmu/fRcW/yMJqK4xliEbhItWul3mgeLziHiyTnzgueID3u3QzvbYV0PMbQEzxz8l31hKaJ7d1sl3Tkk+Ozn1ieJVzHlvacVxljTjb4Btv3oFnHbJA/wO0tWXXAWjr8IfkmGD5Y+rEe+FYzeSd+NPumoqTH31ORh/xwQ47bcPFK+qdoGJZ50Lm33qsupXOrcCb1MnXPDzK+AXN06CG2+8A477E3Y0eAPYBSehGXc904XPRLwGN9Jk9o8+sM+BG0HfKfQqpRZ6J61zKtxwV/UzEfQFUTTxTt1sKBy58Sw8NiFPX9XU43fjOeN4W68+fxychpPxkD2H8wfiG+cPhiPK76yeSJMvfcsi1pfCt58tH9CXGuwNx5cuyOsItypy+dxI2GXzAelF1rS74ZDjboAb4zdBdOBF4gg48WvFrZfto59/YVaGUd88FG45W8sf9oUxX/4IjP3VKGzvCjVfONgCL8PE+N3nA2H3HXS/8LSfy7c9C/MWmIllKTHvyTvgW1eE22vx4nP7rr8UWtzW+TL8/a6pcBvfBaS3cyLxM7DE8PfCleG4Yrny2yPhR9/eH677w6Fw1t7tvr3vLMvwt9V+81r4xVXyO/KCs3Dewt+lg4bLiwvbfAJ/Xjteg1O+fQNcgH/rzXhyKtx41U1wys2LcwX4FJx26B9hs2+28A5/hX6w7wHrwyCcSw795QTZ5l/eDmfi5uz2gU1q55RmNJtz8vNfk/ktbOv0KTCat3UCnDRmKkzDfj73Mfo7tUn+9nul89SV+Hc+/X6mb/N9G+8G8gu+tqDPA4yEfZKXC7rItPvgF3+fA7ddeCvs+Bn6APy1cNKvb4CTfnYZfOtujUHs53wi6/SLPwBT/3I9HPozydvx208Vf2ROmwK/zd2jjxdko8L2Pz0F9vvvK3jc4/77Mjjke9fyP43c9tQ2f3jb2Z4hRSzcPzHG7vkz/AWkZoo9ZRz+1G+9Ybz9lbZ1z6Mug9G4raP/ZyzseUlxwTf1ytvhAnNLmOMsMYasC7v0mQWXXXwfvzI3+rKXof+HR8Itp4TPueJFB31GZvtecMP5t8Keh18Lh/5mCkzE3xWL884EvzBiXxxpC9ymH+wKJ27yJlzw+wlw3G9xoltvKJz1E/o66efg/Gte68JnIp6DG/5BfxjPkXfPwjtqVK55Dubd8RBcMLv6mYgZ9z/HXx4x7+GpMNrmxFc1aVs/AkcMpm9mxON7xWsw6GM7wMWfkX6a5ztZ8A+RY04wnz3vMvPhtovxfJ72DBx33Fj5UjGap2jOOE3+3QKzwYA27+ZYHw76RHhBbw6cib/TeS74Nf78HIVz0Q9vgI+OGgujx+tF5ip9ilfpn54M+x05FnY89Ib4QmOegeazR9NhdJjrjrsATtIvOSFuvHRC7Yszfc27YJMvGwcfxXG3/WUL72VOmSzzOZVTL4Bt6bORuq2Ddh4Jx28t9S5hbuu87U8T4UaqhG/nRPruOBwOCgfr/vtgx+Nkv2k7djwe/xg+/mIYcXz6LcLO8s+gYevCkFkvwjn6+/mUm9+CbT67K1x3tP5kDsHfq6dvi39TPQen4d96Ox5/K3zrCvw7K/85npbpiz8ifeVj6W3T9wO7w5VfXx/63z9Jtnl8L9jn2L1gzIf71M4pzWg8Z9TNf43nN4K2dezR+Pf4eNrWSXBV52A48Qcf136a5y8L+P/hy2L/D5/8T57kCjz5nzrQ0v/hKzNtHF7knPVa8Q5YhkEfGAlXnjQic9vVa3DpNy+Dk8qf7+u/Lowa8SJcoPfp1/4/ltL2J3Tg/v4C93eD6v8lCseg+j+c+rSxPc/BL754LZxZvlMVx91n+7fgav2SgXBM+R9In2YuBgP9B8D2/V+D8TxrZZ4jx3GcJcyy/X/4qnNO+fdnmBNq/w9fmflT4JQv3QEXNPr22I6V4ZgfjYLj6faxMub/8FX+N13ndLj0e+PgpEm5iQhg6B72szdT4ZRRt+IfgNxQOmDU9w+HIx8u/b86O+dNugl2/M5Tlflj+B7rQ9/rn5F/g6L/93Vqbr7T/6WVfNvpKsX/iEyw/4evBvps5NjvFbfL1s2xhH2Oyvs1+U9jYb8rwjuu+Lf8/rvDLV/Qz1wiMx+4CQ75/lP5bxTvP7D6+VvHcboN/n/4liT0v0XMl7h0hSF7HwiTLtoXzvrshrDbJn2SF1non8IecexecN2JuYs9YgAcdMpe8MMd9f9+4B8bw3ccARefuRecfMjmsL2+clH7wg1u/5V/3BVOpvwQQ/+Ulfr4o1zstUc727MuHP+DHWDUBjrjYezQYRvCGWceAmM+s0mM7UufkEXos5PX/XgE7LNJh7xjQvHvG459Hwgnf2yAjievMjmO4zgF6WfPu0CfzeHkcw+Hu36yLRyz4wAYurr5RbtSH5wzhsNZZ3w6f7HXjI7BcND3D4VbRm+YfGkZ/eP1I0bvD1cmn70ZCsd/ezjsFq5Lab5634bwwTXzF4uREbvCdScNjf9ovO9g7PvrB2LfH4JjP6afD8S+ahmxI87Rg2GIzpP8bxP2XAsGFddazcE5a9Am68KJJ+6f/WxkVyhu6ySK2zkD/bfG/a6b4//XL/YcZ0XE3+FzHMdxnBZY9t7hcxzHcZwCf4fPcRzHcRzHcRxnBcMv+BzHcRzHcRzHcbopfsHnOI7jOI7jOI7TTfELPsdxHMdxHMdxnG6KX/A5juM4juM4juN0U/yCz3Ecx3Ecx3Ecp5viF3yO4ziO4ziO4zjdFL/gcxzHcRzHcRzH6ab4BZ/jOI7jOI7jOE43xS/4HMdxHMdxHMdxuil+wec4juM4juM4jtNN8Qs+x3Ecx3Ecx3Gcbopf8DmO4ziO4ziO43RT/ILPcRzHcRzHcRynm+IXfI7jOI7jOI7jON0Uv+BzHMdxHMdxHMfppvgFn+M4juM4juM4TjfFL/gcx3Ecx3Ecx3G6KX7B5ziO4ziO4ziO003xCz7HcRzHcRzHcZxuil/wOY7jOI7jOI7jdFP8gs9xHMdxHMdxHKeb4hd8juM4juM4juM43RS/4HMcx3Ecx3Ecx+mm+AWf4ziO4ziO4zhON8Uv+BzHcRzHcRzHcbopfsHnOI7jOI7jOI7TTfELPsdxHMdxHMdxnG6KX/A5juM4juM4juN0U/yCz3Ecx3Ecx3Ecp5viF3yO4ziO4ziO4zjdFL/gcxzHcRzHcRzH6ab4BZ/jOI7jOI7jOE43xS/4HMdx2uIl+NVFj8HBFz0BVz+vJmXC38iO5W8vqaUZoa/H4FeT1QSz4PIry7alTW47HMdxnOWVZ++Zyr/TD7/5JVigNub55+B4/n0/FS4vzWF1hL4OvvI5eFZtRT9PwwQ1LXUmPy3b8XaO2U3wCz7HcZwu0Ql//gdOfp3adBzHcZxljNkzXoMzJ8/VlrOi4hd8juM4XeXN2XD6vTO1saToBwfstylc8ulN4avD1eQ4juM4XWIR3PnQizDhDW0uKdZZF36B89Qln94ARqrJWXbpMWPOokVaX25YpJu8aNFCWLhwIay9am9uO47jLH3o9sdX4U5t4a9R2H3bjeHITXryLZ1jXkbTwNXhko+vCTB/Ftx55ww4e0YnzKZfWx09YZsha8BXP7g6rMK3br4AF9kXXldaBX6xXz+YoPad3qsXfaV+evftDR/dZE04csSqnBbG3WnzNWHIC6/AX15fyLfwbLb+mnDyjqsD/4Z8/RW4/O5Xo693rw7YefPB8GXuo9inOKZT4YHHnoZeHb2gV+9e0Lt3H9ZevXpBR0cH9OzZE3r0kNdQe/TowepzleM47xR0G+bx/1moLWTVfvCHT6wNA+hWzNtmw7PQEz69y1A4YB30NZof6DbKf8/jLgI8T6we+ukLo8NFX6mfVVbpAwdsuRbss9FK2ApzXk84YJv+8Nqjr8MdOKEtwN+bOw1bG7763lUwphOm//tZGPPoPHjyLeoQYPBqq8BXd14XNqOpKm6LGdNJqJun/B0+x3GcxWIR3PDAtMyrpwtgwt9fgF9N14s9onMhTPzPS3DqhFlqaIHOmXD59Wk/C+YtgBseQlvpNp07p7wEF+lESzz6zCv6OcOZcNEtLye+BW91wi3UxyPz1eI4juN0W96YBT++J3dHyhKaH954CX71t7Sf2bPnw58nPAeXP2suPGEhXD7xNbiFLvaouWgh3Dn5ZZjQieNOmgbHTS4u9ojpr8+Gb9/yfPHZQadL+AWf4zhOFxn57lVgI6q8NQ9+d89LMJutgd4wcsTq8Pn3rgXnHrApXHLQu+G768iv3CdffAOm862bq8NObJFXTC/Zb11YT9uBBQ+9Che9SbUOOOCD78Z+1oPRA+kdJLpNZwY8SK5AR2/4/I4bwyUfXRU2Y8NCmPYqaX/41Ij+8OXt14ELDsJxDlgXjlyN7NjHs0v6llTHcRxnmWGlleDTPGfg3POfl+DyyneKNZkfhm8Av3i3Xi7QXSg1Hzd48oHX4U66UOvVF766G85DBwyCA95Fnk64aOJ0eI2qgT4rwTf3HAoXbN0X6H09nOng2ek4a45YA0YPXR1+8gnM/zT6P7ASDCb3m3PgfvQ7Xccv+BzHcbpI79XWhq++u4Prs19+FX5Ht3Naei2C6U/MgC9e/hgcfOl/YMwMfZVzob6y2QIPztBXWNfoB59+dx+8qHsXjBz+Lrkw7JwPj5pvWVtvyBqwz/q4PYNXhffRHTSG+R0LYeK/n4dRl+K2XP4cXBTekbQvvDqO4zjdjA4Y+cEBsFMvquPF10N0G2bK4s8Pb8CDr0jweuvhWGvgPNRnAHx6I5yziDfmwxSpMSM3XQ+2Wa0n9H7Pu2AbtTGdeGH65hswZtwT/C2ih02cB/yaJV58LvAvSFss/ILPcRyny/SE9T64LoxeQ149Teh8Bc6+7TW4ASfOnd+7Fvxh97Xhm+vIxeHSI7MdxMsvwI8nvAET5vWGz2+/Nm7LWnDkajWxjuM4Tvdi1TXhqx9cpXIHCfMOzA+9O3KXHwvhwTtegDHPL4Deg1aHn+y+Hvxi23fJXTTOYuMXfI7jOIvFSjByh/DqqWH6XHiQP4fQARuttyoMWKUnTH9TXy5dMB+mvCLVwGuzZ8Fr07BoO7DlIH2F9JVZcNEznXgh+SZMmPymvELb0Qc2ow/cN+PF+fAoaQduy7r9YMDKC2HaXP1A4Ox58CTfMiq8Nm8uwHx/KdVxHKdbsd7acILekZLQxvwACzth+quz4Nlw50lkVdhyDbmkePbZ12DC6zjXzX8NLnpS41btA5tLrQGz4dHXZNzVB+CF3up9oc/Mt/TdyEUw5UX7oYmFMPuNhTiV+i0qreIXfM7bwqJ582HRm3OlzJkHnY/+Bxa9/Lp6C/7x6rPwZucCmI2FdD7+cnGcZR569XTrlfSzCMrgvrA5z60L4OzrpvJtMr+a3UNvxVwAD75AlQ5YXa/nHpz6AnzxzhlwR+lzCr23WB0+rZ+DuPyuJ+DgS5+FMS/LpLjZRmvAllxrwlq95TN98+fCqXR76ZUz4IaFPWEA2ebOhYmv94HBegvog1OegYOveQGelKbjrFAsmqtz1ew5Lc1Vb7w1n+eruQvNt0w4zjIJ3ZGyFhwpX+5c0HR+wOlsZb1QxJgf3/ACHP/v6me/N9p6NXnh8615MIbnvBlwOV8s9oDd3zNY+mvIKrBZf3ln8cFHn4WDL3oCvjh5AQzguWkRTJwxB2C1Xvou5QL43TVT4b8mVH82nTx+wecsMWiSpG8hXPT6G9A55SlYcMu9MO+cK2HOd34Db37tZzD7iJPhjU+Nhlm7fRlmH/wNmHf2lRxHPPXma3DExKthlzvHwtC/nQHvu/Us+Nidf4ZP3XspHPPAtfDLqRPgmhcegwdnzoBXF8yFzkULebJduPz9VxGnu7LJevAD++ppx0D4/Lbvgi31nb/Bq74LvrvrevHD8/Lbd3U44D19YbCaVlkFLwDLr3F09IcD9hgEXx7YAatoHP1bht23WAd+sG1yiVnPwLXgqzSObt56A/vDD/YaBHvwhWQP6I1j7LOZ2Q7ctlY/Y+g4yxXzFsCiWbNxruqERa/Ngs6Hn4QFfxsP8866XOaq43GuOhznqgNPaGmuev/f/wi74lx10L2XwdETr4HTH78H/vr8FJyrpsPrC/CCEeeoef7CpbPMsArs/uHV0ztSms4P8mUqnw8Xih09YbOVelbnCHrh8+NrwAGr9pR/BYTQv2X4/Mgh/G+LmtMTttxuIByAF32U37tPbzjgfTiv4tzEMx11sd4a8OnB2n+PHjgn+t+AreL/h8/pGvPmA+AP48JnZ0DnpMfgrbsm4oT4H1j4+DOwaG76/1oa0fe4T0PfT+8BhzxxE1z67GS1NuddHb1heL9B8N7VBsNugzeGDwxYFzZaZQC/2tq7Rwes1FG+v85xHGfx8P/Dt/xBL0T2WLkvLHzqOXjrgSnQed9kftdu4eNP87t5rbK4c9X7BqwNHx20Ibx/wDowdJXVYU7nW+xzHMdZktTNU37B57REmDTp1dC3bvsnX+C9NfERoG8bXBw6Nt0A+px9MvS96zdq6To98Y+sHdZYHz40cAP4xNqbwsg11oPX5s+FNfqsrBGO4zhdxy/4lm3oHTt4qxN6DFyNX4hccPO90PnPyfDW/ThXLeafOkt+rhoCuw0eCvvgXLXVamvxu4Gr4AVg757mLgHHcZw28Qs+p2341c8Fb8Fbt/8T5l9zO7x15wM4mS7Zzyn0XGsgrHrdb6DnDT9Vy5KDJs7dB28Mo4aMgD3WGgq98I+xVXvpB6Ycx3HaxC/4lj34owRzsNC/OrlpAizA+eqtOyfyhd+SZKnOVXje7I5z1H7rvAf2XXsz6MDzp3/vvjxnOY7jtINf8DktQR9UJ+gzDQv+cjO8dd9D3F5aLM1JtAy98/fljd4Pn8AJdREu/Xv1VY/jOE5z/IJvGQEv7hbNfIPeKoMFV90OC264C+eq1m+z7Apv91x1xLu3hgPWHcb/aMVfqHQcp1X8gs+ph27LxGP51oQHYf6F1/JtMG8XPddaAyfR374tk6jlk+tsDl/deDvYec0NeEL1V1Idx2mGX/C9syx6403o0bcPLLjrAVhw6d/4i8HeLt7Juep/Nt0BPrD6uj5POY7TFL/gc6q81QmL5s+H+RffCPPHXgMLX3hJHW8fPQfjJHr92z+JBtZfuT98AyfTwzbYCvr07ODiOI6Twy/43hn4zhOcr+adPw4WXPY3nKteVs/bxzs9Vw3Buepbm+0En19/BH9coa/PVY7jZKibp/zlohWR+Qtg4Ysvw5wfnQ0z3/9ZmPvT896Ri71lgWfmzISv/Pt66HfNT+Ckh2+FF+a+4f9PyXEcZxmA/g/ewmkvwtzTzoGZ238e5p1x0TtysbcsMA3nqmP/dS3PVd986GZ4bu4smP1W698y6jjOio1f8K1A0KukC59+Ht781q9h1oePgvn/d516HOL0x+6Bda7/BU+qT895nf+ZruM4jvP2whd6Tz0Hc07CuerjX4b5l92kHof4xdQJsN71v4QjJ14DT8x+lf83reM4TiP8gm8FgL6qeuEzL8Cc7/0OZu1+LCwYd4d63nnCLU/LEuf+51/w7ht+BV9+YBy/ijrHL/wcx3GWOvQZvYXPToc53/0NzNrzv2DBdXep551nWZyrLn72If7n78f96zp+kdIv/BzHqcMv+Loz8xbwu3pzf3MxzNrtGFhwze3qcFrh/Gcm8auoP370bv4nuY7jOM5SYM48vNjDuep/L4RZu34J56pl50XJBPlo5jLHhdMe5Bcpv/fIbXxnit+d4jhOGb/g667gxd78K2+BWbscCfPPH6fGZZRldBINfH/K7bDWdWPgL889DPMXLtn/7eQsRa4eBT16DIcxj2ubeRLGjOjBX6pBZfjPnlS75Ul48meUW8T1OPRa9aU8+bPh6B8F4n0Srj2U2s36b8a1MKrLuYsH70/NvjrOUiHOVUcs+3PVMs6vpt4L61z3c7h42kP+IuVyyrWHNps/ZH7IzjM851mfmf8a+VpG5893Yo6g7R8xBrfA6Sp+wdfNoH9C2/nIk/DGYd/hWzjD/9VbZllOviN21lvz4cB7L4MP3zkWHnvjFZj9lr+CukxDk8O3AD67pbaVaw/dGE7YZhzfnrVo0TjY5hsbw6ir1RnZCB6eBDCOYyTus3/euxr3+BjYeyzAMG0SD8OR8ETIe+x0gG/s3eakShPq3gBXLYLJX99IbY7T/Vg0d34xV536B/kH6ssyy9FcdeTEq+Fjd/0Z/vX6i/DivNnqcZZ16GJvbwjzU6M54LNmfirFfb7IX7RoMozeRO1EI18L0Px59qFPwKKxe6nFWZ7wC77uQmcnfcgA5v3uUnhj//8HnQ9MUceyznIyiyr3vDINNrvpN/hH/D2wEI+3syxyLYzaFy/YJo0CeFBNzJPw8EScKg8Kk9Ve8IOfDoMLL62+WrnX2AvQGxgG78MLx4n4x2kBXpjtfzYc+aMjtU1sBKPHjsa1sskw2AYvAe9/WNstgX1MWgQX7KPN5RT6w6V6Ie04CP3epLnqzEt8rlqK0Fy19a1/8LlqeeHxMXDCxNPhiWYXU48/DDiNZXnykTpPY1+r7DW2G7wQSS8Gr6B3sfgFXzdg0SuvQ+eDU3nynHfW5Wp1liYnP3IbbPP3s+DfM6fDzLfmqdVZNtgLLlhkL9gCePH1IF682bfkiIkPN75N5PHL4WzMO3L/YqJ78md7w9mHjoPR5b4sV18AF8JnYVTm4k0uiMLtpeHWmvR202JSolt4RsG19pac0q0t9jag4hZTBP+IGI6x1/Ktp+pPJjt7e9BwuBwvUQtK22NuAaJbP4f/7NrELxd4krP3nwEu3NfklG8n8ttGV0jojpPOh3Cu2u94mPeHv6jVWZr87LF7YJtbz4KHZs7wf+OwDPPkFWfDw/jr9/L4O7XRLZcXwt7x96n5fU/8eW+1Yyn/nm3kU+R3O308QeLCC3fJHGPmH5nL0nkk2e7S7/7ihcBm81o6/4x65H3J3TTpnGf6bTDn8UcW9r0wHge5FdZuO5XS8exG+AXf8syiRfytZvSP09/49P9A55Sn1OG8Hfz79Rdhq1t+D+f951/+eYnlgr1g1OcfhrOvCFPKk3D52IcBthlWvCtniBPKpvfD6fb2F76V80gYl32l00xS33ofPJG98BQu3HdvgCuKW2vi7TL0c73oCTh9or2NFCf4S0cVPjgB9tbPbdAktje9Msy+RfDETyfC3nbifPAEjC5uYy1uT6Vt3RsujLf5jAMYi5NhRN5tFB/1C3DCqcVU+PA3TtDtx3LVZ3F/aKKkHNy+LQE+exX5aN9wnG9NhNMfK/ryW4JWMDoX8sUefUbvjYO+Dp2P/kcdztvBv2e+CFve8js47+l/wVyfq5Zd/ny2+Z26DZywaebiY5PRMDn8HsUy7vM4N+jv+42+Prn4Hau/68Pn+xr5yjz8jY3hgoMklu424TnG3Go6bpti/iEu3PcCGKU+nif21/mHLr72Nb/7HzsdJu5rLwjr5zX++AVawrw2atIJYG+WoXcbJQ8LzT/faj7n0TF44qd42ahzHr1b+eTPToCJPw3zLpX6OXt5xy/4llMWzV8Ai2a+AW9+/Rcw91f2j7TlDL7TZBn/1pYm/PekG+Dgf1wGb/irp8s8e42Vz+3JK3l7w/14sVdHMaGMggswXiZHvHihWzmvMLduJpiLpCuAX4UtLtpShv10nPkMxbVwwZ9lopVtw8nuQXsb6TA4/bthGtoIDjh0GDw8iaY/uWj97I+K7dlo/yNh2INnw+VxUv0snB4vTuX2VEHe8Sz3a7Gvom78jdK9qZ8/vdj+YemrrynUL/4RsCn24+/srXAsmjtP5qoTfg5zf3mBWpdDusFcddy/r4eDfK5adrG/U/cZhb+5J8LDte/yCXt993T8fX9/cjEkyEcWZJ4o08iH4AVR8bECfWFU3xWjQndw2NxhP/1BvEiS+Ue2h9+1tPu0yQFw5Jb2Rdd0/hkWbzDRj1+YeW2vgz6rNYHfrdPt4XftEurmvCq0vcDzbvd9Zy/gF3zLIfT11Z0PPg5vfPJ4eOvv96l1eaV7fLbgmhceg/fc/Fv+kLx/ocuyDN3uGS7kJsMonJaKz/TVYSbHq7+NF2IPy8ULTTSb0quOdHtN5vabTUbD6Z8vf/avETj52XfBsLyTn5eovnNYf0nXjPjq8kEX8HGre2XZ6V4sehPnqkk4V+3nc9Wygp2r/FunlzGafbzgHUTu2DDlnbxL4+pRsPE3tim+uOaq9GKwLeI7pvLCbnf+JlC/4FvOWDTrTf5/erNHfQsWvviyWp1lgWfnzOIPyV/5wiPwmv8D3GUfnDT2/nP+M3Yp18K3v/EwDBuBFzz7XJBOeo+djpdp9I1pmW88ow/h/xlgm/e0ctEmt5vaWyZTqrei8vbou3L2dhZ+VXXLI+GA8vZUoFc+M7e4KnyBG293TX1dho4fTs4Pj728206qjkC3cC64GueqQ78NC6e/olZnWSDMVZc/94h/HGEZYaOvnw6fffAE+LbeEUK3Gl6Y+T3+5OPpb85rTz0BHv78KJxBnkSfGhmZt+QFzUa+ZlTnmDL297nMP3LHB7/b9+cTihdDM5+HzyPv9tkvVLv20uJdPP4CGh2DsL6uQy8Gj8PnwN4d073wC77lCPraavpmszmn/E4t3YBu+OVhn7vvSvj+lDv8A/LLIvYD4rWfsSt/iFs+59b03Tb6vILN2/QEgJ8+0fI3bu41Vj63V4xrbwcdBttMCj75bEP4DCG9e0afqdhYc/iVz0l1t5xa6PbT9BZXOLR4pZRuf6XPPuR8jdE/EOKXtqQfvu9Bn+movSXW6RbMmw/zfnMx/2ugbkM3nKs+c9/l8EOcq+b5O33LAHjBwZ9xk9+Ttb/Hr0jnCP5snb7bdvn+hZ1/Z19VfONzI18zynMMFXuXxrBt7o9fIrPxN6D4/U7vnvFnETUP58Rtrmrt30GU58MLRtCLq8JGXx/Hn/cL22N9zZCLUOmX9iG5NRSPy8Tkoxbdix4z5ixa7n6N0Svrogth4cKFsPaqvbndrcF9fnP0z2HBdXeqoXvQY43VoN/Nf4Ce1/9ELd2HQ9bbAv7vAwcs55/6cN556AL0BHjfY61NlM7S44HHnoZeHb2gV+9e0Lt3H9ZevXpBR0cH9OzZE/9gkNdQ6Y8HYoWbq3R/3xw9Buequ7jeXfC5ynGq0Oe8TxjxxPL/7xq6EXXzlL/DtxxA/6B29hHf63YXewL+gdBNZ5mLn30Idr3rfP9WNMdxuj2LFrzFX9Ay+4iTu93FntD95yp/p89xui9+wbeMs2jWbJj9+ZPgrfH/VkuL/PDXsNrDv4aVtQlfOBX6P3wF2qT0+6HaI/8F/aK/yFt5nNrG/ZdaKM70u7jIC8LdlltmPAk73/EneH2B/68+x3G6KZ0LAd54E2Yf+h2cqyapsQXK85Sdh+49Ffqq1RLnJBOz1OcpYgWYq3a6/TyY5R9FcJxuiV/wLassWgSLXpsFsz93En8jZ1vQJHrAEG0IfT+yMfSYNQnmDtsfXscy6yR1KCuP2xV6qn/uhNWhD0+k/wW9Np4G84fdBAs3fg9Pnn3P+yD0mHATzJE0pwXue+052OmO8+CV+X7UnK5AHyb32zmdZZSFOFe9jnPVF77T3lyVmad4HnriJpyjcM7pNwL6ZF6Y7LUxDnm5zGOvb/ddmOfz1BKD5qodbj8XXvcvHXNahP59kd/OuXzgF3zLInSxN5Pe2ft2+/+glt7JOwDgrQmz1SD0HLQKAE6gKzV45TQw79lXMXb1zMnxX9Bn5Kuw4LC/attplQdnTocP3fEneNUnUsdxugs8V70hF3uPPa3GFsjOU3ox98BvsP4bmJV5YRK+sBbfVdnzAHlHr3qnCuHz1OJAc9WOt5/nd6U4TjfDL/iWNWgCfXMuzD7su9D5eBsTaOBP34WZw74C6afGPokXfNj1BPwlPuw89I2Avud9Un3CnL3lFVW+IPz46nr3ym/grSeGQJ+H6VXXRwDG7Qpw+U3Q895Gk227dPP7ZAwPzZoBH7lzrP/TW8dxugU8Vx1Oc9UzammR7DxFzIYeH5f5JfvC5Gar4wUfvZu3P7x++TS88KPbNt+OeYpYseaqXe78E8zu9P8p6zjdBb/gW5agbzjrXAizv3gqdLb8z5pb4a8we7v9YSa/4vlXWDgDoMeg9Faa8Ioq3ybzt1fjZ9Pn7K22S9aC3oMmwXzYFXrBJJhLk+3HG79T2BIrzhzK0D+73f3uC6Fz0UK1OI7jLId0dsLso2muekoNS4JVYNHfaM7JvzAJJ30FfV+RWzUffRWnj9Wh5xfehnmKWAHnqt3uugDe8rnKcboFfsG3LLEAJ9CvnAad9z+ihiWFfBC+P0+e+m7fjGniUvqedz6ED8+vvDVeDD7xSPL5h5UPHoETMX1ewllc7n7lGdhvwiV40beC/QXhOE734K23YPZxOFdNXJJz1TRYOAugx3qlizyDnafk3b5XYeGf2MX4PLVkoblqf5yrFvi3dzrOco9f8C0jLJozD+b84A/w1t/vU8uS5Dcw6/Jp0GPkYThZHsavfM6jd/v4G9LOh1W+ANi+BxYC3RZzBfShD8DvTZ+jUL5wqrxqSp+nOOkmfuV1pQOGwMIlNrGueP/955oXHoMvPTDOXz11HGe5YtEbb8KcU36/FOYquhPlJljUcJ66FN6aJfMUfeHLwsv13T5iqc9TxIo5Vx3zr+v83ws5znKO/+P1ZQD6P3vzzx8Hc8eMVcuKQ8+1BkLfS34Cfe/+rVpWLH713j3guI23xT8jVrw/JBxneWNF/8fr9G+C5v/5Gpj764vUsuKwos9Vp7xnF/j6pjvAynj+O46z7OL/eH1ZpbMTOu99cIW82CN6bbcF/5G00xobqGXF4qv/vh7Gv/KsthzHcZZR5i+AtybgXLUCXuwRK/pcdfIjt8EtLz3pnz93nOUUv+B7h1n44isw+79+pK0Vi45tt4A+n/8E9B60Oox5766wVf+11LNiQf+u4fm5b2jLcRxn2WPh9FfhzeN/pq0VC5+rhP3HXwLT5szSluM4yxN+S+c7zBsHngCdD03VVjejZ0/oeM+G0HOT9aHXlptCzw3XgR5rDYSeq/eHHqutCgtnvgE911xdgwFemv8mrNrRB16ePween/cGTJ39Cjz6xivw2Bsvw0OzXoJ/vf5Ct/2ik/cNWAf++eGjtOU4zrLIinxLZ/eeq3rgXLURz1UdG64LPTceAj3XXxt6rDkAeg7oVztXkb6Ac9XjNE/NftXnKsdx3nHq5im/4HuHoC9pmfuz82D+/12vlm5An97Q64Pvhd4fGwm9ttuSJ0x4qxPtXb/n/83OBTCn8y3+hNtqvfviRDodbp7xJNz28n/g5ulPwtyF3eeD5F/c8H1w2hYfg9V7r6QWx3GWJVbIC75582HOT3GuuvA6NXQDdK7q9YEtoNeOW0PHpu/GOXkuPlH43K3cF/4/e3cCGEV5twH8yX2HQEi4whluBA2iIIjKISAIooK0IlhBW7VapYC1ivddoR61aqtARbEfSCuCoCCHgCAoEgpyE4EQroRAyEHu8L3vzLu7s5vdZHPsmeenQ+bY3czObuY///ca8SGrBzovt1TEdBGPQsT3IDY4XCSA2VgjYtTXmWl+Gate6j4ITUMj1Roi8hZM+LxJWRlK1/6Ai4/6fvOYgOhIhAy7BqHjb0RQr85an0SIL5crnS8t0oaJjhfBZv3Zo/h3xs/4z8n9uCDW+7rl/X6F4c2SEaIuHInIezS4hK+8AqXfbsfFh15RK3xXQIyIVTdeg5CxgxB8ZTdcyi8EIsMRUIvkribOlRSiUUg4Vpw5hC9OHfCbWPV53zswLLEDIoN8t9aayB8x4fMiFemnkT/mEVwqLlFrfE/wwN4Im3ILgvv21C4KalMiWl9OF+WjWXgUlp06hHeP/IjVmb+oLb4nOjgU6cMfYS0fkRdqaAnfpQt5yBvyO1wqMN6V1bcED0hB2N2jEXztFVrMDQivl9uw11hReSnOlFxEm4hYLDz+Mz4+vsunY1WMiFVHh/0BTUK1uyISkZdgwudFyn7cg4LJs9SSbwmdMAxhvx2HwITGLq/Jq40LpcXIKinAawe34MNjqWqtbxnbogsW9rmVJadEXqYhJXyXLhah8E9vonTNNrXGt4SOG4qw309AYHyc18WqM8UFsvUozpcU4q+Ht/p0rPr4yrFaQSUReQdHcYrtxjxAdgRHlG+VioXeORKx3/0L4X+eisCWCV6Z7Emyn1/HqCZ4sfsgnBwxDQ+076O2+I6lpw5gXdZRtURE5F6XyspRIS4afDHZC/3VCD1WzboPgc2bemWsahYWheZi6hQdjz93HqDVlPlqrFqTdQRll3irBiJvxxo+N5P7GyDvvbd1Nwpfm4+KtAy1xTuFjOiP8Md+gwA5sqaHmsLURWZxgTbwy2N71uKzE3vVWu8n+3ycGPEooljLR+Q1GkoNX8Wpsyh88m8o+36XWuP9QoaLWDVjMgKaNEJApG81iZf9/DJLClBWcQnPH9joU7EqTsSqDMYqIq/hME49NuvZZ9VjfNAlLaBGh3qu/5iz5H6WlJTg7NmzyL94ETGdOyB8wnCtj0T5z4fVo7xHYIdWiPzLNIROHIlAGUDFl8UXRQWHagFpcEJ7DEloh+05p7ShtL1dcUWZdhFwfdM2CAv0zWNP5G9On7ugJXaBQYF6kid+astashdgTvRMPy18J1ZJl87nonzbblQcOanWeK/A9iJWvfaoiFWjENg0DgFeWKNXnQiRLMkRL+WI1MObdcDA+DbYlZvpE7FKjj4qm6gOSmjLWEXkBRzGKbWdXKysrAynTp1CcXGxNqWfyMC5/DyET5+MqI9fRGBya/VIzwubMhYxX/5NG7Y6wMeanjoSHxqBa5q0xt4h92Nacl+11ru9f/Qn/FKQo5aIiNwjsFUiQieNVkveSw7GErPibwiSsSra92NV28hGaBPRCFc0ao49PhSr5h5LxfHCXLVERN6ICZ8byJLd7OxstWSRm5uLY1lnUNajA2KWv4Ww341TWzwjsFk8ouY+q3V0hyyhDvKN0mhnyVHFAsR/s7oMxLfXTkariBi1xXs9tOsrFJSXqiUiIteRzU5lS5SLxUUIuKIzYtb8A8H9L1dbvYdtrPLFWr2qdIiKExdnAZjWsS+W9r0DST4Qq363c4Vf3WuQyN8w4XODoqIibXLk9JkzyDp7FqH33Yboz/+KoCu6qC3uE3z9lYj+4k3tRrS+1v+hpuQw0tc0ScLuwb/DqGad1Frv9F32cazLOqKWiIhcQxZMyjh18uRJZGZm4vjpU7jYKBKR7/wZkW/O1AdA8QJarFomYlXfngiIiVJr/VPriEboEh2P7Tfc5xOxarOYiMg7MeFzg3Pnzqk5xwoKCpCedQbFrRMR/dELCJ95t9riemH33IKot/6EgEbRXjv6Zn0LDQxC45AILL76djzq5c1m/rj7G5SLizEiIleR/Q4vXLiglnSyz3nG2Uxcuq63VtsXdr9nW6GE/WYMIt96DAGxIlYFNYzLl64xTbVb9Hx61a1eH6se2LmSsYrIS3HQFheTiVxeXp5aql7BxYsoKi1FdEp3hN8xDBVHT6Ii/ZTaWv8inn0AoZNvRkB4w7yPTohI/AbEt0Z8aKTX3gT3XGmhFvR7xiaqNUTkCf48aIuMU/ZildzvvIJ8lFWUI6rfFQgTcelSRiYqjpxQj3CPiCfvRegkEav8vAWKPWEiTskBUbrExGu1ft4cq3o1SkT3mAS1hojcjYO2eMj58+fVnPNksxpZqlogm9O8ORMRL/weARH1H+RkSWnorYPEa/ve7Rbqk+zbJzvHz0vx3kEKHtuzRl4yqiUiovplW7tnKz8/H8czT6MgNgIRs/+IqPdnIbBdS7XVtWQcDLltCAJiItWahql9ZBx+1aoH5vX23lg1bfdqxioiL8T78LmI3EdZuyebxNSFvHdGs0aNEVxWjsIXP0Dpyu/UlrqJfPcJhMjO+GENs2bPHnm/Pnkj2YnbP1drvMv/XXUbJohgT44VFhZqg06YzhHknWQNWGhoKCIifGtkRX+9D59M5moSq+T7a56YiLDwcBR/8F8UvfGJ2lL/tFg14AoglPd5MympKMeSk/u8NlZ9dvU4jGvZTS2RPYxVvsEXY5WjOMUaPheqrsTUGfJ2Dieys5AbeAkRzz2g1coFJjZRW2tHdsJnsleZ7CcxIjEZH185Vq3xLrP2fotSEejJPhlA5S1PGEC9n/yM5GclPzPyLPlZ1DRWyeecOnMGZzIzETxpFGI3zUPIyGvV1voj411wv15M9mzIPui3t+yKBV4aq57Yuw5llyrUEtlirPId/hSrmPC5iGyWWVpaf8Ppy6ah6SLxq7imF6JXv4fQCcPVlpqJ/MujCLk2hcmeA3IEzxsTO+Ddy0eqNd7jcME5fMMROx2SpaXkW/iZeZ68kKltrJLPPX7mNHJDArWuB1EfvYCgLu3U1rqJeOkhBItY1dC7HDgi+/SNbt5JxKqb1BrvcSj/HLZkZ6glssXznu/xh8+MCZ8LyKY79VG7Z0srVRVJ3/mCfIT98S5EzX+uRjdsD390IoJvvEZECpaWVqVZWBTGtuiCZ7pep9Z4j1cOfoecUse3+GjIWFrqe/iZeZaMVfJ+sHUlCySPZZ5Gac9kRC+ZjfAn7q3TiM/h0+5CyIgBDXKAlpqICwnHHa16eGWsenLfehSW87589vC853v84TNjwucC5eXlVd53r65kgE4/dxal2g3b30bYfbepLY6Fjh2kj3DWQEfjrKkW4dH4Q4ercXebXmqNd5D3OjpR5Pyor0REjsguA/UZq86cOYPTZ7MQNG4IYjfNR+htg9UW55ljFZM9p8SHRuCPyf28MFal4yRjFZHXYMJXz1xVu2fPmeyzyBLBNWTqrVqpqqMbtgdd1hERLz/MAFpDsnnnvJQx6BPnnpHonPXG4a3IK2OTECKqPVliXR+1e7a0UabPnMaFS2UIm3Ufohe9hqDLO6utVTPHKjbjrJHYkDDM7+2FsSptGwrK6q9rCxHVHkfprGdy39LT091e/ZvQJB6RYWEo+fhLFM35WK3Vxax6D4FJiSK9Z35fU0UVZTh28QK6rnlXrfG84IBAXBz9Z4Tw87SSk5Oj5siusnPYdfRHvHj2GH4oLhYX5Gq90Cg4Fjc26YWHW/dCrxj33isuLi5OzXk/fxql012xKjExEZHBIShZtgFFf5mPS3kX1ZbKZIuVwPatGsxN1evb0Ys5aL/6b2rJ8+R9bgtu/pP2kywYq6rBWFUnjuIUE756JPfr4sWLyMrKUmvcKzw8HE3DIxFwIgtlOw8AFZcQdFkygrq0R0AkS0xrK7ukEJ+d2IsH/rdSrfG85f1+hZubd1JLJDGIOlCRix/3r8SkzCycUauq0jnuWiy+LAVta98Fq0aY8HmGvG2Qu2KVHNY8oXETyK+ULJAsWVj5XBrx9G8RMvp6BEQ37Hvt1UVReRkWn9yLu3/6Qq3xvC/6TcCY5s7V8DYUjFUOMFbVC96WwQ1kcM/L81ybda0pTc45FLdvgZAb+yF01LUITunKZK+OZB+JXyX1wGgvClpvpG3V7htIVKXCg5j5/UcY5mQAlQ7mfIcrvv8/fJjFW4D4K3fHKjnC3Ykzp3G+8CLC/jgJ0V+8KZK7G9RWIOx3tyOodzcme3UULi7y5IBj3hSr3k77gbGKqsdY5XJM+OqZKwdrcVZmZibK4qIR0KSRWkN1JUdD+1uvEWrJ89ZlHUVpBe9zRFUo3IX7tq/Ch7W51irPwsw9n+CdbLVMfkUmfJ6IVdqAY5mnUdSqKcJnisTvP3MQvfQNhP76pnq7nUNDFxschncu955YtTbrCMoYq6gqjFVuwYSvHsnmnOS/5M1un+9mKZX2tFWZaWqOyNZpvLNzA5bUqeAzF0/t/Rzf8N7ofkUme7I5pyfJpqSZ5SW41LmNlugFNotXW6g+yH7e3hSrvsn6Rc0R2WKschf24asncj9kzZo31PCFhYUhPj5e6zdB9euS+K/Lmne1G8t62g1N2+HLfr9CVLD39AvyJK/sF3HhCN569ScsPKUvDn94HF64Up+vTsmZg3hv7kEsO1KEPFnyGRKEnlck49G7eqFnNZX3mQcXosvJ+vmOhsdej6O9e8FVDcPZh8+9vClWNWvWDBEREWqJ6lOF+O51W/suDnpBrBokYtWKa36NCPG3Q94Yq8pxdNV6PLA4B9ky8UpKxtIXU+DsmK95R/Zh3r/TLLFKnA/j28Rjyh1XYny3KP1BDjBW1T/24XMxGeC9IYBKMTEx2gUI1b/8slK84CUlp9+ePSq+d2qBvEw5Tm5Yj5v+aEn2aiLvp+9wyxO7sPCgCqBSaTl2/3gQU//4Fd4T6x2qOIjXT9sLoEEYnXQrDvS528F0KxbEVg6VRbk/4nXPjENFLuItsUomyeQa50oL8UzX69WSZ60XsYq81IUTeO+5z3HHv1WyV0PZW9bjjuf2WMeq8nJkH8nE6699hUnLqmhryVjlVjzb1pPCQu+oS5a1epGRkUz4XCQmOFTrEN87rrla41nfn8tQc+Qe2Vg4awmu/s0SPPWTWmXr4gksfP1LjJ2fXasAivJ0vP+v0+bnxie3wsz7e+CRK9V9NMsLMP9vqdjt6LUz9uBDu11mEjC+QxISo2MdTEkY3a4LKg/3cBGfnOYFm7/wlmRPxiq2QnGdpqGR2gAuveNaqDWetfU8Y5V7peEpEaeu/s1XDgsds3/8DnfM+B7zj6gVNZaOeZ+IOKfNB2HQr6/F0reG4uN7mqOdugQ98MUebGas8gpM+OqBbLbjLf33YmNjUV5em6tMclaZ+Lwf73StWvKsRSf2iv1hh3hvcnLDLry1Ry/qDG3fHhN7aLPOSz+NzaYBFJM745OnrsH4ft0w8eGheO0qFUXzTuCTbabiVGs/nndUpXgak7csxH2py/EH07R7K3Y50Z3rTF4aDqp58l3eFKsaNeKgYq4m+50/5yW1fIszGKu8StERvLfgNI5qTTBDMPwmkaTpW2qgFLmm00lSOzwyvDlaNopDl+v74K6uan15AY6eVfM2GKvciwlfPfGGUtOQkBBERUVpP8l1YoNDcUuLzugU3USt8ZyvzhzW+mqQ92h509V4pH0IBvz6Oqx75kr0iVEbnHWuCCfVbLserWAZziIcg/pZlrYfthcss7DtYhUFPmXnsOTCUXwsp/wCXNWyH3rJLhbVXYeV5OKYmiXf5i2xSrZEMfV1JNeQg7cMS+yAzl4Qq1acOcRY5U3C2+OxqSJBa9EKb/z1FrxwXVQt+r4loFeyms04jVXpKvacPYiv9+uzaJqIPs3UvBXGKndjwlcPZCf4srIyteQ50dHRXrEfDUFJRTmmJfdTS56TUZiLC6Xe0UTLX5VcLED2BdNUhFwVo0pEEDKuL9FXC/GY+MwteGN4IuraYO3o0UzD6wLZZy2fdd5FezV8YuecuaYKSsDb3X+FSTJ/lENi/7xLX+9QLg7wXsE+z5tilWlAG3Kt3LJi3Nu2t1rynOMiVsl9IdcpyTPGpBIVO8qRa1xv7mgHhF5xLZa+cg0G1LqyPRbj70lGF63hSQHee/pz3PHyatz0p4PYLuNkSBQeefRKdJGbK2GscjcmfPXAmwZrYe2ee0QHh2JS655qybN+yDHVB5Er/LjgK9z0iGn6HvNVxdr6+cb1P+BHfbWNbBytadeVjvHoo2axaz/+tGQf1m89iFVL1uCuxblqQx3YBtDtG7Ck2hwgGI04wJ7P86ZYxQFb3EP25ftdO88nfNJPDpvwUd1l47PXjDFpD9Zr64sw/2XD+td+NrcgsXIyDwfUbI0kpeDjlzujj+pifvRgrt7/vGlzvPHaTZiYpK+vFcaqesUzbh3JUkpvGLBFNuWUpbfkPoXlZbgz6TK15DnLTh1kUxl/0qgHHrlZRU+UY/OXe/Cn93fhqS9zkN0iqpp+FpFoVNV4TfYCqKqxrFokmkerWfJJ3hSrWLvnXhfKir0iVn155pCaI79xdh+eevkgtpvKkkzx5+xpTHvtO6x30H+Pscr9mPDVg5ISY6Mrz5BNZDgyp3slhEXinrZXqCXPkSN1FlawKa+rDLh/HH74l2kahEdUiaW8p55l/XUYoK+uF13GDcXcXyeip6n/n/jb7nJVDyz+baJaIR7T0t49gWLRNdzBeaDWAVQIa2JnRDTyJTLJYqxqmOTo0hNbez7h23g2XSsoJVeIx8QXjTEpBcO19VF45BXD+hrcX69a5el4/bk9WHVBzAeFY/zDw/DdP2/C3Nvi9L7nZ07jT899h812GxYwVrkbE746kp3OPR1EZdMYefNadoB3v8EJ7dAk1LM3Dt6dm4mwQF5A+Zdw9Bx+Heb+TQXpubfi4993Q8y+bOiDTgehVyctpFZyVdPW4tmVdY6/wXEALTyFXbKBQGEu0vU1VtrGJKOtmiffJOOEt8Qqcq+4kHCMSOzo8Vi1K/cMQtmU13/sSMNnakTpnndch5lXxiI0KAo9xwzF4ntUgWTeaSz8zv7wmoxV7sW/vDryhg7wcrQzDtbiGVnFFzGyWUe15DmH8u3dvJR8QcnZ09ielouS6kowM1LxqKkPX0xzjOimz1bSKgW/t9OV9+D5H/HhkQ2YbK+0tPQgrv/uXTQ+dBSVC2Ob4KE2demIQd7AW2IVm3N6xunifK+IVeniQp18UHkpstPSceCsZdCXk6cs0aJppHVhQky0ZciyvIsO+g4zVrlVQFah7519TQHj0qUKrd9a82jPDVQi72mUmZmpljyjadOmWqmp1zSTKT+M5+5Zh0+M5/U2PbD+7QFw/KdYjqwDu/DJskNYtT8PGdnlMI3nFds4Ej16t8eUW6/CDUned6Pe/5zcj3E/fKaWPOOzq8ZhXCtHGUDDkJPjjqG5cvDZ6xu0G9kO+s0teKSXWu2QvFH7erylBm6RzUBfuFKfl0q2rMe1/8zWF67ohe8e7ayP7HkqHauOFalRPouwf8sJLNlTgDwt+AWJ17lJvI69slHdhSOfoeux03YCYs01ajwcRy93XSOZuDh7TVO9085D6QgOCkZwSDBCQkK1n8HBwdq5V9ZeBQToZaim1haMVdaaNWvm/hq+rV+i06s1GdgqBo+/82tMtRusZJzag2UbD2PV1lyk5ZSYR+2Vza4T4iKRMqg97rqhN67xslhVLr6Ly08fxK3bFqs1nvHVNb/GCC9IPD3JPbEqHW/9MRXrEYWJfxqK8XZvjWDw00Zc/Td1fkhKxlKrpp+lWP/mF/jTTn1p0G9vwWv9xbls3/cY8toJaJV8MXG45ze9cEfHKBSfTce8f4q/kzPawyvFPSPGqvrnKE6xhq+Oios9P8ywVyV7KMG3f9tgnexVo/jIVvz+t3PR/08/4t3NOUgzJHtS7vmL+H7tHtz30L/Q/9VUZFVXE+Jmg5p6vgHBjgsc/cw94jB+5i1Y+ldnkr3qnTXcZgFnC2Du337yKJ56f5c2WMuf3j+I+bssyd6Au66rMtmTGrUfhQWx9XBOCGqHD7qyR4Q/8IZYFRZW8zt91VVxQf00Y83dvVnFqa14dcVZpGYbkj2pXCSD2XlYvWQXJstY9exWpHm+y6RZUEAArveCWJV64bSaI9dqg0dEnFr6VyeSvWrl4qRh8JWTZ9UFXrcUPN9PxZm8HMz/20ZtJNCxL1iSvfh+KXjMQbInMVa5DxO+OpClt6Wl9u6F5T6hod5Vipi7dTWe+NbZjOwiUhf/F4Om7cJqJwues7b+iFve3CNOP96lZ6xlMA1P2Jt3Vrs3IPmWlle10e+BFBSEPgPaWEpUg6xPzTGNwtFnaA98/NcxeGOo/b571iJx4xW34YW6XF8HxOKF7qNxo/uv0ameNeRYlZVdD4lu+kbc8dQep+OUlLVzF0b8aTPSvOi0LL8Hno5V286fxCWnbsBG3iMeg26MQ7zMy8JjMaK3KQaFY8D9Y7D0/lbo0yIEMaa8TcSz+PZxuOf+ofji/mSYxh6zj7HKXdiksw7kfpw6dcqjHeHl/YwaNWqkVdd6XMEe/PGBzVhuLxuz06SzeN863DLrcC0CYhBGPz4Jf+3nHcnumeICzNq7Hh8eS1Vr3O8yEcR/vH4qwoMa7g1o3NNMxsdUnMbHPy3DHwpqeNEb1Bwf9BqPcbW+Ia/z2KTT9bwlVsnP2t2tUdI+/QQjFl9US86w36Rz70ef4JbPa/I6umGP/gZ/v8E7YtWxixfw4oFNHo1VMuH88YZ7G/RAY4xVdjBW1Rs26XQBGdQ93RFelprKCw3Pu4hv399qP9lzIKzbYCye2RIJalkKS2qJxx+/GT/9329xaOlv8fM/B+PB9mqjWTmWr95j1ezTk5qFRaFP43ob6LhWjl7MQTBHPyNbgc0x6aqp2NmmHXo59fUIw42JI3F0gHsCKLlPQ41Vx0/ZJGnxHfGFiC0yvtif7Pff637XdXhQVY4lD+iBD964Cz8bnvfzXHuxCli98xc153myQLB3XAu15BkyVsnmpURWGKtcjleIdSBLTT19s3PZJ8IbEr7czd9g+iZTVV0QEmLVbDVi+92Mj++MEU+JxPjpt+Gnd27G1H4tEau6KIUldsS0F6/CDfqixbHzSFOz3mBAE8fD0bhDflkJb75ODgShbYfR2HDtb7GtcwqmxzRB5+Aw83DYjcR8r6hkvNB2NA6IxyzunoxGjAx+p1KsOrAaH320GvvVor78kTb9Z2uWWmmRtfU/5u36pD93/yq1vMr0Svux2vi6ioxVXnHroKgwOBmerAW1wbRZ1+GD96bi65kDcEP7SHHJaREmEslpv+9YeWCycu9p0ykLJ1Pimqslz8gTsUoOIENUGWOVK/FQ1YGnkz0pJMRzo76ZFezBs++esfSr690b03qqeSck33ELfvrwLrw8sKlVADWLaol+bdS8SU4JPDvenLX2kZ6v6s8t9ZY6T/JKgWHo3PJazLpyIraJYHnqhodxXkxHxfyGq0biofbtkNhwWwT7NbvJ3lbjQE8iSRPL0V1G4u6RXcX2jdhmk/Ml9Lsdd999t5hGomu0WNG8DbqK56WfboG+d/dFi9PpWpKXtXUP8rqkiG3WPBOrziDtmJo1aRtXxWjR1WjTFTe0qKIpYvtmSFGzJklNq+7B5G7dY5qqOc/JLa2PMRnJbzFWuQQTvjrwdMLnHSNzXsTyOZux3HRfzaAYPD6lJXKPq2WnRCK2sZq1qxi5tvftbBUDbxrYOTAgEIlhUWrJM86VFqo5IiILq1iVtQ3/2Qp07SKzNpOuGCaSudv7GRvY25e1dSP254skb7htSiftR+qBGPSweR3vGUVacOW+7D6ODWpWF4QbetuWVnpWkBfEqhwWThK5HRO+OvB0wic7YXp6H7JWfIk/7lALQvcJgx3cv6gOjhzFMnWrMpPY7s1qX0rrAkUVZWgT4dmG5GdLaj6gABH5P6s4kdAXt989DB3UohWZDK7cj5h+t6Ov3dxPJnT5iDbX4HVFm+ansO2jbTjVXCQ2q7YB/VJw4T96M8/VB7QHeXBQsfNIO6Fmldj/bcegyf9Ep7Fqun0u+j+0GE8s3o+MOoxpU5yRit//Nd1qBOmEgf1q1NrFHS6WlYpYVatGrfXmPGv4iNyOCV8dNPgavuwfMX2eYbSp9j3w9zvqfMMXGxex/GMRiNWSLhJ3DfeuG7fKP6QW4cYSc/djqSkR2eN0rNKSwZFo9LP9fnw4kI5TaGFVg9d1uGzmKabeF7AnvytSkCrSwq4Y2a8FTv28DfJVPBerylFk04VO3tc1w5iVyfvnZeTgs083YtBdn+DVndUVnB3Gq1P/hUGG6co7/onLHvoRqw2vm9DvKnzxaI/a9Rd0ocCAABGrPNvMNIetUYjcjglfHXg64ZODtZiG/Xa/M5j7Yiq+N4/TEoPHp1vfdqE+pC3+wqoGUUq4oY/d0dA8KSIoBE1DI9WSZ+SVNeyEzysGhKAa4WfmHuXVDhwiB1ox1chl40K+trKS/UdPAdGNYO9OkPt37EfMZX2tRl028djAYiK5M9wvunolFzH32X/jiR+rquorRmZ2CTIMU67p4SKx7S5H8HznN9jyeAoSvKglq0lpRbnHY1VDr+Hjec/3+MNnxoSvDjyXbOk8OTpnxufr8OoRtSB0v6v+m3Lmbv0Skz7NU0tKbEu8fF9X+4O7eFBoYBAahXh2r2RTnYbMUzd2ptrjZ+Ye1ceqrhgma+S2yqaY23Aquiuuk7V42sid/7EewEUkfJWSuqxteu1eFzGvNffcj5VbT6GFSgA9FqsiGqNfl5p+x8rx2QffYW9tBtcUifXeH/fj1b9vwGcHcrzm1kFGZZcqPB6rLjTw1ig87/kef/jMeOP1OsjNzcW5c+fUkvvJG67Hxsa6v7lM+mbcMm2PJSC274H1bxhr985g7h++wKvpalGyc+P1quRu/RojXk9HljHohsbg8dm/xlTv6gNv9uTe9Xj54Hdqyf3+fvlNeLB9H7XUMBUWFmo3l/Z0YQxVTZaWygAaERGh1vgGX73x+oULF3D+/Hm15H4yVsmbFnuqlDz38H7sCWqFHq1iEGu4bivOPIxP3v0Or+6sXKM3+vHf4q/91IKVPfjj2M1YrpaqktAzBR8/exWSvaimT958/Z9Hd3g0Vr3eYyhmdLpGLTVMjFW+wRdjlaM4xYSvDjyd8MkAKhM+t5aelotkboZI5ky1e7Ip51u2N6qtW8KXu/Mb3PHCEaQZkz35e97w3mRPenb/Bjy3f6Nacr83eg7Do8l91RIR1TdfTfhycnK0yVNkrJJJn6cSvqpdxOrX/43fb7au0pO3C/r6Tif6pJeXiGuBs9izaRee+yQdaTa5Y8IN12H9o97TKuWoSPj+lb7To7Hq2a7X45mu16klIqpPjuKU59oE+gFvKJlxdwDNWGbdlBNBF/HJM9Yd2AdN/Qrv2oyMhhP7cYdp+weH1crKcvetwyTbZE/W7Hl5sucNeDNbIqKaisSwG1qpeYu0U072/gsKRWzjlrhmzAh8Pf8qDLOpzcv6dheWea5y1SsFe7A7ClFDxb86HyYTTncnfId/selTV1Ju1Xnd3IndurBU69uQZdqea7/9vpbszTps3Xcitile9uJmnEalHh7Eh01DiMgeT9esef25qUUMuqvZOolKwS2VmoHm4Ht1ewpvIL8Jno5V4YFeOJoNkZ9jwufDZBD1l4t8+8leS/z9rdsw3ulkT/atUPdW+sNmm1s5uN7Fcs8OmhLklc2liMjTPDnAl+T1cSrjPPaqWZOkprW5dUEJip2440DG4n9b7gM49t+Y68ZgJeOEp2OVHNWaiNyLCV8deDqIyj4hcvJ1dpO9Fu2x4L2bMayxWnZCxuJdWC77Ci69BY+L5G/QnD1qi+vllZV4fOSx0EBP3dyYiLyZp2v4PBWnsk6ddWKkzItYvvqkmrdI6WIpaSw+n+fciJsFe/D1/9S8WShaN1WzStIdv8ahpb8Vk4hVbfLw6iL3xarggEBc8PAtfKKDOUolkbsx4asDT9/43BNB9IbpMkhVN8kgpp5goiViavv0Hmqlg2SvTVd8/daNuCZKLTvp8PE8oG0cktAMw6+NAY7luK2Wr6iiDGdLqrthr2vFhYSrOSIiC28onPSEPZ/+F5f96t/4/Sdb8e2Bs5b75SlylM65zy6udK9XBDXDiCvUvJD1zZfm1/n+iEj+bLssoBy5R3bhiRk/YrXttqjm6FfNfWNHD7DERFeTN14/W+zZWBUb7G03ViLyfxylsw6Ki4tx6tQpteR+YWFhSExM9HjiWZmTo3RmbMYtjxhu71BTAwdYJY/fzvkn7jsmf09HrJK/H86PDFpXMtm7acu/sT2nckmxu3wz4C4MTfCyO9IT+RFfHaWzqKgIp0+fVkvuJ2NVs2bN3J54ajFhk1qoge5334IvbrWM0CmbYA6yuSdsWGwoErSPU/ZPL3dYA2j7WibmfbOJY652prgAN3//fx6NVeuvnYwbmrZVS0RUnzhKpwt4utS0rKzM4/tQJ7LfRG2TPTtumNAD3dP3YNDYL7AMMaq2zz0ig0KQXnhBLXlGYlgNq0SJqEHwhljl6Walzkq46ip8OKb62zEU55oGKXOc7FX1WqbWMh9gMzq5sftBtBfEqsZsjULkdkz46sDTQbS8vNz7O8O7U9IAfKGalI5BnlubyVSIzyGzuEAteUZCaKSaIyKy8HQrEE/FqrCadBULCsUNd96Irx9PQYLt4appflLVa1k5g7RjatZNxCfh+VgVxlhF5G5M+OrAG2rXSks9O9qW58nmo//EH7eK2a1fqlHPvsCya2/BXysNj+06h/I9dwN+kwZZarp8IgJ6zoHx1pDSyskBCJi8Ups/8np3rXbBPKn1jh3BnJ6Gx4tp4nK1yQ20fVe/t/vrxndmvV/W23TaezW+P3l8Arpjjs2tL42/IyBgIiodEcNxtT5+Nq91eA66O3idan+HpJ7vzuPbEDXUWHXNw7/Fz+8MxjPjWuKapFAk2JwiZbPMpI5N8eCUwfh64W/wwR3tEWsnQUsa82v8vPBmLJjSEeN7xyApPqjSjdRjG4ciuVtLPPjgCGz5t73XssQq2ZzTFKteTW+JD9zYpHNvbpaa85wmoRFqrqHQz92VznPa+c90Tq1N3FmJiYbH2zvXu471/lrtqxZ3TNvsnfsrHw8tXtjGcqv4Un3MqyrmOI6rNsfQwfWB3f3zMezDVwdyP44fP+6xDulSfHw8oqOjtS9qgyT7AT50HtOW3owb1Cp3k/c0+vBYKh78n/0ThTvEBIcie+QMhDS4+xvJk/UM9D60F9M7qlXaulHAsktYCBF4xgArLi3ESLW1OvLEPgorcGmBs8+oPzJ4dVgwFb/sno72xvcx2na/rLfpZBAV6z5Xx0IG3SeAO5GK3qZ1kljfff+L2DtT7+9p7/3KdQvHi9fuJgLu892wV22rav+stjnxO0z7Oxf7kPKy8X14L1/tw8dY5QW8IFbJ/nv/Pbnf87Fq1EyEqL+VhkI7P+6ebXUONJ4z99U47sjzZwfMnfyL+TzrTlbndJmYdZqLqTIOwzAvYo51zFDk428VcVmtk681Q0QqpPY2r9Pf3yx0261it/F3mGO9IebtcxxzqopbKyd3x76nTa9pL64KMp49kSoilc378FLsw+ci8iB6UklJifmiokHSmnF6LoBKuWVF2JHjucF7pLaRcSisKFNLDclITJy0D3M/N5S7LV+IT0XwmCiTkP2pwGW90U1tqt4R7BNP6dbT+WfUnyP474J96Db5NhVQRuLFv3TDp5/JizN9v+4cb7oYMG5TDv9XJE9TcZspcMlEd/dE4Gdtq8XohVYXCNp7Td0nfoPJSiz8WD9+6DjdnOxJ7bumiNfbIQKfYDjOUvuZs3Hnz3PxX1nCXO3vEO/odZHsTZ4t9phcTcYIT8cqOciZJxNOj/OCWFVcXuYVsaqkoh477/uI9rdORbePF4qzq4nxfF+buLMPO8S5PaWrJ9IPGSMM8UjEidmmOLxPxIfLTHHIJi4oRz6fC5jinEimZGK2d7x8R0btMd2U7EkduyFFvmfjg4wxz2HMqSquiqUFxgSyG3pfJp623xip9Fg6+2UR+3wcE7468oYgSp4la9W2nT+hljwjOaqx1o+wIRo5/k7sW/BfczKx8rNPgUkTtUChBdmfZ2CUnaYg9rXHbZO7Yd9joxw0jZElivaaf8iSwYmY87qh+aPYJksWzctONgepFMC1oCWDuwhGttcDhiRq5fMzLEFUvPuFTtZq7tstImhKN/U8mYjNwKfq+NmqlEBXSqZtArJi+ztkae2oBVOxYmZNLnCoLryhcFL+HZDnyPvfeUOsapAXnh1vw9TLPsVCUzNGmayIc/rUW+VZsbq4Y48s7AQ+HeOgubxs4WGKPYamnjImdX99johXxm0yfpmWnWlKKlWOR/I8r8UI47leY4wLKzHrMaj3LYhEzalazcP7kGrzO61jnjXbmGM/rtqqnESvnCxr/JxvIeTNmPDVgfzDCA019grfj9UffYSP1LT6gFqdtQ3/sbfeLAvb/mPavlq8im7/KrVulXmNeH3LdkkGUfK83bmZas4zOkc30W6o2yCNnmgoQbSpCZM1VJdWIOWxDnowc9A+36j9zL24tCwFMzpVDn4rJ+tNaGSNyaVLv2B26ijD9k8xVzYhkdsOzUa3j0fpTXi0x64Q+zgDs6oMpHqwMdJq1DS2NZl6qaUloMkSV9PFQw3I0tWP78QKc8DVX9dSk2ggkzQRqGd/rjdp0QK7Fb10tBI7v2POrXMxVb0OuZ5sbhoS4pnmpCaMVZ4n78Hn6VjVNToeEUGe/S56hp7UmVtlVKoJcxx3HBm54BJ++UsqRsnYZuy/J5s/al0ZZOwRk3zdWy0Fjvse24GJatsKEVdmdJLdIvTlX2Tt1xPVFE5qyZc1U+1kpZpMrSWIIVGTy4b37RwZM0Ry95cVhtq4KmKeVcypKq5ak8ndp5NWWJpzqtpHX+hu4AwmfHVkTPiytu7BqeiuGHn33bi7Xwuc2qonZ1lpGcg3rRfTsC76402ytm7E/vwW6Cu29W1+Ctu0BG8/0k/LdX3R4nS6/jri9fO6pKCr9iyLixcvan+o5Bk/nvfc/YxMukY31UpvGyZDMqSVmlqaGepkbZdKukQS5kzSp5U6yucsuxOfjjEFX70Zyz5T8hjQATNEILE0/zAEH635ibEJpoNkyErlxxiTqpELDIlrwCjsEMmeWW2CqHZRkIrZhwyll3aPn7QSE8VFQcoyS/OXykGzcmC19zv0ppzGwE3uIO+F52mFhYVqjtytXJzPNpx185CgdlzVuKWaa3iMyZBsiWJpZqjYjTtV0xJF8Zxf/gKRuOlJn2wyuU+kWXoiKKYxn1qa4kuGFhxaomZMPB0kQ1ZUfDPSatSkjtOxwpyEiukz2Y/cwu77roYsaJ2RssK6r6KjmFcp5lQdV01kzeeo1Nn4xVwwqbpFOFP76COY8NWRMeFL6Hc77r69LxLEfNZ5y01asy/kA/n7sVLW1v1nG2zHyNKed/ewSomctf1IPRCDHv3kq1uTN9Vt0H0jPOhCaRH+lf4/teQ5/Zq4646D3snUrHOlDHQOmiNqiZ8IpPabcjggAvCKSdZJ3WxVEmqarIJQnbRHNxFFrfsPCOZaPFPiKqe9mCjCtymhrHEQlUGxUgd4daFQ6fjJ5j52OrJ3641uxosIjaEk1+7vkM159lVKmuXFjb0R2Kj+eLqGT/KG0UIbqjPF+fjPSeu/Vk/oGZuo5hogc7POalpkVIo71Ws/cwVmX2ZoOjlJtTYxT/XZLFEmUYbfpZhr+VQSqk1P90aqOTGreUsU+wN+OYh5dmNOdXFVT/ZsB5bRujZUSppnoIOjEad9AM++dWS3X8SB1Vh5QCR5zduIJC4LMt+L7jJSJHUjxfJ+bNxqf1hk2YRzW35XjBwuU7+uaCNr+z7ahlPidbBqm7iqT8EF1fTT2CxU1vB5+j5LDVVsSBhWnD6kljxHNuls0LRmnTMwSiQTdpsjKlr/PsOJvnp6rZ7epl+vSZzxfN1P93o/isrB3Lo/op4c2X0/qsmKXhNX0yBaubZOZ685pz4KWupffqncrMWmT4oWIA2B3f7vMCatcvpFXKQAd4pksv4SZ7LH0334IiIiPL4PDVnzsGisOON0BzGX6RDVWM01RKpZ55hR1bTIMMYdJ6k+gbLATa9JnFGD/oCOyPO/vVs92DRPFYnWDLsxSDXFNCVmNWyJUrnWzcRezHMUc6qJqyKWdngsxTA6qM4qaZWTLCy+TOxLvSbO7sWEr47kF8GqH59I9j7aekpkeKbELQF9b78bt2s1cwloFA3kX8jWHmqr6/C7cfdlF7BS9dPTlmUz0N4XsEckgilIFevF68rmoj9bagpl7Z5sKiP3hdxrfdYxnC8tUkvAh0OewqWxaho1CdPlyt4PVF5npR/WjrI8b29vfa35tYbcrK/Azdg79gF8qJZMesU2Q2F5Q78fo96BXTYeMTZHlAFDr0nSJ/vBw0gGOMvjZdNJY7IzcoHeb8/4ms40u7GmJ1bmJjBGsmQ3RZYiVv7dMjCZf+8TvS2Bp4ZBVOunIH7KWjXL+xBBfW3l5pyy+aWsgbPUyOmT/p7bY/rns5GqXscYNB3+Ds9fbzZYlWKVm8hEr1mzZmgcH48AFkx6RI6IUV9lHsa5Es82qe0Vm6iNFNqQacmY+GldO1V13LFPtrwwPMeY7Mi+64b+gNpUm3vIaUlk5Zo8SatRNMVCq0TL+F46YMfLlsK8GrVEEUmkLMDVa9VMrycm2SXDTsyrMuY4jKviGMqaO2NNnpx8/H57jvA+fHUk9yU7Oxv5+fnQBmdZuR/5zfvibi3Zk+RAK9uQ12WkSPqAbf9ZiYxWct7SNDNr63+w8kQSRt7eF5DzB2LQ19DEU9b8pbe7G8MgksmfG2GkTArlT9V8VIqKikKTJk1Y0+dGmcUFmLZ7NT7NMHVckglZCpD+ArrvUKu0ZO5G9L7wDRp/19TOdkEmhG2AuUvfw75rZ2J2o9OYseI8po5tjS1Lj6O/9lPfNgubxOvIu8xb3Ns2BW/2HIaoBtuHj8g9fPU+fJJVrHKx8PBwREVHIzIyEmXivW85n4GvzhzG+ZIiTOvYF91jKndNINc5XpiLx/esNcQqz5gqYtU7vUYgXPwNEZFr8D58LiIDuwxu0v4dItmTM6e3GUbc7Iph/Vog/8BKsbxSW75OJnuyJvCj/2BbluzDd51Yq/fxk01BW/Qz9OcTSaRWuycHetEGbBGP23oKLS6zJHtSQUGB+SKD3EOONGYVQJMbo4X40a2NdU1d/bgZU5vm4z82yZ40LLEDkz0iqpKMD7K2zVVkHJQ3V2/dujWaJDTFzuJzmPjTUoQvfwWDv/sYrx/6Hh8eS8VV336IH7xgoKuGJDY4zOPJnnRTs2Qme0Qewhq+elBeXo7jx4+rJc+RwTYmJkYtkStllxRqg7XM+PkbtUYw1NTda5xXNX+yGUfOWVnTVzlpmy5r9prKgoOz6jl6k86p8uPMS8VcpKD/+W9wqsWNGCy+7vsMtYQnR0xDi/BofYGIXMaXa/ik+o5VcuRP2bokUkzynf504RTeO/oTFqTv0h/gwN96jcCk1r3QKMTzI4f6u7MlFzH/2E48tmetWuM5J0Y8ipbhvEYhciXW8LmQDPTe0Bk9NzfXfIFBriVvgfAPcWFjZcd7CFDJmhypJwfRaJ+sJ3stRKIXsPQb7Gh0I85f2097uIme7OWLRO8FBKQDU1U/vXvXimW57mhj3B5+VEv6BuMoZqSfRbcWel/A1hGxvGgiIqfUR6ySSV7jJo2R1DoJCc0ScbA8Hw/u+hqhy1/GNRvnV5vsSW//8gNretxE1u59cKzyMPTuJmNVXIjeGoqI3I8JXz0xNev0pNLSUm3ETlmSTK5TUFaKZacO4FD+ObVGJxO3S6ZBVRpFIw75OJKmbaqTD9u1w6lTH2OOWjYanNBO2x8iImfUJlbJwV4aN26MVklJSGzWDEcqCvHonjUIWfYyrtowVyQUxk7J1ZPnzs9O7MXpYtf3J2zISivKsSozrVKs8gQZq3LLitUSEbkbE756IJvvREd7R5O6CxcusC+fiwWK4/vqoc1qyWLOd5uwrrQppsqRNds0xb50Wdv3Jbqnn0Vc0xtFMnijVkP3omzSqY3cORNrkx09T0mepNfuyeupHalYh3aYLR+jEsCbm3VGbAj77xFR9WRskAOpOEMmeXFxcSLJa4XmzZsjI6AEj+9fj+BlLyHl2w/w919+VI+snb8e3oroIJ67XKn0UgWe3b9BLXnW2BZd0Sw0Si0RkbuxD189kft07NgxteRZTZs21UpxvaGZqT/64tQBjN22WC15Vt7Nf9KalxKR6/l6Hz5J3sLnzJkzasmavDm7TAjlCJvB4j2lXTyPeen/w6sHKxdw1Yd5KaMxNLGD1tyP6pesPV2d+Qvu/ukLtcazGKuI3IN9+NzAG5p1SrKWj8mea1wS/83cs0Ytedagpu20Ic+JiJwl++AlJFjGeJZJXqNGjdCyVUu0aNkSF8Q1+UtpW7SavM5r3nVZsie9cmgzkiI4iIcrJIZF4cUDm9SSZ8lYJWsbichzmPDVE1mi6y0jZMq+fDk5OSgra9g3OK1vcmTO1w5u8Yr+ENKUtlewEzwR1YisiZSFk0lJSWgpEryEZs2QHxaI2Ud+QMTyV9D+m3fw/P6N2qibribPpS8e+A4ni/LUGqoPRy/m4CVxXL0lVv066TJEB3m+dpuoIWPCV49ceY+jmpIJn8RRO+tPYXkp/rx3nVryvJubd1JzRETOk01QZSuQfYXn0XzVG2iz+m08uXc9SirK1SPc5+l936KccareFIvPUB5OeVy9xW0tuyAkMEgtEZEnMOGrR7KWz1uadUrnzp1jwldP8sqK8eD/vlJLnjc4oT1CGUCJqJbSCs7jivX/xPnSIrXGc34vzq3nSwvVEtXFxfJSPLJ7lVryPDk6Z4D4j4g8iwlfPZIJn+wL4S3kLRry8/O1Jp5Ue7mlxVhycj+Wnz6o1nje9I79EMkmMkRUS+Ve1KdKnls/Tt/tNU0QfZXsdvDvjJ+9Klbd0+YK3nORyAsw4atnslmnaYQ2b2Cq5WPSVzvyouh0cQGm7Fim1nheSGAghiV2UEtERDWXHNUEEYHecyEua6UKykuQV1ai1lBNyPuxZopYJWtLvUVIQCDuaNWdhZNEXoAJnwvExnrXENPZ2dnaSGxUc7IpysTtn6sl7/C7dleijDfXJ6I6qLh0CXe27qmWvMN9qV8iislBrUQEBWOyl9yCwWRym8tRWM7B44i8ARM+F/CW0TpNiouLcfbsWZSXu79Dvi+TfVumpC7D9pyTao13eCT5ajaRIaI6kS0Fnug8QC15h+05p3CPOOdmFV9Ua8gZZ2QrFC+MVY91ugaNQsLUEhF5EhM+F5AjoHnT4C2S7MuXl5fHpp1OkgH0rbRt+Ch9l1rjHa6Nb41W4bxJMRHVXauIWO2c4k0WiHPu34/8iBwvGEzGFxwuOIf3jmz3zljFG+oTeQ0mfC4g+/DFxcWpJe8hb9VQVFTEmr5qZBTm4r8n9+O5/RvVGu/xSvchWtMdIqK6CgsM0s4p3kaee+XgI7LZKTmWXngB32Qe8cpY9WzX69k8l8iLMOFzkbCwMK/sNyf78xUWcvhrR04X5+Pbs8fw4P9WqjXeo2NUE/Rr0kotERHVnTynyHOLt5G3wflUJH35HMTFrtyyYmw8m+61seq6+LZqiYi8ARM+F5G1fE2aeF8QlWR/voKCAlRw4A8r8sJifdZRTPppqVrjXd7oeSOCA/gnS0T1R55TXu0xWC15F3kuXnb6IPv02ZCjR684fchrY9VL3QdpfUSJyHvwL9KF5C0agoO9s/ldVlaWdp8+Nu+0+OzkXtzpZSNymiRFxGJU885qiYio/tzWsitae2l/KzlK8pci6TtZlKfWNGwXSoux4Pguh7Fq+rUzcWnsU9q0t3fldeev7aevtNIPa0fp243P+3CIWjfkZn0FbsbesQ/gQ7Vkj4xV41t1U0tE5C2Y8LmYt9bySaaavoae9Mlho+cc3oopO5arNd7nzZ7D4D13dyQifyJvP/OGOMd4qympy/HvjD3aPVEbMnlj9Q+PpTqOVcmTMKspsG73C5hxtgjdWkzCdG1dOPalv4CApak41fRGc0Jn1jsFg0POYu5Sw/NEctc/Rq5Lxb6Y1lqSN/3abmhxNhX36s+y62+9RmjfJyLyLkz4XCwyMtKr74Enb8x+4cIF7ebscmpoSirK8cTedZjx8zdqjfeR/SHGtuiqloiI6p88x3hjXz4TeY5+7eBmXCxvmCNNF4r3/eKBTVXGquktmiOu9DRWpgFzvnsdASs+xhy1TXcWp8ThaxFpr5avOjdjatN8/Oe7rWq5Mvn9GcOWKEReiQmfG8THx6s575Sbm4vMzEytT19Dqu3LKyvBbds+w5tp29Qa7/TXnjciKIAlpkTkOvIc8/4VI9WSd5Ln6vE/LMG5ksIG08RTNuE8X1oo3vd/nIxVzTHL2DQz7WO8KGvt2sh1A2FbuafZ8R5mnI3GVPGc2SKpm6slil9iS15TsS4F3fKOA0NSgPRUtFdNPyvVEgofpNyMQMYqIq/EhM8N5Iid3nZfPlty5M6TJ09qN2n393v1ydHNtp0/gW5r38WKM4fUWu8k72U0NKGDWiIicp0B4nzjbffls7XyzGH0WvcP/JRzCkcu5vj1rRtkE055M/We4v06H6tO48WlLyAg/axI8vT+dlptn1y3dBN26A+yIvv4aYme9jyIJE9/3r1r5XPEdLQxbg8/irlIwWAcxQz52lqzTwv5vbmmSZJaIiJvw4TPDeSInd5eyyfJ2j1Z0+evtXzywkD+9+L+Tei3YR5OFHp/CfGHKaN53z0icovwwGD844pRasl7nSjKw5iti/B22g/a8oH8bO2nv5CJXoWMVQc2YejmT5yOVXMu5gMh0bAeMkUOtKIGa0nuhN4hRdhxynGzTHs+bNcOp07ZNg+19s8rbtbu60hE3okJn5vI0TpjY71zFDRbsl+fvyV9slZvU3Y6uq95H68f/l6t9W5/7nwt2kd63w38ich/ydE6p7ZNUUveTTZx7LH2PezJzUKGSIpk80dfVlBegtNF+fj+XAZ6rHmv5t0NDE0zL7Vpin3p7+FefIm5Z4sQ1/RGXOrZDji7CUPSxGN7P4BLY2dibbKsAdyEdaWy+abxeUryJL12T1YN7kjFOrTDbPkYQwI4o+M1aMdYReTVArIKfa89hGlwkUuXKrR+Z82jvXdQFCO538ePH/f6+9/JQWZatmyJ/flncb6sCE1CIhAfGokEMfka2ddDdvL/48/f4LMTe9Va7xcXEo5TI6YhnLV7NSKbJpeUlDTIAYh8iWz1EBoaqt26xpfsPJSOYPE3GRwSLM6TodpPWZgXFBSEwMBA8b70MlT5/iRfjVUF4pyZ9PWbyCktUmu83/hW3fFCtxsQHRSKVhExaq3vOHrxAooryvDUvm99LladFLGKLVFqhrHKN/hirHIUp5jwuZm8951sNunNmjdvjqOl+ei29j21Bnig/ZV4qst1Wsf+xLAotdZ7yVJS+S154cBGvHfkJ32lD1l37SQMatpOLZEzZACVfVDJd8j+zf4QSP0t4SsT+/vl6UO4ddtitcZ3yFj1ZJeBKBPHu0loBGKCQ9UW7yQHn5HdDV4++J1PxqrV/SfixkT2M68Jxirf40uxigmfl5D7K+9/JxM/byS/1DLh67NhLnbknFJrLe5tm4I/de6PhNAoNAoJU2u9g2zOI2+zkF1yUbuvnrxfkS/6TZvLtX40oewPUSOm24uQ75CJUaNGjdSS92soCZ+UX1aCyT8txeenDqg1vkXGqoeTr9JaqJSK4+9NzeMziwu0O9XllBXjLwe3+Gys+lVSD8zvPUbr+0nOY6zyPb4Uq5jweRG5zxkZGdpPbyObci7NOowJP/5HrbFvWGIHPJrcFyOaJeN8SZFWkuopp4ry0SwsCp+d3Id5InCuzvxFbfE9sjT6xIhpXl8q7Y1ycnLUHPmSuDjf6fvTkBI+STaJb7f6be0WNr5KxqpJrXvhzqTLkF54Ac3Doj3SVF4WRMrBWOS96j7N+BkfH9/l07EqWsSojOGPel3Bry9grPJNvhKrmPB5Ebn/skrf25p2ykFlQqIjEbvydbWmevJkf1uLbrirdU9c37QtLpaXIDIoBEHqwscVisrLtD4msu/AxrPHRODcjf+e2ufzHfYlNuWsPQZR38SEz3vJ/s8yKfHFpp22tFjVsht+1aoHhiS0w+miAm0kTDlIjasUiET5fGkRmodHa01kl5066DexalX/O0UynayWqCYYq3wTEz4P8PUgKsn9Pn/+PPLyvOPWAPKCJSkpCb/93wp8eLR2zUvCAoMxNKE9rmvaRrt3XK9GiVrtX+mlcm1bY5Gg1fSmrPKTlk2L5O0UooJCsSc3E6uzfsH6rKNYm3UExRX+M5qo7CP5ZJdrObR1LTGI+iYmfN7tbMlFzNq7Hv84au8Obr7JFKuuF7HquqZtcWVcC/1WCOLzig+NqHFz+nLxPHmcikSCHB4Uor3GzgtnsE7EqI1n07FGi1Vl6tG+T7bu0QbIYUuUWmGs8k1M+DzAH4KoibzZuRypydMSExOxr+QC+nwrb7daP2Ryd0WjZugek4DO0fFaHwrZnKVleDTiQsMRIYJusLxIEv/JhE52spcJnGw+JPs4/HIxBz+LBO9gfjb25GXhfyKA+utNduUFx/YbzANhUy0wiFaj7Bx2Hf0RL549hh+Ki3HB8KfUKDgWNzbphYdb90KvGPcWODDh8w0yNsibnfsj21glz8etwmPMg75EiCQuRHy28nGyVlDGKtlfXI5ierIoX4tR8ibwDSFW9RbH5ifGqjphrKoGY1WdMOHzUmVlZThx4oT5PXlCZGQk4ps2ReOVr3ukr4YWRP00ODpDXkhkjHjUJ0Y/9WYMog5U5OLH/SsxKTMLZ9SqqnSOuxaLL0tBWzd1c2LC5xvSCs6j29p3USreR0PV0GNVsPh+Hxv+iFZoS7XHWOUAY1W9cBSnXNfRipwiLxRk7ZonNWnSBO8e/cljHfMbcgCVNgy8m8keuUbhQcz8/iMMczKASgdzvsMV3/8fPszyn+bSVHdtImKx+Kpxaqlhauixau21k5jskWswVrkcEz4PkyXB8lYIjRs3VmvcSyZ758qK8IddX6s15E7/vOJmrfkQUb0r3IX7tq/Ch6VquSbKszBzzyd4J1stU4MXEhiEIQnt8VzX69Uaakj+3usmXBXXUi0R1SPGKrdgwucFZFOgmJgYREe7t+QsNDRUG5lz0o4v1Bpyp/vbXYmJrS/j/fbIBU7jnZ0bsKROBZ+5eGrv5/imUC1Sgyf7s03r2A9T26aoNdQQyM/77raXIyKI99uj+sZY5S7sw+dF5PvKyspy203Zm7dogY0XMjB8y6dqDbnLzc074b9Xj9dKzal+eE2/iNIcbP5qF+Z9m40D58qhNZQOCkJ8mxiMGd4HU/vFwamx7cTrrF/0A977LhdHi8SyeI12yc3xwNSrMahZ1d+bzIML0eXkObVUN+Gx1+No715w1d222IfP98gBS27/4TPtVgPk30aJWPX51XeIWMX6gfriTX348vbtwl8Wp2H9ET1WhcZEYdDNvfDY0FZwZkyUkk1rcO1cx+9n+MPj8MKVasEOxqr6x0FbfIR8b6dPn0ZxsWvv0yNrE2MaxyF8+StqDblL/yatsWHgZK0DPNUfrwiipWl46sFUrKqiaUp8/yvxxW/bV530lWdj4XPr8Va6WjYKisIjz92EiUlq2VbFQcz8bhU+rDS2RhBGJ43B7OaO7juWi20HV2Jyru25JxLTe0zFrAS1WM+Y8PmmMvGebti0AJvPHVdryN/0b5Kk9TFnrKpf3pLw5f20EXf8LRP2WkPG90vB4vuTEaOWHTm57CuM/W+BWqqsyoSPscolOGiLj5AXCs2aNdOaW7qKvDCRffeeP7BRrSF3ubxRM+2GtQygvkokYrOW4OrfLMFTP6lVRiHJmDpaH4AnJikOE2/rgdfu74x7eoRr66TsLYfw9QW14MCBz7+3JHuN4nDPPT3wyJXqNcoL8NabP+GAvlRZxh47AVRKwPgOSUiMjnUwJWF0uy7orB5tcRGfnD6q5ol08hz2lTiXydsZkP+Rserr/hMZq3xWGp4Scerq33yFhfbuplJ0EC++a0n22g3sjNd+3Qo9VYaXvTUVL26pvlNdSZmlLWa7Hs0xZqD1dFVVyRdjlVvxL9kLyYRMJn0hIa4pDY6Pj9fuGfTywc1qDblDj5gErL92Mm9W6+fajRqAj5+5CWtfHIpHxnTDoH698MDMa/CAeWyecuRV2Wr7NNZtkW04pXDcM30oHri+GyY+fB1mJqvVZzOw7oiat/HjeUf3SjuNyVsW4r7U5fiDadq9FbscF86anclLw0E1T2Qi+/StGTBJO7eR/5D3I1wz4C7t8yX/VPJjOtabcrUreuGTqb0waPg1mHt/c3Ot3vqth/UuCVU4kWmKVVG45a5rMWuq9TSmjdpsB2OVezHh81KyiVDz5s3rvaYvPDwcEZGRGLn1/9QacofLYhOxceDdaBxiqekhPxUUiy7tbW+zUYoiU+uTyBh0qepOLBeysdvUpaFJIgabA2YsBlxuet1SbNlvr1lQFrZdrKL3e9k5LLlwFB/LKb8AV7Xsh17yJau7tVpJLo6pWSKj+NAIrSCrpzjHke+TsWrdtZPQNDRSrSF/dOBInpoDBl1p6GLQowX6q1nsycaParZ6QYip0VeGscrdmPB5MVPSJ2/bUF+axMfj/07swcH8bLWGXK1PXEt8N/A3aCIujMj3lFwsQPYF01SEXBWjSkQQMq63LgnNxYGtB7Fem3bhrRe2Yb5M4oJCMGZqH/SpqjP8xRKYQ3F0iFUfipatLInkgWP2/obFzjnTKzsoAW93/xUmxYt5OST2z7v09Q6J9+M94wyQl0kIi9SSPnmuI9/VJ64FNojPsRnvC+uTSvKMMalExaRy5BrX5+nNNHMNyVZMjLE1WRy6mvqHl+fhqKNKOE02jmaoWREj3vqT3t1BTkOe24jP9lVVJcdY5W5M+LycbN4pkz5ZM1dXssNpCSowcfvnag252uCE9tg08G40CnHVuFHkaj8u+Ao3PWKavsd8FQDXzzeu/8GmJDQLn7y/C3/SpoNYmFaBllcmY+7rt2CWqS+eIyfzLP3zWsai3i+hbQPo9g1YUqZvciwYjTgiO1VB1vTJVgzyXn3kewYntMOm61gw6buy8dlrxpi0B+u19UWY/7Jh/Ws/46RVohaF9vXUDTfP1LpTyDuSidfF/kxaVofKBcaqesWEzwfIgVxk0hcVVftSNzlCj0z4fs8brLvNhFY9tH4Q4bx3EaEcJ39Kw9Q/fYE/rcqstl9E7UWiUVW1h/YCaBWtaiwi0dy9twklHyTv0/aNOOfJcx/5jjtadcfaAZMQHshYRekm9yIAAGoLSURBVDURjzETkzG8VyLG3NwZr93fCzNvTkSfRmqzcOCLXVhvSAQtGKvcjQmfD2natGmth4WVA7VszzmFBcerqw6n+iBvTrzgylugD85OvmzA/ePww79M0yA8opq7yOGmLeuvwwB9tZKMF0zbPrgZS2cmY4Bsm1laivX/3owXfqpi9LOWMeiiZnEyFyfVrHNi0TXcQRStdQAVwprYGRGNqDJ5zpPnvukdr9FXkFebltxXfF5j1RL5rnhMfNEYk1IwXFsfhUdeMax/MQUtxWPbmW/rU4AjZ9RsLcR0S8ELf7wOs8b1wqB+nTF+3HV496/X4p6m6gHl2di8X81bYaxyNyZ8PkTW9DVq1AgJCTUbEU3WDIaEheL6TR+pNeRK/+5zK/7SYwhCeVN1kkLC0bJHCh4ZZGrKWY5VP5nb01TWWDxezSK/1NKfTziZaekT0aWl/cKfq5q2hr1Go53jb3AcQAtPYZfsDF+YC3u3/msbk4y2ap6oOvLc90K3G7Dk6nFqDXmjj3rfgufF5xTGWNXgNG1s6beXp/r16XJxxNxvLwrtzKNL10BQc/TqqOaFYgfJGmOVezHh8zEy6YuMjETLli21QV2c0bhJE7z9y4+4WF79PVWo9lqFx+DA0Afxq6TLeO+ihkr8jZXY/TMrwoGjlnYtMYaSzZKzp7E9LRclpqAWnoheptLXc5lYZ45qudi83ZTwBaFXJxkR7WiVgt/buaPLwfM/4sMjGzDZXmlp6UFc/927aHzoqNhTW03wUBtHd3knsk827xzdvDN2Dvqtdm4k7yE/j+033ItbWnThbYIaqC4dG6s5YP1PRyzdDPacsNyuoXM8uqpZGduy09Jx4KwhwBUVwCpXNClPxxZzY7IQtGyiZm0xVrlV0GOznn1WzfugS7h06RKiQxtW6ZRM+mSyFxsbi9LSUm1yRDblzEc5btyyUK0hV7i5eSdtwILm4Ww87ilFRXY7CtSzEhz46TiOlgehx5Vd0c+2s/uZXfjNH7fi87RsnMktQv7ZbBwVQXLhxzvw/n7TeNJBuGVcPwxIFK+2ZT2ufeUAVmxMw7z0YNzdL15sjUSrigws3CXv41CGnTtOoiyyGAeX78Rf96ge6zEtMX1iazSzW64Qi8tFwH3/Qr54tkFFDr65cAYHHY2MJs6l9jRqfB0WtHWQXNaD+hiQyl1On7ugDaQVGBSonYPlT21ZTPK8LCfJ9NOiYcaqoIBA7Zz423a9sTs3EwfzTfcbIU8ZJWKVHFG1XWQc+5d7iHtiVT52b8xEdkQ4UgZ2QA/bS5NmAchZfwJ7ZaZ3+gzWZZehadYvePHTUziusr8+N/XG+A5ywLlSrH/7C/xm8Ql8vvoADid2wo2txbksaw/ufWQz/v6/kzh+Vlxp5l7A9q178PcPDmJNvv4aSGqPZ29vYTXatAVjlSs4ilMBWYUOjpwXk4FT/1mBiooKNI92zQ3KfYE8Fvn5+cjOrjwSkrydgxzsZdDmj7HhLO9M4ipv9RyO37bvzQ7vHpaT4wVjMZ9KxaQ/p1lG2bSj3eCrMXdyGy0Anlz2Fcb+V9XaJSVjqda/QijPxsLn1uMte21WREo4/OGb8EKVo31exDc7/oU7TPeQqK2gdlh89Wjc6MJBZmvbL9kTdh5KR7C4SA4OCUZISKj2Uw6IpQVVLenTM3BTwsdYZVFUXoa5x1LxEAcO85i3eg3HfW17a7Wv5DleEauEvJ824o6/iaRQLVtpk4zFz6SgnVZGJeLRLBGPVE+ELrcNwsdjRGJVXbwLicIjz9yEiVVWujFW1TeHcYo1fL5NXljIm7NHR0ejuLgY5eWWP5qExERsPH8cLxzYpNZQfeqlblA7ML4tm8V4AfeUmlYjMgptggtwJqcYeYUVKDEVp4WHoF2HFnjooWsx64YEmGJSTGwJ9m4/i+NlQegzohd+1UnduTYwEr2uS0LHi1k4nFWMHFniKpKK+HbNMP2P1+OBbtWVNIYguVlrRJ/ea2meU1MBsXihxx34tYtb47GGr2EIFseoR0wC7kzqie+yj+NMcVX36KL6JGPVmgGTMKhpO0QFN9xCB2/hFbFKCGvZFrd0L8OZjFxk5unxKjQmHNcNuxzv3d8NLc2nq0g0DTqJb3YXoTAsFndN6Cm+U3J1FBpXZOPM2XIUlljiXUyjKAy4sRvenN4PAywtRx1grKpvrOFrIOSJRCZ9snZP3nMv6svX1BaqT692H4LHOl8DcYmn1pCneUupqVepOI2Pf1qGPxTI5qE1ENQcH/Qaj3GG4bVdhTV8DU+FOC6P712L1w99r9aQq/y58wC81H0QY5UXYayyg7Gq3jiKUxxZws/IEgg5Kqf8cLNKCtVaqi/XNEnCoRsfwqMdr2YAJe8X2ByTrpqKnW3aoZdTZ/sw3Jg4EkcHuCeAUsMUKBJiedsGOaCLPKdS/ZPHdc+Q+/FYp/6MVeT9GKtcjjV8fuxCaTGe378Rf03bqtZQbckmm/NSRmujmvF2C96JpabVqCjGwdM/YvGpY1heWID0smJtlLNGwWFoG5aE8U27447W7ZDo5u49rOFr2ArLy/DvjJ/x6O5VyCszjxVItRQjYtXfeo3AhKQe7FfupRirqsFYVSeO4hQTPj93rqQQHx3/H/64+xu1hmpKlkQ/3+16RAbxe+bNGER9ExM+KlC3DHpi7zq8nfaDNk8193CHq/BK98Ha94/xynsxVvkmJnwewCBaM3J0tAtlxXh637f459Edai1VZ1LrnnilxxBEB4WiUYgLh36iesEg6puY8JHJ+dIi5IlY9ec96/Bpxs9qLVXnzqTL8LJI9CKDQ5AQqgZ+Iq/FWOWbmPB5AINo7cjEL6vkIp4Sid9H6f9Ta8nW5Na98Hy3G9A0LBJRLCX1GQyivokJH9k6X1KEc6WFeHLveiw6sUetJVsTWvXQWp80FUlek9AItZa8HWOVb2LC5wEMonVzsbxUK0l9Yf8m/OPoT2ot/aHD1fhT5/5oHBKOCCZ6PodB1Dcx4SNHcsuKkVtajJcOfIf3GavMprZNwZOdB6CRiFVM9HwPY5VvYsLnAQyi9UMGU3ks30z7Qbsh7vHCXLWl4WgdEYs/JF+N37brjWBxscZ+D77rwoUL5nMD+QaZGDVq5DtDrDHh84z8MnmToUv44Ggq3krb1iBjVZKIVfeKRE/20ysV36dmYVFqC/kaxirf40uxigkfOZRTWoSooFBsPZ+BOYe34otTB9QW/yVH25zR8Rr0bdIKJRXlbLrpBwoLC1FcXMN7+JBHyfuFRkT4Tg0FEz7PkiN6yhu4f38uA39tQLHqkeSrcW2T1sgrL0GTENbo+TrGKt/jS7GKCR85RRstTRzfrzPTtNHSNmanqy2+77r4Nvhjx34YmtgB4tIMEeIPgvyLDKQlJSXmcwR5J5kQhYaG+lSyJzHh8x7ytkPyMC85sU/rk+5vseq+dr21ZO+S+C82mIOG+RvGKt/gi7GKCR/VmOzrVyaO8ZrMXzBfBNRVIgksFcfbV4SIC7Dhicm4v92VuK5pW+3+eWG8hx4R1RITPu9TXFGG/LJSVIhj/cXpA1qtn8/FKvG9Gd4sGZNbX44bE9trN6ZnkkdEtcGEj+qkQATUSPGF2ZN7FqtFMP381H5syc7Q+lV4Cxkk+zdJwm0tumKYSPS6xzbVRiblACxEVB+Y8Hk32Txf9vdrHBqO1JzT+PL0IXyT9Qu2nBOxyosudQLEfwPikzA4oT3GtuiCKxo105qrsg85EdUVEz6qVzKRChMXOYcLzmNz9nFsyk7HrguZ2JOXJQKXfhNdV5KBsXtMAno1SsR18W21RK9jdGOxX+VsqklELsGEz/cUiARQ3p8uTcSqn3JOYV3WUewQyeBeEatkKxZXk/Goh4hVPUVSN6hpO/Rr3EqLVTIxjWEtHhHVMyZ85FIyeJWLzyVaBNY8MX+qKB/HLl5A2sVzOJCXjSMXc5BVfBHnSwuRW1qC/PISFIukUY42ZiKbtYSLL6kcQCY2JEy7PUJCWCSahUVrI5R1i4lHx6gmaBvZCHFim+zDIZtpxgSHqlcgInIdJnz+obiiXIs3MlYdLxRxSiSDBwv0WHWmOF/FqiLtlhAFIlbJAk7bWBWmxaoQNNJiVYR239bmIla1Co9BFxWrOkTFaXFM1t7Jx8vnERG5EhM+8iiZDJaKICubgAaJoBckLojE5ZHWDFOSn6hsclMuPlPZLEf2HZTr5GNCxYUUm2USkacx4fNv8tOSyZ2MQ5KMTzJeyVv2yHn5qZpilYxRMqbJn3JZbg8JDNJan+ifPhGR+zmKUyxuIreQCZ6svZPBUA6cYgqgJnJOPkbW2EUHh2o1eLJkVJaeMtkjIiJXk3FINsGUMUhOpnglY5MpWplilVxvilXy5ufyp6zxs0Q1IiLvwYSPiIiIiIjITzHhIyIiIiIi8lNM+IiIiIiIiPwUEz4i8l3LJyKg5xwcUYsmKycHIGDySm3+yOvdtUE0zJNa79gRzOlpeLyYJi5Xm9xE2/9K78tmv+y8D+29GtfL4xPQHXMOq2VFe33z+5uISq9kOK7Wx8/mtQ7PQXcHr+PodxwRz5loXm+9jYjI/+jn7kpxRDt/ms6ptYk7K23OpZXP9a6l9tk2Fmlxp6p9qnw87MY8q/gSgO6v20Z68UqGmFdVXDNus34dm2Nofi9HxHOsrx3s/X5fwoSPiHzX6Im48+e5+K9VQFmJhR8Dd44fqQWeDo+lYMWlS9qIidq0QKyvwsrJHTAjZYXl8WJaOFptdAMZmGbgTnRTyybW+/ULZqeOsglAR/DfBcDsp9X7k0H3CXEcLtMXzcT6GT1/Mb+3FZM+xSibgL3ys09x58vT0V4E3FG7Z5sf+8tfgBm3moKyCJSdZiBlmWlbKkaZAnYVv6P9vh2Aeo7tNiIi/9Met03uhk8/sz7PHfl8LvZdNhW3daxN3JFJ0yik/sVynr10aS+mi9dyD/n7O2BHyp1qWZFJ2phUzD6k9mlZCmZ0sinUO/xfzMVsvKjen/2YJ17/1h2YbXpvh2YDj42ySR4NMa+KmCOTwlGps/GLtm0FUh7rYE42V06egd6mfRXb7vx4lHnbPkxVzxGT3d/vW5jwEZEPG4mJk/Zh7ueGxGf5Qoh0BRNFMDmyPxW4rHel5MmxI9gnntKtp/PPqFciaI3CCuwdL4NNZZb9ao9uKWrWRAui+sWDloyNAVbsngj8rG21GL0Qe2e2VwvqNVP3iXduIhNm/fih43TsNSTI7buKX/rzDn3fDMdZaj9ztiX5rup3iG3GC5nKv5+IyL+0v3Uqun280JD4yGRlH7pNvk2czWsTd/Zhhzi3p3S1nGfd6cjrozB38i94safY8UpS0M2UeHarHH9logvtfQsOY157TN+9UER4pWM38ariPRsfZIx5DmOO8ThLI/HiXyzJ98gFxiS5G3pfJp62X0Yj8fsXTFfPEez9fh/DhI+IfNrI8Xdi34L/mhMGWTuFSRO1QKEF2Z9nYJTTTTH0kth9DkvyVBOWSs0/ZLOQiZhjbP4otlk1h7TT9LQSEbQc1UCOfFqWMHbQavW0EkuRlM02BLiVz8+wBFHx7hdeMgTLKuzbLSJYSjdzYDvy+gx8qo6frUoJdKVk2n5AtP0dFrbBmIjID3W8DVMv+xQLTc0YZbLyczdMvVWe+aqLO/bIwk7g0zEOmsSLRMocewzNKmXs6P66sVm93GbdrLH6pqRij2futUqwzDpOx2xZu6Y1qdRbgeAvLxriyUrMegzqfQtVxDwrh/chVSZkhoBjHfOs2cacSomx3ULGKpJomwJOX8SEj4h8m1WzTr2kVGvOKckaKtWEQwtmTjQdlIFMb4ZSOfjJZjeyVFNv/qE3q7Rs/xRzoZrkHJqNbh+PQgdzc8gVYh9nYJYTgdQh8V5W/EVeFHRAh8f24c5lxoRO1sqZLh5qQJauisRxhTng6gmY+fgZyeadIlDP/lwv9dSSPyt66WgllX6HYL4Y6YAdL1+yf+FAROQ3bJp17tthbs4pVRV3HBm5QDWl186lhr5yWrNKWLoyyNc1N8UXv/qxHZiotq2YtE/8Tkuzxl9k7dcTThROVmHkAhHvRDwcFTAKn142GyuM53eZOBnet3Nk806ZOK4w1MZVEfOsYo6exBlpLVXsWDlZ7O+kFYYWKIYC3id64xcnC1G9FRM+IvJxhmadWqmpbSmcrO1SSZdIwpxJ+rRSRy1QirA1xhR89b6BMuEyJSszRCDRm39IhuCjNf8wJJ6OkqEakP0cjAkkxH6Z+/DVJoia+1oYgpjd4yeZ+utZmr9UDpqVA6vd3yGZjq+YJn4mjqUztZ9ERD7M2KxTtkSp1LLBbtypmpYoiudo/as76Umf1jdQS7hUsjLmU0tTfMnQgkNr+mhMPB0kQ06T5/wAQwI5eS46GAZQsfu+q2Hq32hVMOgo5lWKOZVjb+XCSrHO1M/PqrZRNivV38elz6EdT2c+E2/FhI+IfJ6pWedKGegcNEfUEj8RSGvUX0wE4BWTrJM6c2d0NbmndkovzTQPyKLei6kpa42DqAyKneZi6iHrTv7ahUKl4yeb+4zSBlqxGkRA9s0wXkRoDE1uHPwOW7KpauXXISLyM+ZmndW0yKgUd6rXfuYKzL7M0KR+kvUAMJfcVDulx5DZloJBbb9MTVlr3hJFFnTKPn62zT7txjy7MUfv717pWFp1Y+iODgum4pfdhj57trSmqjX7TLwNEz4i8n1as84ZGCWbOtprjqho/fvs9iVzRK/V09v06zWJM553ooawGno/ipoEDllKaT04jeW91DSIVq6t09lrzimbtOgjwVUaMc6mT4rW989c4urod1Qm+2Hsq9HAOkREvkg16xwjmzpW1SLDGHecpPoEygI3vSZxRg36Azoiz//2bqvgmFZDaBycxrBfNW2JYr/WTbIX8xzHHOt+/rIPoSHOLVcjeVeV7EkimZxR08/EyzDhIyI/oHdgh02nahkw9OaX+mQ/eBjZDMoSYJ3sjFyg99szvmbNm3joiZXWqdxpsmmJoS+imMzvpYZBVOunIH7KJkOW9yGC+trKzTnlSGyy2aqlGas+6e9Z7NPns5GqXscYNB3+DnHhYLwfkpy0vhbVBVsiIj+gJWPip3XtVNVxxz7Z8sLwHGOyI/uuG/oDalNtms1ryZr9gbgcGr3Q0K/Qer9q1BJFJFiyABc/z0AH02vJSXbJsBPzqoo5Wo1piul1jMdWHEPZ3NXY/FVO8ljJ2kLjOvE+UO1n4t0CsgovXVLzPkNWT+s/K1BRUYHm0SHaMhERkavsPJSO4KBgBIcEIyQkVPsZHByMoKAgBAYGigsDvQxVXiBIjFVEROROjuIUa/iIiIiIiIj8FBM+IiIiIiIiP8WEj4iIiIiIyE8x4SMiIiIiIvJTTPiIiIiIiIj8FBM+IiIiIiIiP8WEj4iIiIiIyE8x4SMiIiIiIvJTTPiIiIiIiIj8FBM+IiIiIiIiP8WEj4iIiIiIyE8x4SMiIiIiIvJTTPiIiIiIiIj8FBM+IiIiIiIiP8WEj4iIiIiIyE8x4SMiIiIiIvJTTPiIiIiIiIj8FBM+IiIiIiIiP8WEj4iIiIiIyE8x4SMiIiIiIvJTTPiIiIiIiIj8FBM+IiIiIiIiP8WEj4iIiIiIyE8x4SMiIiIiIvJTTPiIiIiIiIj8FBM+IiIiIiIiP8WEj4iIiIiIyE8x4SMiIiIiIvJTTPiIiIiIiIj8FBM+IiIiIiIiP8WEj4iIiIiIyE8x4SMiIiIiIvJTTPiIiIiIiIj8VEBW4aVLat5nXFK7fOlSBSoqKtA8OkRbJvJ1haUV2H6iAHsyL+JoTjEy88tQUFouvuvqAV4qIACICglCYnQw2sWFoUdiJPq0ikJECMuUyH/sPJSO4KBgBIcEIyQkVPsZHByMoKAgBAYGir8D/fseIP8gBMYq8leMVUTeyVGcYsJH5AXSL5Rg5YHzWH8k1+sDprNkYB3UPhYjuzRGm0ahai2R72LCRw0dYxWRd2PCR+SlPt55Fsv3n1dL/ml018aYdEVTtUTkm5jwUUPGWEXk/RzFKdZhE3mILCl9fHW63wdQSb5H+V7leyYiIt/BWEXk+5jwEXnA/qxCPLs2A7+cK1Zr/J98r/I9y/dORETej7GKyD8w4SNyM1ly+JdNp5BfUq7WNBzyPcv3ztJTIiLvxljFWEX+gwkfkZu9u+10gwygJvK9y2NARETei7GKsYr8BxM+IjeSnd4bUtMYR+QxkMeCiIi8D2OVjrGK/AUTPiI3kU1DGkKnd2fJY8HmMkRE3oWxyhpjFfkDJnxEbiLvXUTWeEyIiLwLz8uV8ZiQr2PCR+QGhaUV2o1qyZo8JvLYEBGR5zFW2cdYRb6OCR+RG2w/UQB1D2Y3aIY3ftUJ8wc3Vsu11Qz391Wzwv0jO2HxyGZqqX7IYyKPDREReZ5bY1WXVpgvYtUbhjhTG6P7NsNoNa+/ZjKe7qKW6wljFfk6JnxEbrAn86Kaq7nRg5OxWARFq+m2VpYAZ0Ume7HAkUO4Z511ExSZsNUksI4eHI3B7dvifrXsKnU5NkREVH9qfz5ujKdvs4lTYnJY8CgTs5RwHEk9hGnb1DpJrncY3+xpJuJULG6rcwFn9RiryJcx4SNyg6M5dRztrOQiPv6/Q7hDm87iZ0Rikt1SzDOYJh5jFUA1jZEYrmadtHxdmvhdx/C+WnaVOh8bIiKqF3U9HxdknlVxSkypIkFKbGq/gPLACdzzf2l4/oBaNokLRpSadY4e82wLOF2BsYp8GRM+IjfIzC9Tc/XhPJ7/7yGsyw3EZcnGJpZ6U87KJatyfVNcFgq0aq9vM9X0ac007T5H1Sw6LGmtXJpb22Y59XtsiIiotur1fKwldbk4ERqJwcb4oJpy2sYOLea0F4FKPH6S3GaOP9axbbFVYae+zWH8sfldi39V+1YrjFXky5jwEblBQWn937z2/ewSIDZcBS+ZgMWiVW6uKl3NRU5iUxUEZQmoCLpi7sQRveTVVAN4Is1QGnukBFGJsU4Fw9GDm+AyGGsd7dUqOscVx4aIiGqu/s/HZ3AgF2gVbyqcFAlaSqTInlTsSb2IuPZ6AidblXycWWFp0fLfE1iuPacE61ItsaZyYacjIi72MPwubap9qxXGKvJlTPiI/EGXSLQPrcDPaWfUijNYJwKnJcjat9w41PS2IpEUBiPRic7uywvKtFJYq1JbIiKiqvQNRyuRwG0zNcE8cALbRALXvlVVffDOi1ilZgWtsDM82Il+fueRWQSnCzKJ/BkTPiI3iAoJUnP1Z3RUsJoTtH4PgbgsxdJ0ZVKi+POuJihaN+mMFYHYSduOqZJZ9dw6jN7pimNDREQ1V//nY+v+43rcCsVgc9zphMGx4veGh+oPsMumSads9umk91cewseZwebfV9uuBxJjFfkyJnxEbpAYbUjO6kVjpMSJP9/cIr15Sk4ZCmSzF3OzFTWZm8RUJvtLDI41PEckcDUadFrrnyGfm4sTsbG1vg1E/R8bIiKqjXo/H2utT4AT2XrrE611iNUgZGpaaWqdYsu2u4JM4Gp2Pzx9ADLx3CMlaKWaj9YGYxX5MiZ8RG7QLi5MzdUH0yAsIlkzBckDF3GkJBSDHda0leB8CRAXZZOUlZRpffuk0a3CnR4dbXQX4+vor11b9XtsiIiotur1fNy3LRanRCJKJGvmPt6y60BopMPbKOjdBYIrtTYpKDIFGVXY6ZTGIlapWUkrGK09xiryZUz4iNygR2Kkmqsl06hl2mQq7TR2Ppcjd57Fz+GxlmYvVs1XxPYTclCWpub1y9fla4HX9Lq3IR8/O5u4tWpi+D0i+cRF/LeWw2LX+dgQEVG9qOv52BRjtKl9qD5QmFXtnT6ImBxUzBJDDLVu23JFHFJNPrVROq1j1+JfNQFOON8aJaWH6XeISRss5lzlW0E4ibGKfFlAVuGlS2reZ1xSu3zpUgUqKirQPDpEWybyVoWlFfjNf9PEd1atIE1AAPCv25IREcKyJ/J+Ow+lIzgoGMEhwQgJCdV+BgcHIygoCIGBgeL7rH+PA+QXW2CsIl/DWGUfYxX5Ckdxit9cIjeQQWJQ+1i1RCbymDCAEhF5B8Yq+xiryNfx20vkJiOt+r2RxGNCRORdeF6ujMeEfB0TPiI3adMoFKO7MmiYyGMhjwkREXkPxiprjFXkD5jwEbnRpCuaokMTjvQlj4E8FkRE5H0Yq3SMVeQvmPARudmDfZsjOrTh3sBVvnd5DIiIyHsxVjFWkf9gwkfkZrJpyGMDWzTIQCrfs3zvbB5DROTdGKsYq8h/MOEj8oCuCRF4dkhSg2oyI9+rfM/yvRMRkfdjrCLyD0z4iDxElhy+OqxNg+gcL9+jfK8sLSUi8i2MVUS+jzdeJ/IC6RdKsPLAeaw/kus3N7yVN6qV9y6Sw1kzeJI/4I3XqaFjrCLybo7iFBM+Ii9SWFqB7ScKsCfzIo7mFCMzvwwFpeVeH1hlwIwKCUJidDDaxYWhR2Ik+rSK4o1qya8w4SPSMVYReScmfERERHWgBVIROIODQ0QgDRGBVEzBQUz4iIjIKziKU35QpBGACp9LWYmIyJeUi4TNPpnc6Qle1RiriIjIdaqKUz6e8OlBtsL3KimJiMiHlJaVqzlFhB/rNK+qpI+xioiIXKuqOOWTCZ+puYxJWTmDKBERuU5RSak5cNqEICvG+MRYRURE7lJVnPKLXqql5Y6qMImIiOruYmGxFkH1JE78lGFV/99pjFVEROQqVcUpv0j4illqSkRELpQvA6miYqk5mDqLsYqIiFylqjjl8wmffEMlIoiWszc8ERG5QElZGQoKi0S80UtOtUkFUS2caj+rxlhFRESuUl2c8oMaPj3YXiyx6ahIRERUD85dyLcOoqZJxR8VUauhP5axioiI6lt1ccqnEz75RtQcgygREblEtlUglffbM83LGKTHIX3ePss2xioiIqp/1cUpP2jSqb+ZsktAfnGpWktERFR3WedzUVJaJuKMfmP1wEAVTMVPMSP+NwXUqjFWERGRKzgTp3w24TMGWC13Fcu5ReW8zxEREdULeRPbU9k5ImjqgVMLomLeHExlIFWPlYxxyYSxioiIXMXZOOUHffgE+WbEJOPn+YIStZKIiKj2Ms5ko7y8QosvgVoAFZNWaip/6nFHxh+nqecwVhERUX1wNk75TZNObRLZrOwfkVvIQEpERLUnm8hofSJMAVSbggzB1BB7xFQd42MZq4iIqK5qEqf8ZNAWUzDVM9rzF0tQwD4SRERUCzl5BTh+JtscQIOCgrQpMEgsi0nGGVNTGRPjvC3GKiIiqk81jVN+0aRTD6AqgxXZrHzjWblFKChiICUiIufJIJp2IlMLlrKkVAugWompmDeVnNawds/E+BzGKiIiqo3axCm/aNJpor8p+SbFJLLbzNxCXCiw3HWeiIjIEdk85hcRRGUMCVJxxFRqai45FetrUrtnwlhFRER1Ves4lVXo+0OFXVJvQf68dKkCFRUVWgfG8vJylJeVISosCAmxUeIAVB+UiYioYZGjnMmO77IvhJaEyRJSLYgGIzhYBtFgBAWLSQuolYOpMwmfxFhFRES1Uec45Q8Jn2QJpDKIXtICaYUMomqCWN8kOhxx0RHa44iIiGRpqRzSWhvlTAui1qWlWhBV84Fy0h6j19BJziZ7JoxVRERUE/URp/wm4ZP0UlPLZBtI5RQkYnOjqDDERoYjRGTERETUsJSUleHchXytpFS7Wa0IjjIgmoKoqU+EcTIFUS1wGqbaYKwiIqKq1Hec8ruEz/SzUiA1BtSKcm0+PDQYkWEhiAgNQWhIsBZUZXtYIiLyD/LcX1pWjqKSUlwsLEa+mAoKiwzBUATHQD2IapMMnCqQ6vP6OtsgKpl+1hRjFRERmbgjTvlVwic5DKTaJINnhQqiallbLx9XYfUc9SLwq4NDRNRAaSHPEAAtkwygpkAqg2egFkj1ju96AK0qiNaWKc4Y4w5jFRFRw+XKOOV3CZ9kCoLGoGjqIG+etCAqJhk87QRS0/PtYmQlIvJeDnIxYxDUJz2Ian0itHkxqc7ulgBa/8meiTHWWCYVmxiriIj8l5vjlF8mfJJ1INQDoylQaj+rCKD6pD1b/bTll4eMiMhPVI6keuyTwVAPhJZJBkzxUwVT7adcNq3Xnmj6qT+3PukxirGKiKhhqRxL9PAi440eayxT3eOU3yZ8kh5AddYBUk4ygIrAapg3b5NBUvtf/0lERD5OBlD9H+2nOZCagqZh3rxNTSbG+fok446JJUaZJsYqIqIGwYVxyq8TPhMZGG1/2k7iH31eBU7TT+3xhn+JiMiXiGCo5kxB1PRTC4yGgGmctIfb/HQ1LRbZ/LSdxD/6vIpRpp/a4w3/EhGRrxBxR82Z4pPppxZ/VFyynbSH2/x0pEEkfJIWKBXTvP5TBk/reflT/W9gvURERL7AEgS1OfWPHhtNgdMyr80ZAmd1QbS+MVYRETU0hphj+McYm4zz2pwhNjkTpxpMwmdiL5hKlnlTIHWkQR0uIiIf5TgAmgKnPm8/aDoTQF2JsYqIyN85jjP1HacaXMJnYgygJvbWWWMAJSLyHVUHQ3vB0tOJni3GKiIif+aeONVgEz6j6oMnERH5K29L8hxhrCIiapjqGqeY8DmJgZaIyPf4SjJXXxiriIh8izviFBM+IiIiIiIiPxWofhIREREREZGfYQ2fk9hMhojI97BJJxEReTM26XQTBkgioobLV5JCxioiooaprnGqwSZ89gJn9cGUwZaIyHdUHSDtBVBvS/4Yq4iI/Jl74lSDS/iMgdL+PG9mS0Tk+xwHRD1W6tuNgdPRvCcwVhER+TvHcaa+41SDSfjsBcyQQNMUgCDxM0gcuBocOyIi8nIV4nRfIc75ZeWXUFpegWLxs0RM+rlenvNN5319XpszBIKaBNT6wFhFRNSwuCNONYiEzxQ05c8gcUzCgwO0Sc4TEVHDUi6i68WScm0qE+FBD6bWk2T709UYq4iISKrvOOXXCZ8peEoBuIQoETgjQhg5iYhIl19cityichEvRJwIlEE0UAucxsmkuoBaW4xVRETkSH3EKb9N+IwlpRHBQHSIPDjaKiIiIjPZlOZ8QYlWkhoQGIhAFVD1nzJwWAKqo2BaW4xVRERUnbrGKb9M+IwBNCaEJaVERFS93MISnL9YIgKoDKL6ZFuSKtkLprXBWEVERDVR2zgVqH76DWMAbRTGAEpERM6JjQhF0+gwlJeVo7xcThWoqKjQ4olpkkw/68L4WoxVRETkjNrGKb9K+IxvUgbQMPZ0JyKiGogKC0FCTLg5mFbIqZ6TPuNrMFYREVFN1CZO+WUNn2wawwBKRES1ERUegiZRsgS1rMpgWheMVUREVFs1jVN+k/CZ3pjs9M6mMUREVBeNRCCNCgvSAqltMBURR3uMbUB1BmMVERHVh5rEKb9I+ExvRg5nLUc4IyIiqquE2CgRYCr0YCqCqB5ILSWokumnMxiriIioPjkbp/yqhk/eu6ieBk8jIqIGTg533SQ63FByqpeeVlTYbzLjDMYqIiKqL87GKZ9P+ExvRHaDYPMYIiKqT3HREVp80YOpdempiXHeEcYqIiJyBWfilN806QwPZgAlIqL6J/tJyFLTcjslp8aAWh3GKiIicoXq4pRPJ3zGQMsgSkRErhAbaWouI4KomC7VsJaPsYqIiFypujjlF006Zd93jmxNRESuEBIchPDQYK30VCs5lUG0hrV8jFVEROQq1cUpv2jSycHOiIjIlSLDQgxBVP5UiZ6cnMRYRURErlJVnPLZ8KO9ASUkkEWmRETkOhGhMpCK4CmDqFZqqjeVMaZ7xrhkwlhFRETuUFWc8vnyRvlGglhqSkRELhQaEqwFT3MQFT/FjB5MDUmdI4xVRETkSlXFKZ8OP6YgG8QbGhERkQvJ/hF6cqdKTNUkIpG23RSP7DFtY6wiIiJXqSpO+UF54yXewJaIiFwqKDDQKoBqk/xPy+UcJ3sWjFVEROQ6VcUpP2jSqWaIiIhcyDaIyv/lP87EIcYqIiJyNUdxij0KiIiIakBL3rQ4agqmRERE3sM2TjHhIyIicoYqNdVDqB5E5RIREZFXcBCnfDLh098I+YuMxYvQeeyH2jR9q1opOFrvO3Lw2Z/1/e/80m4Uq7X1xbuPTybm/UG997ErsUGtJfJlpshTVQgyxifGKv+yYY7pnLYI8zLUSsHRet+2F9NVfOn8hy1w5m3553Eg8i2O4pSP1/C5KpgaL1Ztpl8txOQP9iKrXD2U/EPGFow1fcZOBrfqxWH8ne2QIGd/PIzVRdpKIvIHIvxYR6Cq4pGrYpXhotxm6jl5EaYvO4pc9UjyD5akylcLQonIbQxxyg+adLoqkDpQVIitK7ZgwIwtSGPS51Jh7Vti/JDW2tSvmVrpa3oOwOO9xc/QHGzdyS+MT8rci+dmzEdPw4X0Q0vS6r3GtsbOH8UbM+Q+2S9Nz929DdMN+z12cabaYqHVEt++EhvMX81yZKxehgG3i+fM2avWKeL3LXx9EfrcoY7Db5dh3r5CtdGgXCQh4vn67xOvt2kNJj8wX3tO59vnY+zfbArM5PH9g9p+x3xM+CDNkKQ48XyzQnExLB/n7toFGYOciUPujVXFuXlYPm8NbhKfI5M+10roocep8UNaIjlKrWyAeBw8K3ffFjxkOleKqc8DS/Dkt5XP++5VRUyRSrKx+oMluOlX+j7bbRFkFVMUh/HP+ZhhFf+qjW+FSF28DIPV9j4PLMNn6WqT5Gx8lNK3YKyj4+EyHLTFCUHo3s9yEkuJVauPiIuUr3PUArlCwlUD8dLDw7VpfHu10udEYPTj92D34nvwUr8gtY58RnmaSPa2YGFmJCZO6Yt3pvfElI5A2nkgTD3E/VQAvXcN5hkDjkHu1pW46and2BrUGo9PH4gFzw7E4/3i1FaTk/hsTR5ih3TB9fKrqQXQ+Rj8j0w7CUI2Fr60Bs/tDcK4u/TjMCYoE6/OWoHPstVDlOJNh7G8PE6cLxNRvGMNJsw5iqwOXTBnel/MuTUOWWtFsBNJnab8ON6YJY5vThweeFBsHxOHjBXrMVkF9mqfb5C7dT2e2GQ3E6xfWt5mSt7cm8RVLRT9VAHZ+CHxSFanm6xN2/DGbn2eXKP7CD1OvfTwQFzfWK1sgHgcPCh7Ox6atRerEY/Hxbn0nQe7Y3hcMTILQtUDPKDKmCKUZ2Lenz7HQ98Uo/ttffDOs4OwQMSW7mqziTGmVBf/nI8ZxvhXfXzLXfs1JnyaibD+PbXtw5GJJ/8skkWt5Zbz8VF7z2/sxV5Xhyo7cSogq9D3OhmY+kXod5OvQPPoEG25/sgmncvwqvZlisHj70zAlCRtA7BvDQb/+aje5K/bFdj8Sh8klOchdcUWvPHVSWw9pX+KsY1jcP2tffHMqHaINV3ny2aDD4kPWsx2v3MMFrTfg4fEl3BreHese7s/krSSCXHR8ulxy+u0iMO4Owdh2sB4wwWmc4+TTT/u26TPj378Xszpp89DXAx2fvWkNiv3Y+kd4o+oun0rOIqF74oLhx/zkFsiHhQeIS4ueuHlu3siqarziXZsNuHVJSeRqv7iYzu2xLS7B2JizxhtWZayDP40T5s37qej9Y5e88E7+2NKb8tFrfn9txHvYXYX7P2H+IPcnIcs+QcaHoMpj4/B41dEWB0PKwP74+B0/dSTtXkNpn9iON4278Ge4lO78e4He7HwZ3XMQoOQnNwa0/4wCMNaVJP81eK4PV4u9vGjo9gqr5XF5zP6vlGYM8RyPJzbH8fffYefh+m7sVW8rjg8Sd2S8cxjPZD2jOl1WuKDpSNxvfZgH6P+LmD6O7FHvP95czbj3f8Vmt//y7MGoZ9Wwi2b3G0BHhyKHls34o0dJSgODcWwu0dgTvcjmP7KbqzWPi/D97Fahdjw5jJ80lKcX+JSMfjdEutzlExSJ6/H8iv6Y93M7jCVUVWyew36PHUco1+4B8/0FMvpWzB5dh7u+nMX7Jm1Bu91t3z/NQXi8xX7aT6fac8/iuuN3wXk4bM/L8KTUOdGsSb3fKE4H5rel9peoM4r6jX6PToZ79wgTyQlWP78Akw/0A6LFg5FilhT5fPVWhSI4/zANuDyOCzfZHM86tHOQ+kIDgpGcEgwQkJCtZ/BwcEICgpCYGAgAgL0MtQAdcM918cq/fu1XJu3/jvLXf05+ryrX23EjhiE7fcn66Xpizdi7upsy3klScSOCY5ih3jNxVcg861NeE38fV8/U33WsjT7Q0M8EOeSlKu64/F7+yLFeKHvxHmspuccyzrx2LdHInnjKjy3LAex49TfaOZevPpGKpYc1P8ew2JjMGycTSy2Q54f33h7l/l59mKc5bhY76ej9faPUxfx/vujn/l0YvkMZexdNPAMXp2TiuVHSrT9iG3TDu+8MlScT4zHycjwO2sbp7Vjth0L94nzk/gud++XgjmPhOLdO9R3S8ZQ7e/N8H0T8XH3bSV4Qhzr5enNtO8erI7DrUiYJ/6Wd8jlUDwwezKmdZTzkjhHTVyPhQVitncf7H76Cu27Z/8z6IFn7ryCNYbVUdcxVrHZhqwBfOLtA1gtr2NEHOo3ZgDeuStZjxHa84GXXonDBpGQyLgUlpiIp2eNQO+dX+O+TzKRIb5Tlu+j9pJVqyamZC1bggHzyjHt7Ql4oI1aWYltTKkm/glOxQzb+FdlfFOvkd0FS/85UE9ID6/H4BlpSLpvAhaMEucyp+Kj+OaL89dN38VgtEg4l7e1ibH1xFGcYg1fTcVEWi6gCsTJsUScuO5dhAnzLMmAlHteb07TZ4b9/mDFqRtx00sioTLXUOdg9UsLMHiOuGA3vs6pHHEx+TkGv2lqllPN4+qh+U6lfZOl8NP0ZEkLIpLWtHUbBv9uDbaa1tkqEs+bIY+NJdhLuYdP4rmnxPrPzW/eebJ0xMFrvvr8Etz0vrE5mFJwHA/d+zkeWquSPakoD/Ne+MapfnW5az/HgNdtjrd6D5NX2Bbf6DJWLEEfcQH63g7DMSspR9q+o3jogQV48kdHB02oxXFLW7RI30fTJvH5LP/bCrxxRF+s0/5UpegAnntIfTfU4cnYl4b7HlmPZTKY+7qmMUgSJ/C93+9B6nm1zor4PopA9uqppnh59gRsfqMvrslJw+Q/W//dL//HRnzfoRfmTO+DKa1KsPqDZejz58NodLMsiU1GvyDxfXx9M1LV46sWgesfnYAP7mgnTgd2Prcdh8WFVBBGj6gi2RO2bjqO3MSOGC+DndSmPxa8PVwk/xeRYe9rHWUIZlLuRfG3FoRYY+DP3osl+4Bhw3vpfVcFS+CVCnFWXqtHhWoXeBmHs8VrxKB3R9PVaChSusrgKRKSU/qaqp6vK8SG97dhQ09xATDAsrahi421HIvcgmLg1HZMvkucB5dYkj0pN8MUYw7YaaZ8EXOfWYknDX/fxYc3Yey9NvFAnEtSN+/GhN8tspS6V3Mes9fEuGbK8O17S3DfkhztQlRTsFOcz7ZoTanM+6uatg6Ytd1h3+ysb5dhsDg/Gp9niXGrsKE25zLZbMvucdqLyQ8sxHM7Kzf3yv1eXESK/Vh4WE/2tHXpRzH5TScG/aptnM7YhgkPyWMmrmfkcnk59m7ejpv+tFukZVUQSeJ9M7aLZM90wGyFYtiAeDVfgtQDeuKuST+JreqYDhvQXftblq0S7H8GYl8e+Ny6+RxV1kzEKvFj69qdlr8HowyRfM3ai7QuffDV/An46uFmyPrc0ppCdxJP/uUMksfJuNQOydmZeHLGAkz4KgxTH9ZryyC+jw99XOU3w6LKmJKN5etzgG7JGOcw2RMqxZRq4p9QfcywE/+qjG8nsfOg+NEl3lL72LGZViC59ZCqLHAmPopzwvRFwLQZfdBDrXInJnw1Ii6Qvz2u1YJp2sYhKTQZd90Uh4SO8aopjWpOY7p+OXIAc+00p0nbl4OsoCAkd2uJ8VfHI3/FGjz0ozrLBYWi3wDxOgPE66ovUNbWVLy7sxxZ1T1u0xY8tKJuTU1t9y1sx168p84JYUn6+xzdTf/jie3eEt0dlBym/msN3lMJB0IjMEwem94R5j+6vZ9vrlzdXY3UD1bgVdNrNo7DaPmahvef9vXGys2XsvOwV1xwaPtueKxMHlftFD+bJWJ8P/HHqq/V/nC1fe0ha8eyseRLtZOm4y0+3+7hckUMrulpCmjWkm7ojjEtItTj9Wl0F9OBKsdn/92FLLVkqzbHbe+RPPXZGL578kL4R/2Dq8v+VGXvku1YaEiEknuL15bHuEAc8xp+tl4pvCemTYlHQnoaJtw7H2Nf34at2YYLnN278O4RkVxN6IsU+XWJa4dHbxHfifTjWG28uuzYBS/fdQWGDbwCj4/Ti/aTb7sRL43piWHDBuHxYeKzKMjBYbtJZc1kiAt4OWBQx9w1GKv6RVTqT1C+F5+tLUfSdcmVms84RfztvLdIfLfadMFUU8AUMtYeRWpQIsb0s39SyN28FXMzxPG6RQXvUvlPBJJayJ+6hHj1XDvXkZWeL9fJppw74vHyg1UnuA1KeR5WbzqjFoDurZsCLXrgrv4R+nldnQOsYse3u7Gs0vcvB1vFxZZWSyYe3y8hDa8+f8DcHMkUD4aZis1L8vDuv7Zr55Jqz2OfrsBzdWpqKpKBfWJHZC2QOK8Nbx+BjNUHsFrtW0IX/X0Oa6O/weSebSyl+0bZ2zH9b5nm85/+vJboZ6qpzD2JVxfVsM+urGUXF9em42TaF/M5t7wQC/+6Gak23/EMcR6X+yHPo5bzs/DjcWwVfyfJV4vPwNDQIKmn/BxVf7laxekSrP5oN1JN182mGCc/J7Ev5msdew6I74bY/1jt2ifR/PdoFDagPYap+a0/WY5h1u4zKpmMx/ABYsdkc8TXT5o/Ay2OGL9Xudl48j39e0UOtO+Dl0dFIPfH7Rh81wJM/kAk7IYC7dQvxd9tSEs8OKmddp6Mvawvplwu/g6/O2xVEJJy6yBMGybj0lA8KGumSmLw4JPDMXFgT4y+uy8mivCWe+x8PXwWZ5EmkvikDsH49vkFel9zO/3tqosp1bEXM6qNf5XiWzmKxD4ltxDnUTORYMvLv3KbP2LJXnyUlRVviL+o2wdVUZvpWkz4qpWHVx/SL5o6j52Pm5aYSqki8MAt+lcl+fbheOe6SBw/cAbf7xTTgXJ0N191lyP1sJ0r39iWeOfDe/DVKyPx0l2NsWWVKUkLwsRnJ2PBzOF4aeY4fDV7EJb+czIO/t9EPH5FNpYbHjf6j+Mtj/tjovliZ+uqvQ5LMp1itW9drE7k/caM0Nroz3llMra/NwgfTHFwkSX+oD75Rv0hBMXhpfcm4h3Ztv/piVj3yiB8tfAe7F5wK8bbz5fsM75mVGss+HAc5sjXtHr/5Vi4unKYShjYH5vfuVV77AdjLCeOLJEMyhPlS3e1tlwMxLfG4/J1R7RUK5S4lpj2R7H+4VuxdOEELHqhij/cqO54+uleSCnM0b8TYspoGmc5uRzMth9Ma3vc2nfH0rfE+5P79jvLxoxz6vta2/2p0nGsWm9KIsT3ceZEfPW0/nnIJrS1SiS8UPKoW7H5Q/G3MCIGWVt3Y/LUBbhPa4cpjq9WQ1WO5W8uwYB7FunT+3b+3hNjLH9HQcHaj+Q2liu32Ah5WVaOvPqoFdWSqGy8+u9yTHzuVqx7rY/en+DF9aq/Acx9IqbeZPMdd0Z5Dpa/ugJv5MTjpRmGJjLmPhE9MEwrELGWu289Jv81EwkjrsMztQjedp9fsBfP/e0M+j14I4Y508TIr53EfVqckhdOi/DQZtN5JB5TR8nvmki6HhyBaT2KcVidA74/E4mUVvrDZHK387CaNeh+x0hsXzBBOw+NzzqAhabaum5XYJ08p4r177w1DoueFY9bfC+2Py27ORjOY+LCaNpsy3ls6R2mppz2z9U1Ic/r2xdO1OLgA1eZXlcKxejfiL9ZuW9v34PtLwzFnAmGTMkgY22alrhICSMGYfNr8nkjseAdMb02Tut//dWUZHOi6pQfLccpdpjpNUXcfG083hmgMuzco/jkR33WQpxHH9fPo3NeE/HFfCq/iMzzMbj+ruGY2kWtElJGyXhUub+c03G6aC+WmfdBfE5vqGsP8Tltnm65prArSD5eHNvZ8jvQx/75Prw7hstBy6T/nVTHuUQkf+o6prdICMW5wvgZpEwR8VzGEe17NQbTTDF2XxqW1+nCxt9FoN99E8XnPRCPXxWE1BXbcNPEhXh1t8zms5EqrktRdBLTp6o4dc8SPKk1t7WWlGjpBhKmZQgxSDaf5MPQSJ5nZes2fUUd6ElUxte7sLpDXyydPxIfqP529/1HlVxUE1Oq4yjmVBn/HMY3Jzl4ftqi9Xi1vIvD85A7MOGrlSBcf9+Nent0mbVrzVaOY2tGCTKyxZQhPvB9hqrmUnUmM7q8HYaZT9JnscfUXEEkMmMMJeax7ZPRPdH0RbV+3F0DLNXWsQM6WvpIpedU3RSjOlb7JvROwUtX6Puw4d2F+iiFH2wRJ+jWSHGUsJ0S+2B6253b4QbD4xK6JSM5ylTNVgPG1yw4jslylCN1gdPndUOn4GM5NglvBO4abwl4+sW1LrfAwShKZvEYd3c7vdYs+ygm3CGS/j+vxBtrc5DUxfEfrql5imxCqX0nxJS6OdOSVNkrFZJqedxGj+tvHqQhLMr4/vTTcq33p0rytdQsmmGM4fsY1r4LxnioFMslGrfE+PvGYfO/R4oLkHJs+EeqYSSxCEx7+14cXGqcrPsUuF8EHnxMXKB3iRff0yvw0l3iu1pwBt8ekttKsHqjCKjdxN+5o79fR7Rg9jmmH4jDSy/eivHGz/jwASzPFBesA5PVCgst8M5KQ/GNg7DoftVnRNK6tBUiQzXflLLEd1Nj+Krbf36J1pRzeWwz9Ks4jNWbdmP13otifTH27BDzB+rW0sEvBEVg4lMjMFq7SNuL6bJpu2zSqc4BGYdPYrWhqZy8ALMWgzHXtTQnOxnplmZ5/a41FAYGxSHlipaINYUq43nMpslW8nWtLclBpXN1zfQbIM7rhu9J0rA+6u+uBPP+rI9SOP2Tncho2dp8frSVdtz0noIwbIDhuxvVEv26xCHMwfOqYjxOuavXm+NU57ELLYm4kJZuurBVkjriwX6m86i6uNY4URhUmzh99qLl+LdpjdGGzyl2oOGawp5W4vHtqzs4hmad5eL8IwNO+WF8+z99lak5p+UzAFLnLbEcr9uX4Q3z9zMPe5jwVSusRRdMmTkRu+f3xejwQsybZ2jKnNQFX1nFKTG9XYukpj7164MP7uqCZBFjr79rAO4SO7M3NV2vQawiplTHYcypKv45jG9BCBdf9bRTZ9WypK5/ggx/A46en7EF0xdfRL+r45C2RcSmTUewR/49Z54R8wesamJdiQlftYyjdLbGA1MGYuncyfhAKzEVFydrN5ubGHa/Yzh2/0f8Af1nMpbeamxD7OOCEjH+2cnY/c/heOdOETyiLmL1ir2476EF6PnQGnNbfLcSf2Sy6VeSvamJ6arDJFiVVNVO7BVD8dUnE/HVsz3xwOWRyEo7iffeXYUBv16A+1bYBGzNUbz7rmqeImtL596jnVh3L+xjbt5S76qMux7YH38VKoLSleL7pRLkpI7xIpAU4tud3pNcJHWT+1SCzHNqhVCsXcmHIrGR+JGdik92WPezc4o5mMVjzmybZE/YuvooMox9IhRT4MWYoTaB13T88rDjsKmArASp+8XFX1Q8UlQzT8fPF0nFMfG+Tp3Ek3O24SE5LZOfQwmWzxPzX9oZiMmvhRpG6WyHxx+ULQIm4hk1EFDqpyI51krFxAXU9HHYLS/2Fk/EnKu0zf4hKhmPv3MPtr8xCM+Mi0dygfjOLtmOsVPnY8Cz2z1zK6VwOzFKTQm2BXiBQTWrSTTyxjgtWJp1lmPDjuPiav6kug2Mas5pIyzW/rGSU0Llh5MjjbvgBlkbrI51ShfxXcs4g61e09WiNfp1Ez/O6s2YdcWy2ybQJFKLTY5iSnWqijkO41+V8a0lrugsfhwwtIQ6fEbrc9+vk6olrOr5GTnieeXYukTFqTm7sVx+DgfSxPxObDDmkS7EhK9akRhzl968QE7TxnRB93jLSXqvuaNSBIZf21ovDQwKRXGJJbIUl5SpOUeaoofpy1FwHJ9sttQ65R5Jw95M08WQ9eOWGfo/5G4+bKlxaBMHrTzEEEuKC0yvUYgNmy19O4qr2zVNCfbuSENuXGsME0ntgvfuwe4X2mmlQsUZR/GqvaSnhdgH0+/fl4YlhlLkLLGcVlCLyNs00lASFYfH356MdSL51qa3h+KZh4di6d/F/LN96rfEKiMNGzKDkHxFX0x7egK2/3sCXrpCrC8vwYZ52w33MFPEBehWU3VjT1mKpB8IGcgtzSDKxPdCzRq54rjVaH/ENtPvF1svmEqeyjOx+ntLKaweRAzfR5zBMsP3FgVnscccWMRr12K3vcLWVejzh8/x6uKdWg3S8sXLMH2ZOFDdEvVaip698GB7cTH90Qo8uUx8PufFsd60Da++u7NONRepH8xH59uX1LiPq0bbp3Is/OvneGP1bqxevQkPfSReKLENrhefV9bm47XoE5GD1TKY/RiK0ePaI+yALKVUk6xJK0/Dqs2V+0TIAT5k4E3rnIypHfLEsTE9T5VqquO3et4KbV+Xf7ICr4pgnHRTd61DfNXPT8QU25rVx2XwlSMEinkXjH7m3ZpiqopTL4lz4ZRhyUg2N4PKRqp5HHBxod0/Tk8sxFegSGsCrCu21xrFIKmNpdnk1lU7LQmUuNhJ3XnSMliI8Tx28Ci+NXyP0zba9IOv0TmnOpnYKq5ow9okY+Jdt2LRgnux/X69GD9r5068W6kJJZDc2tLEdPnXhkHPCsTfsvhu1+bcZe6HKnXvpRUSm2LV0ll98fKsW/HVP2XBcU2r2KtSxzidfhzLDfEG6dmWlkIV5YZYUUOGZp0ZP4nfsUN8T+SCas4pJTS1HK+EIYMscV1Mi2b0xTsvjsdXYl67py3ZpY1eK1sfiQtDeY5c+IGIW+JcmtC9mfYdSLlZXLsG5eC5WauwUPytZolry9XL1uC5tbUJMibiezX5Q3T+c236V8ZgzG2tkSBiyeQ3t+n7/OZGvCd2Z9hVHR3GlOpUF3Psx79q4ptpXzMPYLq2r9vw5Jw0ZIjXuWuIPH9U8/x+I63j1NIxeFxeO8mR4N3YGkjvTEK1ltxSftgyKBXijWeW4HBvsZxxBssPWK7m05aIDP6ullU0j0jE6OFxePUD+cUSQeevnyFrSzO0Fq/77dYcvQNreASmPD4eUw2PW/jsAqT1szzOFKj6De+uJzxtTfsmLqg+El/GvXFq3ywRLG3pRiwcNA4T1bJduzfivuePIitoI5I7N0PvlkEoOnbSfEGbW2gnFAR1x103bhMBVP6uPLwxYyH2DGyKRufPYtmOQi14hMXG4+nZt+Ia7Qm65WI/w3+MxBU3D7darxGBY/wNqVj9rXjN8mxMv2chVsnXxEXs2CSCk3bIDUNU10RUqKUUKH0vxk49jLDSZnh5fl9k/n09nlQDF1x/VZz++0zJdnkxcuUFk/mCRUjUg6h2fbV5C24qPI7ejdU+6o8QMvHu0kwRmG2ahdbyuFWphvuT3FYsarXWJXhvzuc42z0SFw5YD0Ky/G9rMH7AUAy7NgavakOki+/t6wuxd21ry2ub/wQy8cQ/0jDswZo3y/C4JPF3G5qKJYu2Y548fqFBSLmhL9b9rqcqHRRJx2sjESOHrf9kPT6bJ1aFhyLlur6Yqm2vJdlMxNhUpEbEPr04FJC3ivjHNm3EO3mriA8ek8NJn8QbX+YgVlxU1axPxEms0gaLKtRqz/TbACgDg7D7SjkyaByesekTkSUu7rTv3b40TBeThfw77YLkJLmvg5D5zEbMe3ebPiT8kP744Nf661T/fLVI1YjXj5X2d52J6Y98jjFdKv9dr/5sGzLERYhDV3XBxNiTev+09AMY+8jZSq8T2/sKfPV0H8t5TCSDTz6wEBsM5zFdECYO0y/lanLOqeojz1qxEZNlfJR/p5e1RMfG4t0aRo/SCz6tCzqShiSj36KdWh+yXHl+PHsUN4hfclx897bKQWzEdzJ5xHVYep/x/JWHuW+uRFqzGAx7eKBaZxE2QMSqjzbhM3mcdmzHgIeOaMcJhvO45VYHNROr1QrKPwpxTN5cgNSociQMH4VF3XbVIk53xJj+4nPS7l8p4s20BfjecE1hvojPOIDnVnTHglFquUZUs84d4nMQ35lXc/R9NzXnlLoP6Yjuy/RBbjI+X4UBe1uKz0Dsv+FaKlb2w59ueQ5ZS+jWEkkbD2PevJP690tcMw67cyhevr2dth1J/bFodiSe+HsqXn32OJ4Tq+Ttw0Y/aP33UFOykiOslplE2FXDsXTmKjz0j9146FuxIlzuz0i8fEMoir/dYzemVKfqmBGDC3bjX9Xx7aBs2i32dcF9y/DQx/q+yltWPP7ijep1qn++N+B9+Owy3u+mmgQiezsm/1YPFkYJA9uh346jWK41o1D3RzLc6854jzddITbM+T/c5+DGwbJz+lfi8bHlmfjs2RV4cnc1j5MLRzZh8LQDlWsa2rfE6NKTqgO0en9wvG+5O9dgwgtH7TeHCRLPf8vB8dH6N4rjaBqpzYbpHoDF3y5DzzetSx+HPTwZj2d/Xvm+bwXyRtjrsdDQ58dC9q0cZW5u6+jeSMZ7O5nvQyhSH/N9gczEBclzo9B9SRXH+4aBWPdol0pBKPX9+ZigJW0G4lhNHBKEhatlwm783TacPG4O74un7sejUZ9lTfbH3uchJQxsie6bTqqaZPWdrmJf+3WLw9Z9+mtX/r4T+R5fug9fJbvXYMBTIiFQiybdR7RG2NfH9VuCqCQkzdF95SR5u4FplhEorch48IZ4vCy9rvJcbX3+q8k5J9nReU9IW/G5SPiy7dc2xLbGB/8cjuvtFHTIPs43iXOm/eeJ3/ueOK5R4mh/shBjlxj7fev3l+v9ReXjVWXcjI039PExfIZWSaD965CsFUswQCv0Neh2BVZNyMGDtYnT2j0sxe83V22aBIlzeKg4h+vvV/+8zjrYV53D+xEW7cRDv9qO1WpRFkDM+b9bMdrwWVT52bVohwWznbz3G1EDx/vwuUp8H3wwuw9Gq6GftRKKKUNF0jUUD46L0zuUhzrTLj8C10+fjHXTRaJouCm3vKH6lOm3ivUqiZPt9F9w4nFS+4FYNLO1uoWAIIevHtUfm2ePxLRhat/EVF2ndK0PmxylcFQckk0vLi5wEjq2xEuzx9kPIpLY1ymzJ2DRlJZIMe+UeD3xvGdemGAO9mE33KjduNLU+V6WOiXE2imNlKKS8YwIJPZfc5w52au5ZEyb1R3DTE+XJcS92+GaxHj9eD/eHaM7hpr3MSxWHMtxA/HVw5WTPSnlPrEv4vM33ew2qVs7vPPeBDxzd3dMVL8jTPYCtsfJ41YTNdkf+XksujPR/FhZs2n6Tt81TN3LxvSd1vZ1HN6R3w31PZOPnzhzHBaI42l+7dDq/wKIyIV6ir/hJ5PNw/qHJYqYIf5Ol95/HR4cYvm7rlab/lj64VA8M0Ccs02VA/J8OaAnFn2okj2pynO19XmsRuecKsgRddfJUQrFviWY4p54XrKs4X7LfrInxfYbKZ7XF1O6RVgGgdHiZV+sE7FPJntS91/fiJd6q/0RYpMikejgkOlx08FxeqtyH1hnJYwYineGGOKliP3jr26K+NrG6ajumPOe9X7GtkjE46/8CgseaI9+pvO6o3jlDONonZKhOaeJ/tk5+AzeYrJHVFes4SMiInKC99XwERERWbCGj4iIiIiIqIFhwkdEREREROSnmPARERERERH5KSZ8REREREREfooJHxERERERkZ9iwkdEREREROSnmPARERERERH5KSZ8REREREREfooJHxERERERkZ9iwkdEREREROSnmPARERERERH5KSZ8REREREREfooJHxERERERkZ9iwkdEREREROSnmPARERERERH5KSZ8REREREREfooJHxERERERkZ9iwkdEREREROSnArIKL11S8z7jktrlS5cqUFFRgebRIdoyERGRq+w8lI7goGAEhwQjJCRU+xkcHIygoCAEBgYiIEAvQw0ICNB+MlYREfmvzVu2qLnaG9C/v5qrH47iFGv4iIiIiIiI/BQTPiIiIiIiIj/FhI+IiIiIiMhPsQ8fERGRE9iHj4gaqrd3fI5vjv2EwrJitca/RASH4ca2V+IPvW9Va6rHPnxEREREROTzZLK3LG2L3yZ7knxv8j3K9+qPmPAREREREZFdsmavofDX98omnUREfmB9+nbsO3cEJeVlao1/CQ0KRrcm7TGoTR+1xv3YpJOIGqKhn81Ucw3DmvGvq7mqVdeks1XLljhx8qRaso9NOomIyCky2ftf1iG/TfYk+d7ke5TvlYiIyJvJZM/409OY8BER+ThZs9dQNKT3SkREvsc2yfOGpI8JHxGRj/Pnmj1bDem9Ui1lLMSk3yxE1Q2pvNjml3H1C5vUgpSOhb8ZgkmfpqtlIt/Xt9dDWDzudawZ/zxe76xWmjTujyeGPo2l2nabx8htw57HStO2257HvIE3o6/a7GmOkjtPJ31M+IiIiBoCmQgNGIKrDROTCF/QBhP/tRb3p91T+fOSn6lVckjk7Zrglmv+jGe6tEUTvbuztZbjMW/QrRjcOAbRKMS5vEykF+ShpEJu7Ign+oltjSIQWnYO6RfOIT8wAm2aX4+H+3bUnu5pss+eo8mTmPARERH5uZOf3oOrJ6zBiEVr8cNmy/TxnW3UI8jbDXjKzud17BgOqFki79cWE69/FA8nNUFocSHy1VqLJvhdj95oEwTkn9+AJ5c8jTu+fh1TVr6OJw/L7a3QOEz+LETq3lcwZfUrWJhVKFcgOryV9pPsY8LXIMnmIfdgYYZarIa8UKhNKfDmF4bYNEshIp8Q1gk3X3YHHr3y13i0x9VqpS42oT8mXy7Wy22978AD3fvjci0AG1TxfPKETXjv78Aji+ZjYpJaZcum9s/6nL8JT/1mITbLpNH0GHlut3qOMabU9PEqXpi3DcFTm9UGLV69jM2ymaOD52q/z/jcjWq1mfX2KuOZ1e8x7EdVx0c8Z9Knm7Rml8bnaUm26TlWTUztHJ8qm6Da33/t9R9bC3z9rL7NFG9t9tVyLIk87RjWnj6B0/m78bd1u3FOrbXoj5RGweLnOezc/SW26SsNdmNvrmzWH4EeyZMxsetk3BIfIZbLkH52t/YIso8JXx3ZBik52QYT7aRc5cncDbQA4GySpwcXe0HC9r1sfsH+a8rHTcOz+OGpgWqNb5Lvw3gcvOKzJHKlRimY0LUPOoYFqRUGYSm4Oaktmsh4XFEuQmwQwiLaYmCHFMTqj6j6+eQZmzdhVaehGOQo2ZPnfJvav0rNBw/Nw/t4Tm2fj0fSRJIxC3hNPX7p74G35hsK+Gr4eFl7pT9WTIum4OgHxvPsWkxbN9Cy/S+d8NYs03aZED4L/MXy/BFp8wy1Xrbb52PEauvzuplM9h4D3jD9HjG9MEBuqP74HPj7POBFtV3u/2ND8Cfj+8c8vGf8nVbHRxyPYWsw1m4BqeP9b3nnfHEc2wAjRKyV27R4a7uv4rmPORv7iVzv9IF/4K6vFuCLytV7QNtmejPP0kKg+9Oq/97rWDpyKsZHywecw/wfFuOrC2UIje6Je3r2RPPAPOw98BH+sKdy+kgWTPjqwXBDoDGdjI1JgTwp//CvifBod82kifhY7JvD0l0rA/GCeC96oLNm/V7ScTRNm6lEe5yPJ3vSkTTr5N0rPksiV2nSH1M6dEWL4HIUl5WrlRatWyYhUUaN0pP4JnUx3jl2EgViMTiyJfrKWr5qnk9eSiaEI6ZYxYcBg4fgwOpNhqRrCO43Nydsg3bJQJdhA83nwpbXDUUXcb6s/eMNksTjDx2DZTzWNnjkHkM8adsWXdQsMjbh60NDMMIQr+S+m1Xa3gaDhrXB0WPW53Zp87q16PL7u1Ap9DlzfIzb5f6L3zPiOsv7r/w7jcdHHY+vN6FSHlqD/ddUSu4HYsSIdOw/phaJvFlYMELlz5BWuLaxuMqUffQuAdFRXXHPNTejudjUt9tQDJG1gJcKkV8qVgTEoHuHEXiYF2ZVYsJX72TnapvSPKsRt2RpnXWNoF7SaK/ZiljWnqNU1aREluqJJNOqiYjV82Wtnc3rbXT0u+S+OCgRNL8X+Xr34K1D6Xhrgny+5fFWtZ4Oa8Oqe79qu/k9W7ZZ16oan2OqkZP7Ztqu75fVc2xKUe2/nv45TfsaWPWYvk37nKw+S8n4u8Rku63Kz0T/HZZtbHpDHnbuKI4X5+PUme/wQ6GdhC9MNp0BiovOYI+cyT6Dc9rDotAkXvyo5vnknU4eO6TmDGRSZZV0VdaurSVhcUZVj9daT5jPhc9ilVpfLdmHrVNbtFeLGmNCqPVxW4tphvPs2L+n40CabQakF2Da28faHZ9OaOdUAauiJYl2OL3/Om1fD83DWMPjZRxzmCASeRNtYBbpHNatfl7rozd23zGUiDWhUa0wsNmdeLhdIkIvie1bnsbYpW9ifmYhZIJ4S6/xWkJI9jHhcwnHJXAnP30GXw+bb6gRNNak2TZbAaaZEyaRPNSoyY1sMnMI02ySGwuRqKU5+l3OkLWAz2K4eK+PaPuk1x6am3Ka9sFhMxWpqvcrie3mJkBPaKWutq//w6K2eN8m6Vv12CaMML9mJy0h/XqwWpb7/PU8c3Lq+PVU4t7JUoNbucZTJmzWTYmWJs+zTvqq+Eyq/i4QecJJfLN3ORZl2D8TRAU5aqYZhDCtWLbq55OHDBiI4YfWYL2DZn0t24oTnW1tm71EykXkeXhs2hTDuVDGFicZkzsT40AmcnunKVhqOM9qU6UWKHotpD2uOT6HcNT4eWSIhFPNWnF6/3XavpqaeBomDs5DPuHwCZy+JGdCENVUW4PmoarWTySDJY3kyJ1C2Tkc0v4gT2Dh6RP64C/hTcSVqWfIWy7UdHI3JnwuZK8ETp6MD/z9E6sExcKm2YoxSNe4yY068TtUxe+qtXSsX52O4YMtr1tlsx0n9mH4fcbmk/L1Yf2cpIEY0WktvjYcUKsmOdrFgLE5jLF5i3Ov55BsaoMpeMCQpFVuluP4M6n6u0BEVF8G4gHZZ26CdeGYmZ1zr9a80dAE051OfjrP+Ro+ec626R8n993MznZHZExdZdV3UHHJ8UnH1xstBbab58/DgREDKzcnrcH+a+S+Ggo1iXzLl1gra+wQg759XsHim5/HvGR99M38nP344qBICGXjkZCOuGf0TMwbNhOLe3TUksCSC4fxmfZIsocJn4vIvl9dktuqJYMBT+CHzQPxtWpqYTvAi7W26Kryg9o2uXGe5XfV3jHsF7tpagKpTRNEEHN6H233oQ26Wh1C/fWt6aWyVTZXcVgKW8vXMzGWIptozXJsSm4dqdF3gcjzCsodNdMsR7Fsc0NeS+t/LFtRmM7NatKbkcsWG1OwX2uer0+y5YO7aoVa3jlFJClqpEkx/QlTtNYVzmmDiS/qg6SYnv918hRDrZ/eWqPrB5btcrLbfF6ck7VWKebHmboquOL4DBGJ3DOW10ubgqV2a+2q3n+rY6e1Hqm8r5VHNSXyXp9t/Afmn8hEPoLRJCICoSjE6cwNeGXjBrH1Szz7v1QcLixEaHgi2jRKRBO1/bn1hoIeqoQJn0tswtdfV9VfQR8UpfJoYbYdqy0JiVYzVK9NShz/rtqTCZupiadx0ptjVlbTfZCvb/scx/0uqlfH17OXcGvNcmrSd8PRd4HI+/xcJIdoAcLCmur9jeKboYnWyrMQF+yNuEbeRStksj4/W5qRm85FarJKPuQ26/O4HFXTqgm6HBjMPKBVbR5v+d0f3zlQJDmm5+sJj7F1i/VzBW1QMsvzX7jTZrv2Gpbt2mOM+2KgJcbmxxl/bxXHRx7Xao6XfF3bBLGd8XcZ97fS61W1/4b9Mj/HZl+dHrCNyJ0+w5TPZmLoZ09j5kG1SnMCC7e8jrFL5DYxLXkad22w3KLhdNqnuP/Lp/Vtcvqv9XayjwlfvdP7da0a8azDgGJRuc/AqnWW/l9asxbTaFsuaFJi/F3VD9vtDNl30WZo7mo4fL926X0jrfbbzghtzqvj69lp/nly4xr7zXKq5bj/CJG3yD11EpmyU31oa4xNuQMPtW2JKLFYdjEDW3K1hxAREZGXYcJXD6yaMA64B/vvM5a0WbMeiUxvFmJJDNvgkeRN5m1j/94Jb1iVgNZnk5IheGOw5Xdp9x6yKhF1hqlfiHwNvcmILMXUBi4xva6cHA7aUtX7ta/S62sD2ViXpNZE1a/XBhPvG2I9SqeVyk1txq4e6qBZTmVVfxeIvFBxKr7MOIZz8pYLgUEIDhCrCo9h0y+pYL5HRETknQKyCi9p4+H4kktqly9dqkBFRQWaR4doy75N1gw+A7zYUJpeNLT3S+Q6b/70bzXXMDx65a/VnHvtPJSO4KBgBIcEIyQkVPsZHByMoKAgBAYGIiBAL0MNCJB3DvbXWEVEDc3oz2ehsKxYLfm3iOAwLL/1RbVUtc1btmg/azPq5omTeietAf37az/ri6M4xRo+IiIiIiKy68a2V6o5/+ev75UJHxERERER2fWH3rdiTHJ/rfbLX8n3Jt+jfK/+iE06iYh83Ls7P0NJeZla8m+hQcF48Irxasm92KSTiIhM2KSTiIjcpluT2t2cxRc1pPdKRERUH5jwERH5uEFt+uDyhE5a7Ze/ku9Nvkf5XomIiMh5bNJJRETkBDbpJCIiE19q0smEj4iIyAnelvAVFRWpOSIicrefduzQfrIPHxEREREREXkMEz4iIiIiIiI/xSaddrCZDBGR7wsPD1dz9YNNOomIyMSXmnQy4bODQZSIyPcx4SMiqh+bTv0PB3PSUVrhn/d8DQkMRue4NhjY4nK1pnrsw0dERERERD5PJnt7zv3it8meJN+bfI/yvfojJnxERERERGSXrNlrKPz1vbJJpx1sJkNEvobNbSpjk04iorp7f8/naq5huL/HrWquamzSSUREbsPmNkREROQIEz4iIh/H5jZERETkCBM+IiIf5881e7Ya0nv1Lcex6Hf3Y9EJtVgDW18dhete3aKWnPD96zV7vEltn1db7v59RD6kXdKNuK/3r/Holbfj9mZqpRDbJAW39LgdD2nbxJRyOya364RYJ7eTfUz4iIiIGgKZgAwRyZV5ql2C5gzrJG4Lnv/dIpxSS0anFt2Px/AkNj5ev/1YfN3WV60/G2ePp0MnFmGqMfmUyy78/Ikci8blHUbj5mZNEaV3dzbohZvadkX78FAEoxxlFeUiUwlFk/gUjG0rs8LqtpMjTPiIiIj8nEysrpsF/GXtCmw0TQsGYfXkUXj+e/WgetTvcfH6piTuxHEc0+cqaTHhfSZ7lYjjdUTNKs4eT4fS03FIzWpaTcDcte9jQiu1TOQWTXF15+EY1DgawWUlKFZrLXbhq5MncSpnOz7dsRjvpK7ETxdFUocgNImUA6NUt50cYcLXINWs6Y28UJi66Lhacl6Nm+m4RO2bGdVanZrxbMHzQ17HVrXkXh44VuSdwjrh5svu0JvL9LharbTTlEZMD/QcjIGN1AOE2IT+mHy52t77DjzQvT8uD1MbyUO24IN/Ar9fMBP91BqNvOh/8Qas+ZeqLdJqfWzOPzbnM+28bqgldJQsmuOGfP7kBTh0eAEmyOcYaqasXquqGittv0yPFeco226cVtudT2CdfS+VakbVvmpJtM25Xr6m9evI86rluVax1Ga/r9OOvYwB9+Pvh4/j7yIZN9XCVnc85e+1jtOW87me7H8LfPOS/nu0fbaNNXLZtB+mx5jI1xKPtToOjBVUG2ex/8J55BYfx/r9x1Gg1hrlntmARWmHkKkt5aNc3UuguCxf+1nddrKPCV8d2QYMOdkmR9rJtqbNL+pbjZpv6Cd+e8HP9r3YNjsxkY/zvWY6Nu9bHrNaJ24uYvM5yuPs7MUNkVMapWBC1z7oGBakVhhENkNr2ZTmkt6UpkwE2rDQZriy7fXoIbeHpeDmpLZoEizm5XYEISyiLQZ2SGH/Ck/6fjPWdByE6+zV5lwzAEMPpztdY6TVNJlrCCfjmClZdOSamdgokkp0nIxF8jn/mIAWYrU5RqjXWjR4PSbYPd+K8/Lk9Ri2wPR7nwTWieTFzM72Wc7FOufei3h925pR9R6c8s164GnTc9/HsHWmc7ZIop437recZELeH0+L9zAUrUWCrj/HqhbOwfGsiqxFXfTb1sCN6nhXissyoXsJeNG0H+LzaL/AJun7Fo9tGGDevvHFZPz9eQ9f15BPyj2zDvN+/g7/q1y9V0lss8G4PErGonwcz7Sqo9ZUt50smPDVg6GGk6TphG5MirQmKzUJEK5Qo+YbMuCswNPXqEUD6/dSudmJiW8207F537ZNYLyBzed47Ih14QJRnTTpjykduqJFcDmKy2QzGWu5Gd9hzbEf8GmqbEojphNn9CY5IdGQjWlat0xCoowqpSfxjdx+7KRWghsc2RJ9WcvnxdJwrDa1Na1ao20NkkWL49i47jiGXm+JES2uHYRO4nxWKYGolKy2xnWDRfJiUml7fwy78TgO1HQwV4fvpTW6dPwWH9gU5DrtxsmGuKvv+5oNMpESv6/9cfz9Yy8oVDyxBasxGfcZYr72eXyz2VADKBLQSYaY3qYNOqlZIleITbgW41o2QxjKcS77J3x5QW1QqttO1pjw1bvWmPCP9/F7LMAHppoXqyYx1s075GQu7avUZMKmaY1N8w/rmsQtWifurbIGzu7zZe2Vzet95+h3yX1xUEJqfi/y9So3O5Gca6ZT3ftV283v2bLNulbV+Byd1XarEkp9n63el3x98z5a3rdWk1mpCUzlGl3b2lwL+VqGx1baD8M2O+/hmPFztDqGps9Rf/3HvgHWzNIfJ79H2n5b/S59n421gNpjqvjdZlafjZgcfpbkN84dxfHifJw68x1+KKyc8MlS1P1n01RTGhFwQ0Kh1QOW5kPeQrZ1WIRcQnHRGeyRM9lncE57mSg0iZc/yTslo61ThYG254+XsEatrxmRkB22nLu0SWumWDnhOpWeBrRvbVVg2qJNsppT203NG9Ukz4vH0qtP0Jx7LzKmr8CLULGgqnOmE4z7rtUwXr9Zva5ztZIuYa9wUybAtS0IIKojLZlLao3YwBJkZn6HBUf1m5SbVLedKmPC5xJ6KZ69gHNq0UtYPfh9Q42gsSbNtskE8Jj5Iltc6Fs1W1mB+47Y9K0TQe8DYxOZ36bhMZuLfwuRqB1x9LucYb/ZiQygzjXTkap6v5LY/jzworZd73ti+/obF7TBB4YAXGn79ekiKVUba8BuExiRAFm9tpjmTjCUNBvZNOP5/ZGXDEmXXpNoeg35OVmXHn+L1dUeQ1Ww0NFSw2yvRrYS8R4mrBukNwWSk8PPXXzf6tKMiXzUSXyzdzkWZVQRPOOvxoTuozC55+2YnNgYweW52H/qJy3Biwqy0wxUE4SwUDVL7qc121yPjfYu3rUasjbi4t4+LaFS5Pl1wpHJlnOCFgNqQ9aamWKHcbLpYygYEyQT4z5p203nacPk8Nys1PS9aK1W5OOqjJV2Wr3Y1Foa910jm2jK19UG0KlbMmlNT6qdImvrbJNtbWAY5wsCiOqLMZk7deZ7fHrccbJnbzvZx4TPhQ7ZaW4ng9Ohf/6fg5O6TZMJY5CWQdmqaQjQ7/obcGjdFkMwuQH3GYKcvUBpUcXvqrUaNNPRVL8PQ39jTDLk68P6Oa36Y1hHkSCpWlLb36+9ppqtMxkUv1ngXCmsTTOetu3VrB3ad8Lqu2LzOVZqWlN7Wzd8i06D+1uOqXbMXdCMifxXcDSaRMSiSWgoggOAMhFGosLi2UfPq/XH/7d3N6FRnHEcx/9JNqlBa4tSWpUYbX2hiEgVCjWV2Jd4CQWltOlpCZaIoPTWU0IOopf0IoVSsRTEi0gPSvUgqfQFo4dCtFCkFbE0idWqJQVpzUs16fN/ZnZ3ZufZ12w0O/l+YHB2Z2d2ntk4zzz7/ObZrj0in2U3KDTh0PN95jwb6dXxzqm53D55vMwePv1S1OxPMXFGPUeFzrtZ+xRZXp6iyxKIMto6Nli/aTQyu5EVqtMcdVSKPfbla17dFK5H9JrBny0oVI96bg98J9fbWiINcGBWLX5VdtrGnJmfrpPnTONu/yvve9PGVtlUaLndCFxo8M0SvbdqrTkBR9hv81qk34+R5I4EKr3o9uYi3woq17dyZcu8V/mKj+m4Ze+DebzSn7Vc31h6jSmvN1WXZ69TiXL57P1z3SIH/LLl7LksJCvuqdHRfGZ4IZDhfft8/Wh2jMkV26lsjAkxcudb+XzwhBwePCen//xLHtUtkqbnN8sbS0X+feSKgapHMjHpz+KJsD1U2juV/r9vJj81kkkHbJVeHYzDxvR1OiTSmcw0cDqSpnGVOie0S48kbcqgoNc+sLc5BEeVtCkKHRjE35adnOdUxz69ud1fpjQxkZRr6eU6FY5HFl+WrAi+HrNev4Fs6vM+U4Z0nPSAmIZ1uN5fuyeZqTPMfmnCxzveWfWAlutgqocz1UD31omUxXk8u22SJL29H1qkr817uQqVN0diZP0xf10z2SRI1d2Hj6rXuEgWplomNXWSqA1MdWYqtNxfhKiae2PT/oCm1WPa3+Xp6SmZmpqSFxbV28eVMj4+7s8VpvdH9bdmx+m0gvBGvLLP671QGl10joy1V6516uuC8/5iu53jsv74EekYNts4tlJOBmN1ut30c/rai7IjGIkJvW9weYH3WqHLzf73ZmKaPdLtRWQi20yto9sIr5dfafvgca0TfM61TnCb2ftrhI5heP105CdHpaef/Rerj0SjQ47PO/N34ihD3mNq6LfwyWHpsp+dLs/9OUb3Ofwa999riuv4+ULHCXPNkaun/LnK2bLuXdn2dIM5Id6Qw1d/tM+tWtIso6NDct8+Mp55XbrWNMlCM3v3zgk5m2iX3UsXi0yOyOmfB+T3pa3StWq5Wf6P/Hr9jJxLrzgzezfs8ufyW7BggT9XGT9dHzYXFQlJ1Cekvr7B/ptIJKTOXGjU1tZKTY13JVJT4/2a8FyqqyL0/3TPDdkXPNcAgMNs1DFzWbF1zODly/bfFctL/w3AP255UdSWre5rzHLlqqfo4as476L5fFt3jovqoGjUzxu9y2MjJqnRxxxxx0g8r0TB94qOdFaOEmI6vpzldQqOcOazEZrtssMea8f7h2It2ts3Ehq9TY9huTRCM3Pm7+VY9j6MSP9Apue3lGhNoYiRxoDTv7lVCkZkg7F22VbZrb+tt9G7h2//S15jT6b+lpF7Ivdv35K7U+ZxQ5Ps1IhNszb2RB4+uCmXKtTYQ4XY4f29nrPgoE4AgPihwVcBoQjjW15vSq5eIe2Byby23Q4CkmkYNsm+1akRu9ql4+hL0pfuUYnGVnTdQjem57Zd+tKjg5lJB+goufcmGjspPqaj8pXXLbJ9G0nK9GpGYy0rAzGdJunoTcpQ4PPqb819o34kAqPfiKe2ayaNvBws+fibfeg0ja70PhwKRaasNUnpSkcp80VrwtuyF22FIkZ6kdc5HBrRzj36pvYkBl4TjDFh3hp9cF8mpnUAFv8ePo1qjt+SwaEBuaC/zzBxRc7eHJJR/UkHjdjUmKfGhuTCb1cyvYKYO+wtBrl6/AEAcUGk02FGMZmy5YnTxdJ8Ky8we4jbuBHpBICZ+/KXM/Lf1EP/UbzV1ybkw5ff8R/lR6QTAAAAQNVb92xoNLxYi2tZafABAAAAcNq2bJNsWPKi7f2KKy2bllHLGkdEOh2IyQCoJsRt3Ih0AgBmC5FOAMBjQ9wGAADkQoMPAKoccRsAAJALkU4HYjIAUP2IdAIAZks1RTpp8DlQiQJA9Yt7gw8A8ORcvOT9zjT38AEAAAAAnhgafAAAAAAQU0Q6AQAoApFOAEBKNUU6afABAFAEGnwA5qtPL5+Sb4YGZezhhP9MvDQmnpK25i3y0eZd/jOFcQ8fAAAAgKqnjb2vb1yKbWNPadm0jFrWOKLBBwAAAMBJe/bmi7iWlUgnAMTA2NiYTE5Ops+PcaMxyYaGBmlsbPSfefyIdAKYj97+6mN/bn44/94n/lx+1RPpTMj/G13FhICoJu0AAAAASUVORK5CYII=;" vertex="1" parent="1">
          <mxGeometry x="20" y="10.12" width="212.21" height="139.88" as="geometry" />
        </mxCell>
        <UserObject label="&quot;G:\Drive partagés\FR-SIEGE-PRICING_GENERAL\REPORTING\ECHANGES_PRICING\Demande Client\Verbatims HM et SM Perception augmentation de prix v4.xlsx&quot;" linkTarget="_blank" id="VhhkQ_d4QDXPh7xiBEXZ-36">
          <mxCell style="text;whiteSpace=wrap;" vertex="1" parent="1">
            <mxGeometry x="390" y="1031" width="360" height="70" as="geometry" />
          </mxCell>
        </UserObject>
        <mxCell id="VhhkQ_d4QDXPh7xiBEXZ-37" value="" style="shape=image;html=1;verticalAlign=top;verticalLabelPosition=bottom;labelBackgroundColor=#ffffff;imageAspect=0;aspect=fixed;image=https://cdn3.iconfinder.com/data/icons/document-icons-2/30/647702-excel-128.png" vertex="1" parent="1">
          <mxGeometry x="340" y="1040" width="40" height="40" as="geometry" />
        </mxCell>
        <mxCell id="VhhkQ_d4QDXPh7xiBEXZ-44" value="Protégé par&amp;nbsp;&lt;div&gt;mot de passe&lt;/div&gt;" style="shape=callout;whiteSpace=wrap;html=1;perimeter=calloutPerimeter;direction=west;flipH=1;fillColor=#ffcccc;strokeColor=#36393d;position2=0.38;" vertex="1" parent="1">
          <mxGeometry x="730" y="1080" width="80" height="70" as="geometry" />
        </mxCell>
      </root>
    </mxGraphModel>
  </diagram>
</mxfile>
